<svg xmlns="http://www.w3.org/2000/svg"><symbol id="sprite-arrow-to-right" viewBox="0 0 16 12"><title>arrow-to-right</title><path d="M9.533 2.035 12.67 5.23H1.468l-.02.003a.874.874 0 0 0-.482.241.765.765 0 0 0-.216.549c0 .22.079.412.222.548.14.135.327.2.517.2h11.226L9.577 9.964a.768.768 0 0 0-.205.537c0 .184.06.39.205.537.146.15.35.211.534.211a.749.749 0 0 0 .534-.21l4.444-4.525c.283-.288.258-.749.019-1.054l-.01-.012-.01-.01L10.6.96h-.001C10.315.67 9.856.696 9.554.942l-.01.009-.01.01c-.283.287-.258.748-.018 1.053l.008.011.01.01z"/></symbol><symbol fill="none" id="sprite-balance-01" viewBox="0 0 70 70"><title>balance-01</title><circle cx="35" cy="35" r="16" fill="#3EB8FF"/></symbol><symbol fill="none" id="sprite-balance-02" viewBox="0 0 56 57"><title>balance-02</title><path d="M8.638 19.16 28 28.86v24.308l-18.468-9.28c-.536-.24-.834-.839-.834-1.377V19.16h-.06z" fill="#1CA2FF"/><path d="M47.362 19.16 28 28.86v24.308l18.468-9.28c.536-.24.834-.839.834-1.377V19.16h.06z" fill="#0970E9"/><path d="m28 9.46-19.362 9.7L28 28.86l19.362-9.7L28 9.46z" fill="#0970E9"/><path d="M28 28.86s7.209-3.653 12.987-6.527C38.604 17.543 33.72 14.25 28 14.25s-10.604 3.293-12.987 8.083A2337.573 2337.573 0 0 0 28 28.859z" fill="#3EB8FF"/></symbol><symbol fill="none" id="sprite-balance-03" viewBox="0 0 56 57"><title>balance-03</title><path d="M8.638 19.16 28 28.86v24.308l-18.468-9.28c-.536-.24-.834-.839-.834-1.377V19.16h-.06z" fill="#1CA2FF"/><path d="M47.362 19.16 28 28.86v24.308l18.468-9.28c.536-.24.834-.839.834-1.377V19.16h.06z" fill="#0970E9"/><path d="m28 9.46-19.362 9.7L28 28.86l19.362-9.7L28 9.46z" fill="#0970E9"/><path d="M28 9.46 32.468.48c.179-.42.715-.599 1.132-.36l17.872 8.982c.417.18.596.718.358 1.137l-4.468 8.982L28 9.46zm-19.362 9.7L4.17 10.178c-.178-.419-.06-.898.358-1.137L22.4.06c.417-.18.894-.06 1.132.36L28 9.4 8.638 19.16z" fill="#1CA2FF"/><path d="m28 28.86-9.294 4.67c-.238.12-.536.12-.715 0L.477 24.787c-.596-.3-.596-1.198 0-1.497l8.161-4.131L28 28.86zm19.362-9.7 8.161 4.131c.596.3.596 1.197 0 1.497l-17.455 8.801c-.238.12-.536.12-.715 0L28 28.86" fill="#1CA2FF"/><path d="M28 28.86s7.209-3.653 12.987-6.527C38.604 17.543 33.72 14.25 28 14.25s-10.604 3.293-12.987 8.083A2337.573 2337.573 0 0 0 28 28.859z" fill="#3EB8FF"/><path d="M5.421 28.86v15.506c0 .718.417 1.317 1.013 1.616L28 56.82l21.566-10.837c.596-.3 1.013-.958 1.013-1.616V28.859" stroke="#0970E9" stroke-width=".5" stroke-miterlimit="10"/></symbol><symbol id="sprite-book" viewBox="0 0 17 12"><title>book</title><path d="M14.4 0a.62.62 0 0 1 .425.164.54.54 0 0 1 .177.396v8.43c0 .307-.275.56-.607.56-1.414.006-3.789.275-5.426 1.856V2.591c0-.106.029-.201.086-.286C10.4.307 12.98.005 14.4 0zM1.992 8.989V.56A.53.53 0 0 1 2.17.164.619.619 0 0 1 2.593 0c1.42.005 4.001.307 5.347 2.305a.49.49 0 0 1 .085.286v8.82C6.388 9.83 4.02 9.555 2.6 9.555c-.332-.006-.607-.26-.607-.566z"/><path d="M.607 1.946h.44v7.043c0 .788.699 1.433 1.552 1.433 1.202.005 3.182.222 4.585 1.443-2.427-.55-4.986-.19-6.44.117a.633.633 0 0 1-.515-.111.552.552 0 0 1-.229-.44V2.507c0-.312.275-.56.607-.56zm15.346 7.043V1.946h.44c.332 0 .607.248.607.56v8.931a.545.545 0 0 1-.229.439.653.653 0 0 1-.515.11c-1.46-.306-4.013-.66-6.44-.115 1.403-1.227 3.383-1.444 4.585-1.444.853-.005 1.552-.65 1.552-1.438z"/></symbol><symbol id="sprite-cash-hand" viewBox="0 0 15 23"><title>cash-hand</title><path d="M4.154 5.82 0 9.903v7.172l1.385 2.722V23h5.307v-3.171l1.5-2.318H15V0H4.154v5.82zm1.384 13.682v2.364h-3v-2.332l-1.384-2.722v-6.437l3-2.949v7.363h2.45l1.607-2.368a.813.813 0 0 1 1.047-.263.787.787 0 0 1 .36 1.025l-.009.014-4.07 6.305zM8.077 8.778c0-.812.674-1.474 1.5-1.474s1.5.662 1.5 1.474c0 .812-.674 1.474-1.5 1.474s-1.5-.662-1.5-1.474zm5.77 7.599H12.23v-.114c0-.812.674-1.474 1.5-1.474h.115v1.588zM12.23 1.134h1.615v1.588h-.115c-.826 0-1.5-.662-1.5-1.474v-.114zm-6.923 0h1.615v.114c0 .812-.674 1.474-1.5 1.474h-.115V1.134zm0 2.722h.115c1.463 0 2.654-1.17 2.654-2.608v-.114h3v.114c0 1.438 1.19 2.608 2.654 2.608h.115v9.799h-.115c-1.463 0-2.654 1.17-2.654 2.608v.114h-2.15l1.698-2.627.014-.027a1.925 1.925 0 0 0-.388-2.246l-.143-.136.194-.054c1.135-.318 1.933-1.348 1.933-2.509 0-1.438-1.19-2.608-2.653-2.608-1.464 0-2.659 1.17-2.659 2.608 0 .853.425 1.651 1.14 2.141l.162.114-.18.081a1.93 1.93 0 0 0-.794.676l-1.26 1.865h-.683V3.856z"/></symbol><symbol id="sprite-cash-wallet" viewBox="0 0 16 16"><title>cash-wallet</title><path d="M10.7 10.8c0 .8.7 1.5 1.5 1.5H15V9.2h-2.8c-.9.1-1.5.8-1.5 1.6z"/><path d="M15 13.4h-2.7c-1.4 0-2.6-1.2-2.6-2.5 0-1.5 1.2-2.7 2.7-2.7h2.7V7c0-.9-.5-1.4-1.5-1.4h-2.7C10.1 6.5 9 7 7.8 7c-1.2 0-2.3-.6-3-1.4H2.1c-.3 0-.5-.2-.5-.5s.2-.5.4-.5h2.1c-.2-.5-.3-1-.3-1.6H2.1C1 3 0 3.9 0 5.1v8.8C0 15.1 1 16 2.1 16h11.5c.8 0 1.4-.6 1.4-1.3v-1.3zm-2.2-9.6c0-.5-.3-.8-.8-.8h-.2c0 .6-.1 1.1-.3 1.6h.5c.5 0 .8-.4.8-.8z"/><path d="M7.8 6a3 3 0 1 0 0-6 3 3 0 0 0 0 6z"/></symbol><symbol id="sprite-chart" viewBox="0 0 15 10"><title>chart</title><path d="M9.604 2h-.208C8.626 2 8 2.546 8 3.216v5.568C8 9.454 8.626 10 9.396 10h.208C10.374 10 11 9.454 11 8.784V3.212C11 2.542 10.379 2 9.604 2zM0 6.5a1.5 1.5 0 1 1 3 0v2a1.5 1.5 0 1 1-3 0v-2zm4-4a1.5 1.5 0 1 1 3 0v6a1.5 1.5 0 1 1-3 0v-6zm8-1a1.5 1.5 0 0 1 3 0v7a1.5 1.5 0 0 1-3 0v-7z"/></symbol><symbol id="sprite-check" viewBox="0 0 8 6"><title>check</title><path d="M7.3.346c-.185-.161-.485-.161-.647.046L3.261 4.223 1.3 2.653c-.208-.16-.485-.138-.647.07a.469.469 0 0 0 .07.646L3.03 5.215c.093.07.185.093.277.093a.415.415 0 0 0 .346-.162L7.346.992C7.507.808 7.507.508 7.3.346z"/></symbol><symbol fill="none" id="sprite-circle-btc" viewBox="0 0 70 70"><title>circle-btc</title><circle cx="35" cy="35" r="35" fill="#F2F4F9"/><path d="M40.735 33.065c1.236-.98 1.853-2.405 1.853-4.275 0-1.693-.53-3.029-1.676-4.187C39.765 23.534 38.352 23 36.588 23h-8.912c-.617 0-1.058.445-1.058 1.069 0 .623.44 1.069 1.059 1.069h1.852v12.47h-2.382c-.618 0-1.147.534-1.147 1.157 0 .624.53 1.158 1.147 1.158h2.382v2.85h-1.852c-.618 0-1.06.446-1.06 1.07 0 .623.442 1.068 1.06 1.068h10.058c1.941 0 3.53-.535 4.589-1.692C43.382 42.06 44 40.636 44 38.854c0-2.85-1.059-4.81-3.265-5.79zm-5.647 6.858c.618 0 1.147-.534 1.147-1.158 0-.623-.53-1.158-1.147-1.158h-3.353V34.58h6.089c1.323 0 2.294.356 3 1.069.705.712 1.058 1.692 1.058 3.028s-.353 2.316-1.058 3.029c-.706.712-1.677 1.068-3 1.068h-6.089v-2.85h3.353zm-3.353-14.696h4.853c1.147 0 2.03.356 2.736.98.705.712.97 1.514.97 2.582 0 1.07-.353 1.87-.97 2.583-.706.713-1.5 1.07-2.56 1.07h-5.029v-7.215z" fill="#036EE9"/></symbol><symbol fill="none" id="sprite-circle-card" viewBox="0 0 70 70"><title>circle-card</title><circle cx="35" cy="35" r="35" fill="#F2F4F9"/><path d="M33.683 30.974c.45 0 .816-.346.816-.772 0-.426-.366-.772-.816-.772-.45 0-.816.346-.816.772 0 .426.365.772.816.772z" fill="#056FE9"/><path d="M46.372 26H24.628C23.178 26 22 27.115 22 28.487v13.035c0 1.372 1.178 2.487 2.628 2.487h21.744c1.45 0 2.628-1.115 2.628-2.487V28.487C49 27.115 47.822 26 46.372 26zm.997 15.513c0 .523-.444.943-.997.943H24.628c-.552 0-.997-.42-.997-.943v-7.109H47.37v7.11zm0-8.653H23.63v-1.886h23.74v1.886zm0-3.43H23.63v-.943c0-.523.445-.943.997-.943h21.744c.553 0 .997.42.997.943v.943z" fill="#056FE9"/><path d="M26.441 30.974h3.626c.453 0 .815-.343.815-.772s-.362-.772-.815-.772H26.44c-.453 0-.816.343-.816.772 0 .42.372.772.816.772z" fill="#056FE9"/></symbol><symbol fill="none" id="sprite-circle-celsius" viewBox="0 0 51 51"><title>circle-celsius</title><circle cx="25.289" cy="25.289" r="25.289" fill="#F2F4F9"/><path d="M28.92 28.28c-.52 0-.804.204-.841.602-.114.894-.284 2.255-2.338 2.255-1.684 0-2.508-.885-2.508-2.692v-5.812c0-1.788.824-2.692 2.451-2.692 1.893 0 2.347 1.186 2.395 2.177.019.389.321.612.842.612.53 0 .842-.155.842-.942 0-2.012-1.694-3.412-4.107-3.412-2.603 0-4.098 1.555-4.098 4.257v5.812c0 1.458.407 2.566 1.202 3.294.69.632 1.685.963 2.868.963 2.432 0 4.126-1.43 4.126-3.47.01-.787-.313-.953-.833-.953zm-8.711-10.429c0-1.37-1.089-2.488-2.423-2.488-1.335 0-2.423 1.118-2.423 2.488 0 1.37 1.088 2.488 2.423 2.488 1.334 0 2.423-1.117 2.423-2.488zm-2.423.963c-.52 0-.937-.438-.937-.963 0-.524.426-.962.937-.962.51 0 .937.438.937.962 0 .525-.417.963-.937.963z" fill="#0F75EA"/></symbol><symbol fill="none" id="sprite-circle-chart" viewBox="0 0 70 70"><title>circle-chart</title><circle cx="35" cy="35" r="35" fill="#F2F4F9"/><path fill-rule="evenodd" clip-rule="evenodd" d="M26 22.809v22.382c0 .54.41.809.82.809h3.417c.547 0 .82-.404.82-.809V22.809c.137-.405-.273-.809-.683-.809H26.82c-.41 0-.82.404-.82.809zm3.417.944v20.629h-1.64v-20.63h1.64zm3.554 4.314v17.124c0 .54.41.809.82.809h3.418c.546 0 .82-.404.82-.809V28.067c0-.539-.41-.809-.82-.809H33.79c-.41 0-.82.27-.82.81zm3.417.81v15.505h-1.64V28.876h1.64zm3.555 16.314v-12c0-.405.41-.809.82-.809h3.417c.41 0 .82.27.82.809v12c0 .404-.273.809-.82.809h-3.417c-.41 0-.82-.27-.82-.809zm3.417-.809V34.135h-1.777v10.247h1.777z" fill="#0F75EA"/></symbol><symbol fill="none" id="sprite-circle-download" viewBox="0 0 70 70"><title>circle-download</title><circle cx="35" cy="35" r="35" fill="#F2F4F9"/><g clip-path="url(#a)" fill="#0F75EA"><path d="M34.78 40.692c.145.148.432.295.72.295.287 0 .575-.147.862-.295l5.175-5.307c.144-.148.288-.443.288-.738 0-.294-.144-.59-.288-.737a1.108 1.108 0 0 0-1.581 0l-3.306 3.244V24.179c0-.737-.575-1.179-1.15-1.179s-1.15.442-1.15 1.18v12.974l-3.307-3.391c-.143-.295-.43-.295-.862-.295-.288 0-.575.147-.719.295a1.178 1.178 0 0 0 0 1.622l5.319 5.307z"/><path d="M45.85 37.744c-.575 0-1.15.442-1.15 1.18v4.717H26.3v-4.718c0-.59-.431-1.18-1.15-1.18-.719 0-1.15.59-1.15 1.18v5.898c0 .59.431 1.18 1.15 1.18h20.7c.575 0 1.15-.443 1.15-1.18v-5.898c0-.59-.431-1.18-1.15-1.18z"/></g><defs><clipPath id="a"><path fill="#fff" transform="translate(24 23)" d="M0 0h23v23H0z"/></clipPath></defs></symbol><symbol fill="none" id="sprite-circle-fan" viewBox="0 0 51 51"><title>circle-fan</title><path fill="#E5E5E5" d="M0 0h51v51H0z"/><path fill="#fff" d="M-153 0h368v363h-368z"/><circle cx="25.289" cy="25.289" r="25.289" fill="#F2F4F9"/><mask id="a" fill="#fff"><path d="M35.224 26.955c-.742-1.404-2.11-2.302-3.667-2.399l-2.58-.16a3.557 3.557 0 0 0-.383-.674l1.165-2.375a4.663 4.663 0 0 0-.195-4.461c-.821-1.364-2.244-2.175-3.8-2.175h-.008c-1.556 0-2.979.81-3.792 2.175a4.647 4.647 0 0 0-.195 4.453l1.157 2.375a3.548 3.548 0 0 0-.383.674l-2.58.16c-1.556.097-2.925.995-3.668 2.4a4.659 4.659 0 0 0 .063 4.46c.782 1.389 2.174 2.247 3.737 2.295h.141c1.509 0 2.893-.762 3.722-2.062l1.423-2.214a2.987 2.987 0 0 0 .766 0l1.423 2.214c.837 1.3 2.22 2.062 3.722 2.062h.14c1.556-.048 2.956-.907 3.738-2.295a4.642 4.642 0 0 0 .054-4.453zm-13.22 3.37a2.081 2.081 0 0 1-1.83.98 2.07 2.07 0 0 1-1.775-1.092 2.193 2.193 0 0 1-.032-2.118c.36-.682.993-1.092 1.736-1.14l2.267-.136a3.7 3.7 0 0 0 .884 1.565l-1.25 1.941zm3.76-3.273c-.65 0-1.173-.538-1.173-1.204 0-.048 0-.088.008-.136a1.181 1.181 0 0 1 1.165-1.067c.602 0 1.102.465 1.165 1.067.008.04.008.088.008.136 0 .666-.524 1.204-1.173 1.204zm1.892-6.788L26.64 22.35a3.544 3.544 0 0 0-.876-.113c-.305 0-.602.04-.884.113l-1.016-2.087a2.175 2.175 0 0 1 .094-2.118c.399-.658 1.047-1.035 1.798-1.035.75 0 1.407.377 1.806 1.035.399.658.438 1.428.094 2.119zm5.473 9.949a2.086 2.086 0 0 1-1.775 1.091 2.039 2.039 0 0 1-1.83-.979l-1.25-1.95a3.63 3.63 0 0 0 .883-1.564l2.267.136a2.076 2.076 0 0 1 1.736 1.14c.36.682.344 1.46-.031 2.126z"/></mask><path d="M35.224 26.955c-.742-1.404-2.11-2.302-3.667-2.399l-2.58-.16a3.557 3.557 0 0 0-.383-.674l1.165-2.375a4.663 4.663 0 0 0-.195-4.461c-.821-1.364-2.244-2.175-3.8-2.175h-.008c-1.556 0-2.979.81-3.792 2.175a4.647 4.647 0 0 0-.195 4.453l1.157 2.375a3.548 3.548 0 0 0-.383.674l-2.58.16c-1.556.097-2.925.995-3.668 2.4a4.659 4.659 0 0 0 .063 4.46c.782 1.389 2.174 2.247 3.737 2.295h.141c1.509 0 2.893-.762 3.722-2.062l1.423-2.214a2.987 2.987 0 0 0 .766 0l1.423 2.214c.837 1.3 2.22 2.062 3.722 2.062h.14c1.556-.048 2.956-.907 3.738-2.295a4.642 4.642 0 0 0 .054-4.453zm-13.22 3.37a2.081 2.081 0 0 1-1.83.98 2.07 2.07 0 0 1-1.775-1.092 2.193 2.193 0 0 1-.032-2.118c.36-.682.993-1.092 1.736-1.14l2.267-.136a3.7 3.7 0 0 0 .884 1.565l-1.25 1.941zm3.76-3.273c-.65 0-1.173-.538-1.173-1.204 0-.048 0-.088.008-.136a1.181 1.181 0 0 1 1.165-1.067c.602 0 1.102.465 1.165 1.067.008.04.008.088.008.136 0 .666-.524 1.204-1.173 1.204zm1.892-6.788L26.64 22.35a3.544 3.544 0 0 0-.876-.113c-.305 0-.602.04-.884.113l-1.016-2.087a2.175 2.175 0 0 1 .094-2.118c.399-.658 1.047-1.035 1.798-1.035.75 0 1.407.377 1.806 1.035.399.658.438 1.428.094 2.119zm5.473 9.949a2.086 2.086 0 0 1-1.775 1.091 2.039 2.039 0 0 1-1.83-.979l-1.25-1.95a3.63 3.63 0 0 0 .883-1.564l2.267.136a2.076 2.076 0 0 1 1.736 1.14c.36.682.344 1.46-.031 2.126z" fill="#0F75EA"/><path d="m31.557 24.556-.024.4.024-.4zm-2.58-.16-.368.155.096.229.247.015.025-.4zm-.383-.674-.359-.176-.105.214.138.194.326-.232zm1.165-2.375.36.176v-.001l-.36-.175zm-7.795-4.461.343.206v-.002l-.343-.204zm-.195 4.453.36-.175-.36.175zm1.157 2.375.326.232.137-.194-.104-.213-.36.175zm-.383.674.024.399.248-.015.096-.229-.369-.155zm-2.58.16.024.4-.025-.4zm-3.668 2.4-.353-.188v.002l.354.185zm3.8 6.755-.012.4h.012v-.4zm3.863-2.062-.337-.216v.001l.337.215zm1.423-2.214.05-.397-.25-.032-.137.212.337.217zm.766 0 .336-.217-.136-.212-.251.032.05.397zm1.423 2.214-.337.216.337-.216zm3.862 2.062v.4h.013l-.013-.4zm3.738-2.295.348.197-.348-.197zm-13.167-1.083.336.217-.336-.217zm-1.83.98-.012.399h.004l.009-.4zM18.4 30.212l.35-.195-.002-.002-.348.197zm-.032-2.118-.353-.187-.002.003.355.184zm1.736-1.14-.024-.399h-.002l.026.4zm2.267-.136.386-.107-.086-.312-.324.02.024.399zm.884 1.565.336.216.171-.265-.218-.228-.289.277zm1.345-2.672.395.064.002-.012v-.011l-.397-.041zm2.33 0-.398.041.002.018.003.017.393-.076zm.727-5.448-.358-.179-.002.003.36.175zM26.64 22.35l-.1.387.316.081.143-.293-.36-.175zm-1.76 0-.36.175.144.293.316-.08-.1-.388zm-1.016-2.087-.36.176.36-.175zm5.66 10.062.34-.212-.003-.004-.336.216zm-1.25-1.95-.29-.276-.217.227.17.265.337-.216zm.883-1.564.024-.4-.324-.019-.086.314.386.105zm2.267.136.026-.399h-.002l-.024.4zm1.736 1.14-.354.185v.001l.354-.186zm2.418-1.319c-.806-1.523-2.297-2.506-3.996-2.611l-.05.798c1.413.088 2.66.903 3.339 2.187l.707-.374zm-3.996-2.611-2.58-.16-.05.798 2.58.16.05-.798zm-2.236.083a3.955 3.955 0 0 0-.426-.75l-.652.464c.136.19.253.39.34.597l.738-.31zm-.393-.342 1.165-2.375-.718-.352-1.165 2.375.718.352zm1.166-2.376a5.063 5.063 0 0 0-.213-4.843l-.685.413a4.262 4.262 0 0 1 .178 4.08l.72.35zm-.213-4.843c-.891-1.481-2.443-2.368-4.142-2.368v.8c1.413 0 2.707.735 3.457 1.98l.685-.412zm-4.142-1.968v-.4h-.008v.8h.007v-.4zm-.008-.4c-1.699 0-3.251.886-4.136 2.37l.688.41c.741-1.245 2.035-1.98 3.448-1.98v-.8zm-4.135 2.368a5.047 5.047 0 0 0-.212 4.835l.72-.35a4.247 4.247 0 0 1 .178-4.072l-.686-.413zm-.212 4.835 1.157 2.375.72-.35-1.158-2.376-.72.35zm1.19 1.968a3.95 3.95 0 0 0-.425.75l.737.311a3.15 3.15 0 0 1 .34-.597l-.651-.464zm-.081.506-2.58.16.05.8 2.58-.161-.05-.799zm-2.58.16c-1.7.106-3.19 1.089-3.996 2.612l.707.374c.68-1.284 1.925-2.1 3.338-2.187l-.05-.798zm-3.997 2.614a5.059 5.059 0 0 0 .068 4.843l.697-.393a4.259 4.259 0 0 1-.056-4.08l-.709-.37zm.068 4.843c.849 1.506 2.366 2.445 4.074 2.498l.025-.8c-1.42-.043-2.686-.821-3.402-2.09l-.697.392zm4.086 2.498h.142v-.8h-.142v.8zm.141 0c1.648 0 3.158-.834 4.059-2.247l-.675-.43c-.756 1.187-2.014 1.877-3.384 1.877v.8zm4.058-2.246 1.423-2.214-.673-.433-1.423 2.215.673.432zm1.036-2.034c.142.019.284.028.434.028v-.8c-.116 0-.225-.007-.332-.021l-.102.793zm.434.028c.15 0 .291-.01.434-.028l-.102-.793c-.108.014-.216.02-.332.02v.8zm.046-.208 1.423 2.214.673-.432-1.423-2.215-.673.433zm1.424 2.215c.908 1.41 2.417 2.245 4.058 2.245v-.8c-1.362 0-2.62-.69-3.386-1.878l-.672.433zm4.058 2.245h.141v-.8h-.142v.8zm.153 0c1.7-.053 3.224-.992 4.073-2.498l-.697-.393c-.715 1.27-1.989 2.048-3.401 2.091l.025.8zm4.074-2.499a5.043 5.043 0 0 0 .059-4.836l-.707.374a4.242 4.242 0 0 1-.05 4.07l.698.392zm-13.852-1.496c-.34.527-.875.81-1.485.796l-.017.8a2.481 2.481 0 0 0 2.174-1.162l-.672-.434zm-1.48.796a1.67 1.67 0 0 1-1.439-.886l-.699.39a2.469 2.469 0 0 0 2.112 1.296l.025-.8zm-1.44-.887a1.793 1.793 0 0 1-.024-1.739l-.711-.367c-.412.8-.405 1.712.038 2.498l.697-.392zm-.026-1.736c.296-.56.806-.888 1.408-.927l-.052-.798c-.884.057-1.64.549-2.063 1.352l.707.373zm1.406-.926 2.268-.137-.049-.798-2.267.136.048.799zm1.858-.43c.181.657.52 1.253.98 1.735l.578-.553a3.28 3.28 0 0 1-.787-1.395l-.771.213zm.933 1.242-1.251 1.942.672.433L23.59 28.6l-.672-.433zm2.846-1.515a.787.787 0 0 1-.773-.804h-.8c0 .877.693 1.604 1.573 1.604v-.8zm-.773-.804c0-.05 0-.06.003-.072l-.79-.128c-.014.084-.013.154-.013.2h.8zm.006-.095a.781.781 0 0 1 .767-.709v-.8A1.58 1.58 0 0 0 24.2 25.67l.796.083zm.767-.709c.39 0 .725.304.767.709l.796-.083a1.58 1.58 0 0 0-1.563-1.426v.8zm.772.744v.06h.8c0-.037.002-.127-.015-.213l-.785.153zm0 .06a.787.787 0 0 1-.772.804v.8c.88 0 1.573-.727 1.573-1.604h-.8zm.76-5.76-1.016 2.086.72.35 1.015-2.085-.719-.35zm-.557 1.874a3.945 3.945 0 0 0-.975-.125v.8c.261 0 .525.036.776.1l.199-.775zm-.975-.125c-.34 0-.67.045-.983.125l.199.775c.25-.064.514-.1.784-.1v-.8zm-.524.337-1.016-2.086-.72.35 1.017 2.087.719-.35zm-1.016-2.086a1.775 1.775 0 0 1 .076-1.735l-.684-.415a2.575 2.575 0 0 0-.112 2.5l.72-.35zm.076-1.735c.33-.544.852-.843 1.456-.843v-.8c-.897 0-1.672.456-2.14 1.228l.684.415zm1.456-.843c.606 0 1.135.3 1.464.843l.684-.415c-.469-.773-1.253-1.228-2.148-1.228v.8zm1.464.843c.33.543.36 1.167.078 1.732l.716.357a2.555 2.555 0 0 0-.11-2.504l-.684.415zm5.56 11.663a1.686 1.686 0 0 1-1.439.888l.026.8a2.482 2.482 0 0 0 2.11-1.295l-.696-.392zm-1.439.888a1.64 1.64 0 0 1-1.477-.79l-.678.423a2.438 2.438 0 0 0 2.18 1.167l-.025-.8zm-1.48-.795-1.25-1.95-.674.433 1.25 1.95.674-.433zm-1.298-1.457c.46-.48.798-1.07.98-1.736l-.772-.21a3.236 3.236 0 0 1-.787 1.393l.579.553zm.57-1.442 2.268.136.047-.798-2.267-.136-.048.798zm2.266.136a1.676 1.676 0 0 1 1.407.926l.709-.37a2.475 2.475 0 0 0-2.065-1.354l-.051.798zm1.407.927a1.79 1.79 0 0 1-.025 1.744l.696.392c.442-.783.46-1.706.037-2.509l-.708.373z" fill="#F2F4F9" mask="url(#a)"/></symbol><symbol fill="none" id="sprite-circle-handshake" viewBox="0 0 70 70"><title>circle-handshake</title><circle cx="35" cy="35" r="35" fill="#F2F4F9"/><path d="m45.5 37.707 1.666-1.683c1.072-1.082 1.072-2.885 0-3.966-.357-.36-.714-.601-1.19-.721.357-.481.595-1.082.595-1.683 0-.721-.238-1.442-.833-1.923-.477-.481-1.19-.842-1.905-.842h-.12c0-.72-.237-1.562-.833-2.043a2.774 2.774 0 0 0-2.023-.841v-.12c0-.722-.238-1.443-.834-1.924a2.784 2.784 0 0 0-3.928 0l-.596.602-.595-.722c-.476-.6-1.19-.841-1.905-.841-.833 0-1.547.24-2.023.841a2.83 2.83 0 0 0-.834 2.044h-.119c-.714 0-1.428.24-1.904.841a2.829 2.829 0 0 0-.834 2.043h-.119c-.714 0-1.428.24-1.905.842-.476.48-.833 1.201-.833 1.923 0 .6.238 1.202.595 1.682-.476.12-.833.36-1.19.721-1.072 1.082-1.072 2.885 0 3.967l1.667 1.682c.119.12.238.24.357.24l-.476.602c-.477.48-.715 1.202-.715 1.923 0 .721.357 1.322.834 1.923l2.857 2.885c.595.6 1.19.841 1.904.841.715 0 1.429-.24 1.905-.841l1.429-1.322c.595.12 1.19.24 1.904.24.596 0 1.31-.12 1.905-.24l1.31 1.322c.595.6 1.19.841 1.905.841.714 0 1.428-.24 1.904-.841l2.857-2.885c1.072-1.082 1.191-2.764.239-3.606l-.596-.6.476-.361zM32.046 22.923c.238-.24.595-.36.953-.36.357 0 .714.12.952.36l2.143 2.284c.476.48.476 1.322 0 1.803-.238.24-.596.36-.953.36a1.28 1.28 0 0 1-.833-.36l-2.262-2.284c-.476-.48-.476-1.322 0-1.803zm-2.857 4.688c-.476-.481-.476-1.323 0-1.803.238-.24.595-.36.952-.36.358 0 .715.12.953.36l2.262 2.283.595.601c.238.24.357.601.357.962 0 .36-.119.721-.357.961-.357.12-.714.24-.953.24-.357 0-.714-.12-.952-.36l-.595-.6-2.262-2.284zm-2.857 1.081c.238-.24.476-.36.833-.36s.715.12.953.36l2.262 2.284c.476.48.476 1.322 0 1.803-.239.24-.477.48-.834.48s-.714-.12-.952-.36l-2.262-2.404a1.305 1.305 0 0 1-.357-.841c0-.36.119-.721.357-.962zm-1.429 6.13c-.476-.48-.476-1.322 0-1.803.238-.24.477-.36.834-.36s.714.12.952.36l1.667 1.683c.595.6.595 1.322 0 1.923-.238.24-.596.36-.953.36h-.238c-.238 0-.476-.12-.714-.36l-1.548-1.803zm8.69 7.452c-.118 0-.118 0 0 0h-.118l-1.667 1.683c-.476.48-1.31.48-1.786 0l-3.452-2.765a1.305 1.305 0 0 1-.357-.841c0-.24.119-.601.238-.721l1.071-1.082c.715 0 1.429-.24 1.905-.841.833-.842.953-2.044.595-3.005.477-.12.953-.36 1.429-.721a2.88 2.88 0 0 0 .833-1.563c.238 0 .476.12.715.12.714-.12 1.428-.48 1.904-.961.476-.48.834-1.202.834-1.923 0-.24 0-.48-.12-.721.596-.12 1.191-.36 1.548-.842 1.072-1.081 1.072-2.884 0-3.966l-.595-.601.595-.6c.476-.482 1.31-.482 1.786 0 .238.24.357.6.357.96 0 .361-.119.722-.357.962-.12.12-.238.36-.238.48 0 .241.119.361.238.482.238.24.714.24 1.071 0 .476-.481 1.31-.481 1.786 0 .476.48.476 1.322 0 1.803-.119.12-.238.36-.238.48 0 .24.119.36.238.481.238.24.714.24 1.072 0 .238-.24.595-.36.952-.36s.714.12.952.36.357.601.357.962c0 .36-.119.6-.357.961l-1.071 1.082c-.238.24-.238.721-.12.961.239.361.596.361.953.24.476-.36 1.19-.24 1.548.241.476.481.476 1.322 0 1.803l-1.667 1.803-3.69 3.726c-1.905 1.803-4.643 2.524-7.143 1.923zm11.072-2.644c.357.36.238 1.081-.238 1.562l-2.857 2.885c-.476.48-1.31.48-1.786 0l-.833-.841c1.071-.481 2.024-1.082 2.738-1.923l2.381-2.404.595.72z" fill="#036EE9"/></symbol><symbol fill="none" id="sprite-circle-hash" viewBox="0 0 51 51"><title>circle-hash</title><circle cx="25.289" cy="25.289" r="25.289" fill="#F2F4F9"/><path d="m20.785 22.319-2.814 2.75-.146.142.146.143 2.814 2.765-1.542 1.506-3.742-3.656a1.048 1.048 0 0 1 0-1.5l3.742-3.656 1.542 1.506zm4.36 8.137-2.051-.748 3.739-9.741 2.05.747-3.738 9.742zm6.032-2.353 2.813-2.749.147-.143-.147-.143-2.814-2.75 1.543-1.506 3.742 3.641a1.048 1.048 0 0 1 0 1.5l-3.743 3.657-1.542-1.507z" fill="#0F75EA" stroke="#F2F4F9" stroke-width=".4"/></symbol><symbol fill="none" id="sprite-circle-lightning" viewBox="0 0 51 51"><title>circle-lightning</title><circle cx="25.289" cy="25.289" r="25.289" fill="#F2F4F9"/><path d="M21.66 35.711a.661.661 0 0 1-.648-.813l1.813-7.85H19.66a.681.681 0 0 1-.61-.391.659.659 0 0 1 .102-.711l8.672-10.008a.659.659 0 0 1 .804-.157.661.661 0 0 1 .344.743l-1.812 7.851h3.164c.258 0 .5.157.61.39a.66.66 0 0 1-.102.712l-8.664 10a.652.652 0 0 1-.508.234zm-.538-10h2.539a.66.66 0 0 1 .649.813l-1.4 6.054 5.954-6.867h-2.532a.66.66 0 0 1-.648-.813l1.398-6.054-5.96 6.867z" fill="#0F75EA"/></symbol><symbol fill="none" id="sprite-circle-pc" viewBox="0 0 70 70"><title>circle-pc</title><circle cx="35" cy="35" r="35" fill="#F2F4F9"/><path d="M47.31 23H22.69c-.93 0-1.69.792-1.69 1.762v17.717c0 .969.76 1.761 1.69 1.761h8.438v1.283c0 1.174-.919 2.132-2.045 2.132h-1.86c-.355 0-.645.302-.645.672 0 .37.29.673.645.673h15.554c.355 0 .645-.302.645-.673 0-.37-.29-.672-.645-.672h-1.86c-1.126 0-2.045-.958-2.045-2.132V44.24h8.438c.93 0 1.69-.792 1.69-1.761V24.762c0-.97-.76-1.762-1.69-1.762zM31.713 47.655a3.566 3.566 0 0 0 .706-2.132V44.24h5.162v1.283c0 .803.263 1.544.706 2.132h-6.574zm15.996-5.176a.41.41 0 0 1-.399.416H22.69a.41.41 0 0 1-.4-.416v-3.535h25.42v3.535zm0-4.88H22.291V24.762a.41.41 0 0 1 .399-.417h24.62c.219 0 .4.188.4.417v12.837z" fill="#0F75EA"/></symbol><symbol fill="none" id="sprite-circle-user-submit" viewBox="0 0 70 70"><title>circle-user-submit</title><circle cx="35" cy="35" r="35" fill="#F2F4F9"/><path d="M42.597 37.22c-.245 0-3.063-.744-3.308-.744v-2.108c1.225-1.116 1.96-2.728 1.96-4.588v-3.596c0-.496 0-.868-.122-1.364 1.225-.62 1.96-1.86 1.96-3.224 0-1.984-1.593-3.596-3.553-3.596a3.528 3.528 0 0 0-3.186 1.984c-.49-.124-.858-.124-1.348-.124-3.431 0-6.25 2.852-6.25 6.324v3.596c0 1.736.736 3.348 1.839 4.464v2.232l-3.186.744c-2.328.62-3.799 2.852-3.309 5.332l1.103 5.704c.123.372.49.744.858.744h17.89c.368 0 .735-.248.858-.744l1.103-5.704c.49-2.356-.98-4.712-3.309-5.332zm-3.063-17.36c.98 0 1.838.868 1.838 1.86 0 .62-.245 1.116-.735 1.488-.613-.992-1.47-1.984-2.451-2.48.123-.62.735-.868 1.348-.868zM35 21.596c1.47 0 2.818.744 3.554 1.86-.858 1.116-2.084 1.736-3.554 1.736h-4.411c.49-1.984 2.205-3.596 4.411-3.596zm-4.411 8.184v-2.728H35c1.715 0 3.186-.62 4.411-1.86 0 .248.123.62.123.868v3.596c0 2.48-1.96 4.588-4.534 4.588-2.573 0-4.411-1.984-4.411-4.464zm7.72 8.308.245.124c-.858 1.116-2.084 1.736-3.554 1.736-1.47 0-2.696-.62-3.554-1.736h.245c.368-.124.736-.496.736-.868v-1.612c.858.372 1.715.62 2.696.62.857 0 1.838-.248 2.573-.496v1.612c-.123.124.122.496.613.62zm5.881 4.092-.98 4.96H26.79l-.98-4.96c-.245-1.364.612-2.852 1.96-3.224l1.838-.496c1.103 1.984 3.186 3.1 5.392 3.1 2.206 0 4.289-1.24 5.392-3.1l1.838.496c1.348.372 2.205 1.736 1.96 3.224z" fill="#0F75EA"/></symbol><symbol fill="none" id="sprite-circle-wallet" viewBox="0 0 70 70"><title>circle-wallet</title><circle cx="35" cy="35" r="35" fill="#F2F4F9"/><path d="M44.472 36.237c0-.4-.135-.668-.405-.935s-.54-.4-.945-.4c-.675 0-1.35.534-1.35 1.335 0 .668.54 1.337 1.35 1.337s1.35-.669 1.35-1.337z" fill="#0F75EA"/><path d="M47.578 32.897v-5.345c0-1.47-1.215-2.673-2.7-2.673h-1.486l-1.62-2.806c-.27-.534-.945-.935-1.486-.935-.27 0-.54.134-.81.267l-6.481 3.474h-7.156c-1.486 0-2.701 1.203-2.701 2.673V44.12c0 1.47 1.215 2.672 2.7 2.672h19.04c1.485 0 2.7-1.203 2.7-2.672v-4.543h1.215v-6.681h-1.215zm-2.97-5.746-.406-.802h.675c.54 0 .945.267 1.08.802h-1.35zm-15.664 0H26.11c-.406 0-.676.267-.676.668 0 .4.27.802.81.802h19.85v4.276h-3.241c-1.755 0-3.24 1.47-3.24 3.206v.268c0 1.737 1.485 3.207 3.24 3.207h3.24v4.543c0 .668-.54 1.202-1.215 1.202h-19.04a1.204 1.204 0 0 1-1.215-1.202V27.55c0-.667.54-1.202 1.215-1.202h4.456l-1.35.802zm12.018 9.086v-.267c0-.935.81-1.737 1.755-1.737h4.456v3.741h-4.456c-.945 0-1.755-.802-1.755-1.737zm-8.912-9.086 8.101-4.543h.135s.135 0 .135.133l2.43 4.41H32.05z" fill="#0F75EA"/></symbol><symbol fill="none" id="sprite-clip" viewBox="0 0 23 22"><title>clip</title><path d="M21.035 1.75a5.689 5.689 0 0 0-8.208 0L1.54 13.367c-1.702 1.752-1.702 4.586 0 6.339 1.401 1.443 3.512 1.674 5.17.738a.7.7 0 0 0 .473-.211L18.47 8.609a3.05 3.05 0 0 0 0-4.224 2.84 2.84 0 0 0-4.101 0L5.137 13.9a.764.764 0 0 0 0 1.055.71.71 0 0 0 1.023 0l9.232-9.509a1.419 1.419 0 0 1 2.054 0c.57.587.57 1.529 0 2.115L6.672 18.651a2.84 2.84 0 0 1-4.1 0 3.05 3.05 0 0 1 0-4.223L13.85 2.804a4.26 4.26 0 0 1 6.154 0c1.702 1.753 1.702 4.586 0 6.339L9.75 19.706a.764.764 0 0 0 0 1.054.71.71 0 0 0 1.023 0L21.03 10.197c2.271-2.332 2.271-6.115.006-8.447z"/></symbol><symbol id="sprite-coin-hand" viewBox="0 0 18 15"><title>coin-hand</title><path d="M8.616 0C7.242 0 6.124 1.081 6.124 2.372c0 1.29 1.118 2.34 2.492 2.34 1.374 0 2.492-1.05 2.492-2.34C11.108 1.082 9.99 0 8.616 0zm3.485 8.453c1.098 0 1.993-.84 1.993-1.872 0-1.03-.895-1.872-1.993-1.872s-1.993.841-1.993 1.872c0 1.032.895 1.872 1.993 1.872zM.613 14.066h.5c.548 0 .994-.419.994-.935V7.516c0-.516-.446-.935-.995-.935H.613c-.276 0-.499.21-.499.469v6.55c0 .256.223.466.5.466zm2.488-6.55v5.612c0 .094-.016.185-.03.275l2.908 1.35c.343.163.729.247 1.115.247h4.498c.37 0 .732-.097 1.048-.278l4.075-2.706a.9.9 0 0 0 .2-1.31 1.02 1.02 0 0 0-1.394-.187l-3.064 1.625a.528.528 0 0 1-.233.053H6.52c-.276 0-.499-.21-.499-.469 0-.26.223-.469.5-.469h4.58c.55 0 .995-.418.995-.934s-.445-.934-.994-.934h-2.34L6.403 7.912A2.603 2.603 0 0 0 5.02 7.52H3.1v-.003z"/></symbol><symbol id="sprite-desk" viewBox="0 0 15 13"><title>desk</title><path fill-rule="evenodd" clip-rule="evenodd" d="M1.513 0C1.1 0 .743.14.449.408L.447.411A1.328 1.328 0 0 0 0 1.41v7.537c0 .391.155.728.447 1l.002.003c.294.27.652.409 1.064.409H5.22c-.012.039-.028.946-.046.987v.003a4.496 4.496 0 0 1-.225.455c-.042.075-.08.148-.107.217a.642.642 0 0 0-.052.234.71.71 0 0 0 .238.528.8.8 0 0 0 .554.216h3.834a.8.8 0 0 0 .553-.216.707.707 0 0 0 .239-.528.627.627 0 0 0-.051-.23 1.721 1.721 0 0 0-.108-.216 4.669 4.669 0 0 1-.224-.461c-.017-.042-.032-.948-.045-.987h3.706c.411 0 .77-.14 1.064-.408v-.002c.294-.271.449-.611.449-1.001V1.414a1.309 1.309 0 0 0-.44-1.004l-.003-.003A1.53 1.53 0 0 0 13.492 0H1.512zm.076 7.093v-5.6h11.828v5.6H1.588z"/></symbol><symbol id="sprite-download" viewBox="0 0 15 16"><title>download</title><path d="M13.892 10.435c-.611 0-1.109.498-1.109 1.11v1.733H2.217v-1.733c0-.611-.498-1.11-1.109-1.11A1.11 1.11 0 0 0 0 11.545v2.844c0 .612.498 1.111 1.108 1.111h12.784c.61 0 1.108-.499 1.108-1.11v-2.845a1.11 1.11 0 0 0-1.108-1.11z"/><path d="M7.165 12.619a.472.472 0 0 0 .67 0l3.883-3.892a.398.398 0 0 0-.279-.678H9.614V.869A.868.868 0 0 0 8.748 0h-2.5a.868.868 0 0 0-.865.868v7.18H3.557a.393.393 0 0 0-.365.247.4.4 0 0 0 .087.432l3.886 3.892z"/></symbol><symbol style="enable-background:new 0 0 96.124 96.123" id="sprite-facebook" viewBox="0 0 96.124 96.123"><title>facebook</title><path d="M72.089.02 59.624 0C45.62 0 36.57 9.285 36.57 23.656v10.907H24.037a1.96 1.96 0 0 0-1.96 1.961v15.803a1.96 1.96 0 0 0 1.96 1.96H36.57v39.876a1.96 1.96 0 0 0 1.96 1.96h16.352a1.96 1.96 0 0 0 1.96-1.96V54.287h14.654a1.96 1.96 0 0 0 1.96-1.96l.006-15.803a1.963 1.963 0 0 0-1.961-1.961H56.842v-9.246c0-4.444 1.059-6.7 6.848-6.7l8.397-.003a1.96 1.96 0 0 0 1.959-1.96V1.98A1.96 1.96 0 0 0 72.089.02z"/></symbol><symbol id="sprite-fan" viewBox="0 0 12 12"><title>fan</title><path d="M11.802 6.956 7.718 5.627a1.535 1.535 0 0 0-.07-.356c.17-.058.35-.125.53-.194 1.624-.625 2.561-1.321 2.781-2.073.147-.5-.01-.995-.467-1.473C10.131 1.155 9.335.59 9.3.567a.28.28 0 0 0-.394.069L6.384 4.2a1.559 1.559 0 0 0-.198-.014c-.046 0-.092.003-.138.006C6.037 2.88 5.876 1.205 5.2.448 4.936.152 4.619.003 4.249.003c-.253 0-.527.075-.818.218-.358.18-.902.578-1.146.76l-.125.094a.291.291 0 0 0-.057.401L4.76 5.163c-.03.072-.052.149-.07.226-.87-.287-1.957-.574-2.853-.574-.707 0-1.218.182-1.522.538-.269.316-.364.752-.288 1.294.074.52.394 1.454.408 1.492a.286.286 0 0 0 .358.18l4.325-1.451c.05.047.098.091.153.133-.15.21-.307.434-.46.671-.953 1.476-1.31 2.6-1.054 3.342.169.492.584.801 1.231.914.334.058.861.072 1.244.072.166 0 .277-.003.277-.003a.289.289 0 0 0 .28-.29L6.765 7.2c.084-.036.165-.078.244-.128.125.175.261.354.402.537 1.076 1.37 2.01 2.067 2.78 2.067.36 0 .874-.158 1.263-.907.242-.464.521-1.412.535-1.45a.292.292 0 0 0-.187-.363zm-5.616-.403a.795.795 0 0 1-.788-.802c0-.442.353-.801.788-.801.435 0 .788.36.788.801a.795.795 0 0 1-.788.802z"/></symbol><symbol id="sprite-headphones" viewBox="0 0 17 17"><title>headphones</title><path d="M14.983 7.302c.019-.06.019-.126.019-.196v-.723a6.259 6.259 0 0 0-1.889-4.52C11.89.658 10.25 0 8.495 0c-1.76 0-3.39.658-4.613 1.858-1.224 1.196-1.884 2.802-1.884 4.52v.724c0 .07 0 .135.02.196C.893 7.386 0 8.554 0 9.978c0 1.428.894 2.6 2.022 2.68.301.397.789.64 1.305.64.9 0 1.63-.715 1.63-1.597V8.26c0-.855-.669-1.55-1.53-1.593v-.284c0-2.792 2.214-4.978 5.068-4.978 2.854 0 5.068 2.186 5.068 4.978v.284a1.6 1.6 0 0 0-1.53 1.593v3.44c0 .575.315 1.08.784 1.364a5.017 5.017 0 0 1-2.175 1.746 1.336 1.336 0 0 0-.99-.43h-1.84c-.732 0-1.33.584-1.33 1.299v.023c0 .714.598 1.298 1.33 1.298h1.845a1.32 1.32 0 0 0 1.21-.766 6.466 6.466 0 0 0 2.356-1.466 6.38 6.38 0 0 0 1.224-1.657c.206-.108.387-.262.53-.444 1.129-.08 2.023-1.251 2.023-2.68 0-1.433-.899-2.6-2.017-2.685z"/></symbol><symbol id="sprite-info-bubble" viewBox="0 0 15 15"><title>info-bubble</title><path d="M7.5 0a7.498 7.498 0 1 0 0 14.996A7.5 7.5 0 0 0 15 7.495 7.496 7.496 0 0 0 7.5 0zm0 2.966a.775.775 0 1 1-.001 1.55.775.775 0 0 1 .001-1.55zm.775 7.94c0 .468-.348.847-.775.847-.427 0-.775-.379-.775-.848V6.158c0-.47.348-.848.775-.848.427 0 .775.379.775.848v4.747z"/></symbol><symbol id="sprite-light-bulb" viewBox="0 0 12 18"><title>light-bulb</title><path d="M5.993 0C2.691 0 0 2.709 0 6.032c0 1.361.446 2.65 1.28 3.72.164.212.348.423.519.621.525.615 1.07 1.249 1.26 1.97.02.085.026.296.026.415a.77.77 0 0 0 .224.569.772.772 0 0 0 .558.237h4.22a.783.783 0 0 0 .782-.8c0-.098.006-.277.026-.362.197-.72.8-1.434 1.34-2.062.17-.198.327-.39.478-.575A5.98 5.98 0 0 0 12 6.04C11.993 2.709 9.302 0 5.993 0zM8.12 14.813H3.853c-.4 0-.722.324-.722.727v1.057c0 .403.322.727.722.727H8.12c.4 0 .722-.324.722-.727V15.54a.727.727 0 0 0-.722-.727z"/></symbol><symbol id="sprite-light" viewBox="0 0 10 14"><title>light</title><path d="M9.942 5.8a.489.489 0 0 0-.423-.266L6.393 5.51 7.298.59a.498.498 0 0 0-.27-.542.468.468 0 0 0-.576.144l-5.346 6.91a.489.489 0 0 0 .376.796l3.454.024-.928 5.499a.477.477 0 0 0 .458.578.473.473 0 0 0 .4-.217l5.04-7.476a.492.492 0 0 0 .036-.506z"/></symbol><symbol id="sprite-link-arrow" viewBox="0 0 5 5"><title>link-arrow</title><path d="M4.444 0H1.338a.559.559 0 0 0-.556.556.56.56 0 0 0 .556.557H3.1L.162 4.05A.553.553 0 0 0 0 4.444.553.553 0 0 0 .556 5a.55.55 0 0 0 .394-.162L3.887 1.9v1.76a.56.56 0 0 0 .557.557A.559.559 0 0 0 5 3.662V.556A.559.559 0 0 0 4.444 0z"/></symbol><symbol id="sprite-list" viewBox="0 0 14 10"><title>list</title><path d="M0 0h14v2H0V0zm0 4h14v2H0V4zm0 4h9v2H0V8z"/></symbol><symbol id="sprite-logo-figure" viewBox="0 0 36 26"><title>logo-figure</title><g clip-path="url(#a)"><path d="M34.9 7.7c0-.2-.1-.3-.3-.4L33.5 7l-1-.3-4.1-1h-.2l-8-2-6.3 10.7-.1.2-2.7 4.6 3 2.9L34.7 8.2c.1-.1.2-.3.2-.5z" fill="url(#b)"/><path d="M34.9 7.7c0-.2-.1-.3-.3-.4L33.5 7l-1-.3-4.1-1h-.2l-8-2-6.3 10.7-.1.2-2.7 4.6 3 2.9L34.7 8.2c.1-.1.2-.3.2-.5z" fill="url(#c)"/><path d="M35.2 5.7 29.6.5c-.4-.3-.8-.5-1.2-.5h-6.1l-2.1 3.6 8 2h.2l4.1 1 1 .3 1.1.3c.2 0 .3.2.3.4s-.1.4-.3.5l-20.7 14 2.6 2.5c.4.4 1 .6 1.5.6.4 0 .9-.1 1.3-.4.1-.1.3-.2.4-.3L35.4 8.9c.4-.4.6-.9.6-1.4 0-.7-.3-1.4-.8-1.8z" fill="url(#d)"/><path d="M35.2 5.7 29.6.5c-.4-.3-.8-.5-1.2-.5h-6.1l-2.1 3.6 8 2h.2l4.1 1 1 .3 1.1.3c.2 0 .3.2.3.4s-.1.4-.3.5l-20.7 14 2.6 2.5c.4.4 1 .6 1.5.6.4 0 .9-.1 1.3-.4.1-.1.3-.2.4-.3L35.4 8.9c.4-.4.6-.9.6-1.4 0-.7-.3-1.4-.8-1.8z" fill="url(#e)"/><path d="m33.5 7-1-.2-4.2-1.1 4.2 1.1 1 .2z" fill="url(#f)"/><path d="m33.5 7-1-.2-4.2-1.1 4.2 1.1 1 .2z" fill="url(#g)"/><path d="m33.5 7-1-.2-4.2-1.1 4.2 1.1 1 .2z" fill="url(#h)"/><path d="m33.5 7-1-.2-4.2-1.1 4.2 1.1 1 .2z" fill="url(#i)"/><path d="M34.6 7.3 33.5 7l1.1.3z" fill="url(#j)"/><path d="M34.6 7.3 33.5 7l1.1.3z" fill="url(#k)"/><path d="M34.6 7.3 33.5 7l1.1.3z" fill="url(#l)"/><path d="M34.6 7.3 33.5 7l1.1.3z" fill="url(#m)"/><path d="M34.6 7.3 33.5 7l1.1.3z" fill="url(#n)"/><path d="M34.6 7.3 33.5 7l1.1.3z" fill="url(#o)"/><path d="M34.6 7.3 33.5 7l1.1.3z" fill="url(#p)"/><path d="M34.6 7.3 33.5 7l1.1.3z" fill="url(#q)"/><path d="M20.1 3.6 7.6.2 7.1.1c-.3.1-.5.2-.7.4L.8 5.7C.3 6.1 0 6.8 0 7.5c0 .5.2 1 .6 1.4l7.9 7.8 5.2-2.2.1-.2 6.3-10.7z" fill="url(#r)"/><path d="M20.1 3.6 7.6.2 7.1.1c-.3.1-.5.2-.7.4L.8 5.7C.3 6.1 0 6.8 0 7.5c0 .5.2 1 .6 1.4l7.9 7.8 5.2-2.2.1-.2 6.3-10.7z" fill="url(#s)"/><path d="m7.6.2 12.5 3.4L22.3 0h-15c-.1 0-.2 0-.2.1l.5.1z" fill="#1CA3FF"/></g><defs><linearGradient id="b" x1="16.039" y1="7.793" x2="27.177" y2="17.139" gradientUnits="userSpaceOnUse"><stop stop-color="#0EAFFF"/><stop offset="1" stop-color="#0163E5"/></linearGradient><linearGradient id="c" x1="16.039" y1="7.793" x2="27.177" y2="17.139" gradientUnits="userSpaceOnUse"><stop stop-color="#0EAFFF"/><stop offset="1" stop-color="#0163E5"/></linearGradient><linearGradient id="d" x1="16.744" y1="4.592" x2="27.788" y2="17.754" gradientUnits="userSpaceOnUse"><stop stop-color="#48BEFF"/><stop offset=".427" stop-color="#1CA3FF"/></linearGradient><linearGradient id="e" x1="16.744" y1="4.592" x2="27.788" y2="17.754" gradientUnits="userSpaceOnUse"><stop stop-color="#48BEFF"/><stop offset=".427" stop-color="#1CA3FF"/></linearGradient><linearGradient id="f" x1="22.888" y1="-.369" x2="34.026" y2="8.977" gradientUnits="userSpaceOnUse"><stop stop-color="#0EAFFF"/><stop offset="1" stop-color="#0163E5"/></linearGradient><linearGradient id="g" x1="24.186" y1="-1.653" x2="35.23" y2="11.509" gradientUnits="userSpaceOnUse"><stop stop-color="#48BEFF"/><stop offset=".427" stop-color="#1CA3FF"/></linearGradient><linearGradient id="h" x1="22.888" y1="-.369" x2="34.026" y2="8.977" gradientUnits="userSpaceOnUse"><stop stop-color="#0EAFFF"/><stop offset="1" stop-color="#0163E5"/></linearGradient><linearGradient id="i" x1="24.186" y1="-1.653" x2="35.23" y2="11.509" gradientUnits="userSpaceOnUse"><stop stop-color="#48BEFF"/><stop offset=".427" stop-color="#1CA3FF"/></linearGradient><linearGradient id="j" x1="23.798" y1="-1.454" x2="34.936" y2="7.892" gradientUnits="userSpaceOnUse"><stop stop-color="#0EAFFF"/><stop offset="1" stop-color="#0163E5"/></linearGradient><linearGradient id="k" x1="23.798" y1="-1.454" x2="34.936" y2="7.892" gradientUnits="userSpaceOnUse"><stop stop-color="#0EAFFF"/><stop offset="1" stop-color="#0163E5"/></linearGradient><linearGradient id="l" x1="25.643" y1="-2.876" x2="36.687" y2="10.286" gradientUnits="userSpaceOnUse"><stop stop-color="#48BEFF"/><stop offset=".427" stop-color="#1CA3FF"/></linearGradient><linearGradient id="m" x1="25.643" y1="-2.876" x2="36.687" y2="10.286" gradientUnits="userSpaceOnUse"><stop stop-color="#48BEFF"/><stop offset=".427" stop-color="#1CA3FF"/></linearGradient><linearGradient id="n" x1="23.798" y1="-1.454" x2="34.936" y2="7.892" gradientUnits="userSpaceOnUse"><stop stop-color="#0EAFFF"/><stop offset="1" stop-color="#0163E5"/></linearGradient><linearGradient id="o" x1="25.643" y1="-2.876" x2="36.687" y2="10.286" gradientUnits="userSpaceOnUse"><stop stop-color="#48BEFF"/><stop offset=".427" stop-color="#1CA3FF"/></linearGradient><linearGradient id="p" x1="23.798" y1="-1.454" x2="34.936" y2="7.892" gradientUnits="userSpaceOnUse"><stop stop-color="#0EAFFF"/><stop offset="1" stop-color="#0163E5"/></linearGradient><linearGradient id="q" x1="25.643" y1="-2.876" x2="36.687" y2="10.286" gradientUnits="userSpaceOnUse"><stop stop-color="#48BEFF"/><stop offset=".427" stop-color="#1CA3FF"/></linearGradient><linearGradient id="r" x1="0" y1="8.415" x2="20.117" y2="8.415" gradientUnits="userSpaceOnUse"><stop stop-color="#2BAAFB"/><stop offset="1" stop-color="#0163E5"/></linearGradient><linearGradient id="s" x1="0" y1="8.415" x2="20.117" y2="8.415" gradientUnits="userSpaceOnUse"><stop stop-color="#2BAAFB"/><stop offset="1" stop-color="#0163E5"/></linearGradient><clipPath id="a"><path fill="#fff" d="M0 0h36v25.3H0z"/></clipPath></defs></symbol><symbol id="sprite-logo-text" viewBox="0 0 101 22"><title>logo-text</title><path d="m7.112 10.4-2.256 2.352V17H.992V.2h3.864v7.848L12.296.2h4.32l-6.96 7.488L17.024 17h-4.536l-5.376-6.6zm15.203-4.608c.448-.624 1.048-1.096 1.8-1.416.768-.32 1.648-.48 2.64-.48v3.456a13.506 13.506 0 0 0-.84-.048c-1.072 0-1.912.304-2.52.912-.608.592-.912 1.488-.912 2.688V17H18.74V4.088h3.576v1.704zm20.408-1.704L36.89 17.792c-.592 1.488-1.328 2.536-2.208 3.144-.864.608-1.912.912-3.144.912a6.555 6.555 0 0 1-1.992-.312c-.656-.208-1.192-.496-1.608-.864l1.368-2.664c.288.256.616.456.984.6a3.2 3.2 0 0 0 1.128.216c.512 0 .928-.128 1.248-.384.32-.24.608-.648.864-1.224l.048-.12-5.592-13.008h3.864l3.624 8.76 3.648-8.76h3.6zm9.64-.192c1.2 0 2.288.28 3.264.84a5.821 5.821 0 0 1 2.328 2.328c.56.992.84 2.152.84 3.48 0 1.328-.28 2.496-.84 3.504a6.028 6.028 0 0 1-2.328 2.328c-.977.544-2.065.816-3.265.816-1.648 0-2.944-.52-3.888-1.56v6.024h-3.743V4.088h3.575v1.488c.928-1.12 2.28-1.68 4.056-1.68zm-.648 10.224c.96 0 1.743-.32 2.351-.96.624-.656.936-1.528.936-2.616s-.312-1.952-.936-2.592c-.608-.656-1.392-.984-2.352-.984s-1.752.328-2.375.984c-.608.64-.913 1.504-.913 2.592s.304 1.96.913 2.616c.623.64 1.416.96 2.376.96zm18.394 2.256c-.368.272-.824.48-1.368.624a7.111 7.111 0 0 1-1.68.192c-1.536 0-2.728-.392-3.576-1.176-.832-.784-1.248-1.936-1.248-3.456V7.256h-1.992v-2.88h1.992V1.232h3.744v3.144h3.216v2.88H65.98v5.256c0 .544.136.968.408 1.272.288.288.688.432 1.2.432.592 0 1.096-.16 1.512-.48l1.008 2.64zm14.831-5.784c0 .048-.024.384-.072 1.008H75.1c.176.8.592 1.432 1.248 1.896.656.464 1.472.696 2.448.696.672 0 1.264-.096 1.776-.288a4.46 4.46 0 0 0 1.464-.96l1.992 2.16c-1.216 1.392-2.992 2.088-5.328 2.088-1.456 0-2.744-.28-3.864-.84-1.12-.576-1.984-1.368-2.592-2.376-.608-1.008-.912-2.152-.912-3.432 0-1.264.296-2.4.888-3.408a6.3 6.3 0 0 1 2.472-2.376c1.056-.576 2.232-.864 3.528-.864 1.264 0 2.408.272 3.432.816a5.857 5.857 0 0 1 2.4 2.352c.592 1.008.888 2.184.888 3.528zm-6.696-3.864c-.848 0-1.56.24-2.136.72-.576.48-.928 1.136-1.056 1.968h6.36c-.128-.816-.48-1.464-1.056-1.944-.576-.496-1.28-.744-2.112-.744zM95.77 17l-2.832-3.96L90.01 17h-4.08l4.968-6.504-4.8-6.408h4.2l2.736 3.768 2.808-3.768h3.984l-4.8 6.312 4.992 6.6H95.77z" fill="#fff"/></symbol><symbol fill="none" id="sprite-logout" viewBox="0 0 19 14"><title>logout</title><path fill-rule="evenodd" clip-rule="evenodd" d="M13.043 2.546H2.609v8.908h10.434V14H0V0h13.043v2.546zm2.043.637L19 7.002l-3.914 3.815V8.271h-6.95V5.73h6.95V3.183z" fill="#000"/></symbol><symbol id="sprite-move-down" viewBox="0 0 15 14"><title>move-down</title><path d="m7.236 11.568.006.002.04.01v.001h.015a.716.716 0 0 0 .406 0h.002v.002l.012-.003.041-.01.006-.002a.816.816 0 0 0 .23-.138l.003-.003 5.843-5.685a.66.66 0 0 0 0-.961.712.712 0 0 0-.497-.204.712.712 0 0 0-.497.204l-4.66 4.524V1.629A.686.686 0 0 0 7.49.95c-.386 0-.697.3-.697.68v7.684l-4.65-4.533a.7.7 0 0 0-.983 0 .66.66 0 0 0 0 .961h.001l5.842 5.685c.068.066.146.11.233.141zm6.117.123H1.667c-.385 0-.696.3-.696.68 0 .378.31.679.696.679h11.686a.686.686 0 0 0 .697-.68.686.686 0 0 0-.697-.679z"/></symbol><symbol id="sprite-notification-ring" viewBox="0 0 23 27"><title>notification-ring</title><path d="M22.744 21.813c-2.172-2.128-3.194-4.788-3.194-7.714V9.841c0-3.458-2.172-5.719-4.089-6.517-.511-.266-1.022-.399-1.533-.532V2.66c0-1.463-1.15-2.66-2.556-2.66-1.405 0-2.555 1.197-2.555 2.66v.133c-.511.133-.895.266-1.278.532-2.172.931-4.217 3.325-4.217 6.517v4.39c0 3.059-1.022 5.586-3.066 7.714C0 22.079 0 22.345 0 22.61c.128.266.256.399.511.532l4.472.798a70.26 70.26 0 0 1 2.173.399C8.05 26.069 9.71 27 11.5 27c1.789 0 3.45-1.064 4.344-2.66a70.341 70.341 0 0 1 2.173-.4l4.472-.797c.255 0 .511-.266.511-.532s0-.532-.256-.798zm-8.433 1.197c-.255 0-.639 0-.894.133H9.71c-.255 0-.511 0-.894-.133-.192 0-.352-.033-.511-.067a2.416 2.416 0 0 0-.512-.066 97.23 97.23 0 0 0-2.427-.4l-3.195-.531c1.661-2.128 2.556-4.788 2.556-7.715V9.843c0-2.527 1.789-4.389 3.45-5.32.116-.04.255-.093.408-.15.35-.132.769-.29 1.125-.382a7.557 7.557 0 0 1 3.45 0c.639.133 1.15.266 1.661.532 1.661.798 3.322 2.66 3.322 5.32v4.39c0 2.793.895 5.453 2.684 7.714l-3.195.532c-.894.133-1.66.266-2.427.399-.256 0-.64 0-.895.133zm-.383 1.463c-.64.665-1.534 1.064-2.428 1.064-.894 0-1.789-.4-2.428-1.064a29.6 29.6 0 0 0 4.856 0zM10.222 2.527c.128-.532.511-1.064 1.15-1.064.64 0 1.022.4 1.15 1.064a6.679 6.679 0 0 0-2.3 0z"/></symbol><symbol fill="none" id="sprite-performance" viewBox="0 0 12 12"><title>performance</title><circle cx="6" cy="6" r="5" stroke="#7a848a" stroke-width="2"/><path stroke="#7a848a" stroke-width="2" stroke-linecap="round" d="m5.476 7.687 1.464-3.41"/></symbol><symbol id="sprite-person" viewBox="0 0 12 14"><title>person</title><path fill-rule="evenodd" clip-rule="evenodd" d="M9 3a3 3 0 1 1-6 0 3 3 0 0 1 6 0zm-9 8a4 4 0 0 1 4-4h4a4 4 0 0 1 4 4 3 3 0 0 1-3 3H3a3 3 0 0 1-3-3z"/></symbol><symbol id="sprite-persons" viewBox="0 0 17 14"><title>persons</title><path fill-rule="evenodd" clip-rule="evenodd" d="M9.62 5.673a4.52 4.52 0 0 0 .788-3.584A2.448 2.448 0 0 1 12 1.5c1.38 0 2.5 1.151 2.5 2.571 0 1.42-1.12 2.572-2.5 2.572a3.29 3.29 0 0 1-.78-.103 5.483 5.483 0 0 0-1.5-.765 2.067 2.067 0 0 1-.1-.102zM12.354 14a4.484 4.484 0 0 0 1.146-3 5.474 5.474 0 0 0-.89-3h1.057C15.507 8 17 9.535 17 11.429 17 12.849 15.88 14 14.5 14h-2.146zM9 3a3 3 0 1 1-6 0 3 3 0 0 1 6 0zm-9 8a4 4 0 0 1 4-4h4a4 4 0 0 1 4 4 3 3 0 0 1-3 3H3a3 3 0 0 1-3-3z"/></symbol><symbol id="sprite-pig" viewBox="0 0 18 14"><title>pig</title><path d="M17.97 7.196c-.058-.633-.514-1.11-1.156-1.274-.11-.03-.158-.084-.202-.181-.14-.283-.281-.57-.448-.84a.419.419 0 0 1-.053-.358c.273-1.025.54-2.054.804-3.084.092-.367-.14-.65-.536-.653-.347-.005-.69-.009-1.037 0-1.138.03-2.087.451-2.82 1.295-.093.105-.167.143-.312.097-.036-.013-.075-.021-.11-.03a2.802 2.802 0 0 1-.514 1.923c.11.14.11.309.026.473-.097.194-.268.291-.496.291h-.308a3.12 3.12 0 0 1-1.757.553H9.02a3.097 3.097 0 0 1-1.77-.553h-.365a.52.52 0 0 1-.488-.455.482.482 0 0 1 .075-.313 2.925 2.925 0 0 1-.519-1.548c-1.915.848-3.312 2.114-3.734 4.244-.035-.009-.07-.013-.101-.026-.637-.27-1.02-.712-1.068-1.4-.022-.304-.25-.515-.544-.502a.51.51 0 0 0-.506.54c.005.152.018.304.053.451.26 1.021.936 1.662 1.973 1.95.145.041.184.109.215.231.066.295.123.595.228.882.334.91.927 1.657 1.696 2.273a.301.301 0 0 1 .123.258c-.004.658-.004 1.316 0 1.974 0 .383.207.582.602.582h1.933c.37 0 .54-.131.633-.481.066-.24.132-.485.198-.738 1.274.27 2.535.27 3.809 0 .07.266.132.502.198.742.092.35.263.477.637.477h1.897c.44 0 .638-.186.638-.603 0-.659-.005-1.317.004-1.975 0-.075.053-.164.105-.223.339-.359.699-.696 1.024-1.063.127-.143.229-.224.44-.228.847-.008 1.489-.552 1.572-1.362.04-.443.031-.899-.009-1.346zm-3.673-.32c-.286-.005-.523-.237-.519-.51a.521.521 0 0 1 .532-.499c.285.005.523.237.518.51 0 .275-.246.503-.531.499z"/><path d="M9.05 4.847c1.38-.013 2.518-1.114 2.51-2.43C11.55 1.097 10.407 0 9.032 0 7.649 0 6.489 1.122 6.51 2.442c.022 1.329 1.169 2.417 2.54 2.405z"/></symbol><symbol id="sprite-pulse" viewBox="0 0 19 11"><title>pulse</title><path fill-rule="evenodd" clip-rule="evenodd" d="M12.325 1.205c.071.07.128.157.165.257l1.502 3.942-1.502-3.942a.707.707 0 0 0-.165-.257zm5.472 4.412a.734.734 0 0 1 .203.508c0 .394-.32.721-.704.721h-3.792 3.792A.718.718 0 0 0 18 6.125a.734.734 0 0 0-.203-.508zM11.842 3.75 9.75 9.529a.712.712 0 0 1-.657.471h-.01.01a.711.711 0 0 0 .657-.471l2.093-5.779zM6.858 4.971l-.827 1.51a.704.704 0 0 1-.61.365H1.704h3.717a.704.704 0 0 0 .61-.365l.827-1.51zm.646-2.264a.729.729 0 0 1 .17.274L9.11 7.154 7.674 2.98a.729.729 0 0 0-.17-.274zm3.475-1.305L9.115 6.553 7.863 2.915a.916.916 0 0 0-.768-.614.897.897 0 0 0-.872.466L4.89 5.204H1.704c-.5 0-.904.42-.904.921 0 .5.404.921.904.921h3.717c.33 0 .63-.187.786-.47l.609-1.112 1.42 4.12v.003c.13.362.465.613.846.613h.01a.91.91 0 0 0 .844-.602l1.91-5.274.813 2.131c.133.356.47.591.845.591h3.792c.5 0 .904-.42.904-.921 0-.497-.391-.921-.895-.921H14.13L12.677 1.39a.905.905 0 0 0-.854-.59.91.91 0 0 0-.844.602z"/></symbol><symbol id="sprite-question-circle" viewBox="0 0 17 17"><title>question-circle</title><path d="M10.3 5.4c-.4-.3-1-.5-1.8-.5-.7 0-1.2.1-1.7.4-.5.3-.9.6-1.1 1l1.2.7c.1-.3.3-.5.6-.6.2-.1.5-.2.8-.2.3 0 .6.1.8.2.2.2.3.4.3.6 0 .2-.1.3-.2.5s-.2.3-.4.5c-.3.3-.6.5-.7.7-.1.2-.3.5-.3.9h1.5c0-.2.1-.4.2-.5.1-.1.3-.3.5-.6l.5-.5c.1-.1.2-.3.3-.5.1-.2.2-.5.2-.7 0-.6-.2-1.1-.7-1.4zm-1.7 4.9c-.3 0-.5.1-.7.3-.2.2-.3.4-.3.6 0 .2.1.5.3.6.2.2.4.3.7.3.3 0 .5-.1.7-.3.2-.2.3-.4.3-.6 0-.2-.1-.5-.3-.6-.2-.1-.4-.3-.7-.3z"/><path d="M8.5 0C3.8 0 0 3.8 0 8.5S3.8 17 8.5 17 17 13.2 17 8.5 13.2 0 8.5 0zm0 16C4.4 16 1 12.6 1 8.5S4.4 1 8.5 1 16 4.4 16 8.5 12.6 16 8.5 16z"/></symbol><symbol id="sprite-settings-icon" viewBox="0 0 13 10"><title>settings-icon</title><path d="M5 8a2 2 0 1 0 4 0 2 2 0 0 0-4 0zm1-7h6a1 1 0 1 1 0 2H6V1z"/><path d="M0 8a1 1 0 0 1 1-1h5a1 1 0 0 1 0 2H1a1 1 0 0 1-1-1zm11-1h1a1 1 0 1 1 0 2h-1V7zM0 2a2 2 0 1 0 4 0 2 2 0 0 0-4 0z"/></symbol><symbol fill="none" id="sprite-share" viewBox="0 0 11 16"><title>share</title><path d="M7.458 10.465c-.466 0-.902.135-1.27.37L4.852 9.499a2.368 2.368 0 0 0 .094-3.19l1.35-1.354a2.35 2.35 0 0 0 1.54.575 2.363 2.363 0 0 0 2.359-2.365A2.363 2.363 0 0 0 7.835.8a2.359 2.359 0 0 0-2.354 2.365c0 .343.075.674.207.97L4.128 5.7A2.363 2.363 0 0 0 .8 7.857a2.363 2.363 0 0 0 2.359 2.365c.289 0 .571-.053.83-.152l1.477 1.48a2.363 2.363 0 0 0 1.982 3.644 2.363 2.363 0 0 0 2.359-2.364 2.355 2.355 0 0 0-2.35-2.365zm.382-8.652a1.353 1.353 0 0 1 0 2.704 1.35 1.35 0 0 1-1.348-1.352A1.35 1.35 0 0 1 7.84 1.813zM3.16 9.209a1.353 1.353 0 0 1 0-2.704 1.35 1.35 0 0 1 1.348 1.352A1.35 1.35 0 0 1 3.16 9.209zm4.298 4.978a1.35 1.35 0 0 1-.986-2.27.268.268 0 0 0 .051-.046.297.297 0 0 0 .036-.045 1.345 1.345 0 0 1 2.248 1.004c0 .748-.61 1.357-1.349 1.357z"/></symbol><symbol id="sprite-smile-bad" viewBox="0 0 28 28"><title>smile-bad</title><path d="M14 0C6.281 0 0 6.281 0 14s6.281 14 14 14 14-6.281 14-14S21.719 0 14 0zm0 26.486a12.45 12.45 0 0 1-8.797-3.632 12.665 12.665 0 0 1-2.261-3.065A12.368 12.368 0 0 1 1.514 14c0-6.886 5.6-12.486 12.486-12.486 3.264 0 6.243 1.258 8.466 3.32a12.584 12.584 0 0 1 2.8 3.784A12.346 12.346 0 0 1 26.486 14c0 6.887-5.6 12.486-12.486 12.486z"/><path d="M9.337 12.392a1.513 1.513 0 1 0 0-3.027 1.513 1.513 0 0 0 0 3.027zm9.364 0a1.513 1.513 0 1 0 0-3.027 1.513 1.513 0 0 0 0 3.027zm1.561 6.782c.114.208.227.416.322.634l1.38-.605a7.263 7.263 0 0 0-.387-.767c-1.608-2.856-4.768-4.587-8.04-4.417-3.255.17-6.206 2.204-7.511 5.193l1.38.605c1.089-2.468 3.52-4.152 6.206-4.294 2.715-.142 5.326 1.296 6.65 3.651zM9.936 5.691l-.887 1.227 2.453 1.773.887-1.226L9.936 5.69zm8.129-.004-2.453 1.774.887 1.226 2.453-1.773-.887-1.227z"/></symbol><symbol id="sprite-smile-neutral" viewBox="0 0 28 28"><title>smile-neutral</title><rect x="8.296" y="9.333" width="2.074" height="3.111" rx="1.037"/><path d="M14 0C6.281 0 0 6.281 0 14s6.281 14 14 14 14-6.281 14-14S21.719 0 14 0zm0 26.486a12.45 12.45 0 0 1-8.797-3.632 12.665 12.665 0 0 1-2.261-3.065A12.368 12.368 0 0 1 1.514 14c0-6.886 5.6-12.486 12.486-12.486 3.264 0 6.243 1.258 8.466 3.32a12.584 12.584 0 0 1 2.8 3.784A12.346 12.346 0 0 1 26.486 14c0 6.887-5.6 12.486-12.486 12.486z"/><rect x="17.63" y="9.333" width="2.074" height="3.111" rx="1.037"/><path d="M9 18h10v2H9z"/></symbol><symbol id="sprite-smile-nice" viewBox="0 0 28 28"><title>smile-nice</title><path d="M14.023 0C21.823.045 28.044 6.267 28 14.023 28 21.823 21.688 28 13.977 28 6.222 28 0 21.733 0 13.977 0 6.222 6.267.045 14.023 0zm0 26.512c6.898-.045 12.49-5.681 12.49-12.535-.046-7.033-5.817-12.49-12.536-12.49-6.943 0-12.895 5.862-12.49 13.212.362 6.267 5.592 11.813 12.536 11.813z"/><path d="M7.98 17.269h12.49c-.045 2.164-.947 3.923-2.705 5.095-2.074 1.398-4.284 1.533-6.493.36a5.992 5.992 0 0 1-3.291-5.455zm1.76 1.488c.18 1.578 2.344 3.201 4.373 3.246 2.254.045 4.058-1.578 4.509-3.246H9.739zM4.87 10.01c.045-.992.856-1.94 1.893-2.12.632-.09 1.218 0 1.714.406.135.135.27.135.405 0 1.353-.992 3.292-.225 3.607 1.533.18.947-.18 1.713-.72 2.39-.813 1.127-1.85 1.984-2.977 2.795-.045.045-.18.045-.225 0-1.353-.992-2.615-2.029-3.427-3.517a2.225 2.225 0 0 1-.27-1.488zm3.832 3.246c.812-.677 1.578-1.398 2.164-2.3.18-.27.27-.54.226-.856-.045-.406-.406-.767-.812-.767s-.721.27-.766.676c0 .09 0 .136-.045.226H7.98V10.1c-.045-.451-.316-.722-.722-.767-.36-.045-.721.226-.856.586-.136.361 0 .677.18.992.541.947 1.307 1.668 2.12 2.345zm9.333-5.366c.496 0 .947.136 1.353.452.135.09.225.09.36 0 1.399-1.038 3.427-.136 3.653 1.578.135.856-.18 1.533-.631 2.209-.677.947-1.488 1.713-2.39 2.435-.225.18-.406.36-.631.496-.045.045-.18.045-.27.045-1.218-.902-2.39-1.894-3.247-3.202-.496-.766-.676-1.623-.316-2.524.361-.947 1.173-1.488 2.12-1.488zm2.3 2.39h-1.488v-.135c-.045-.45-.27-.721-.721-.766-.361-.046-.722.225-.857.63-.09.316-.045.677.18.948.406.54.857 1.037 1.308 1.533.27.27.586.54.856.811.361-.315.677-.586.992-.902.497-.495 1.037-1.037 1.308-1.713a.983.983 0 0 0-.18-1.037c-.226-.27-.496-.316-.857-.225-.406.135-.496.496-.541.856z"/></symbol><symbol id="sprite-timer" viewBox="0 0 14 16"><title>timer</title><path d="m12.041 5.152.693-.65a.866.866 0 0 0 0-1.28 1.013 1.013 0 0 0-1.366 0l-.741.695a6.994 6.994 0 0 0-2.574-1.021v-.903h.644c.178 0 .323-.136.323-.302V.906C9.02.408 8.585 0 8.053 0H5.476c-.531 0-.966.408-.966.906v.785c0 .166.145.302.322.302h.644v.9a6.972 6.972 0 0 0-2.574 1.02l-.74-.694a1.023 1.023 0 0 0-1.37 0 .866.866 0 0 0 0 1.28l.693.65A6.114 6.114 0 0 0 0 9.119c0 3.498 3.034 6.342 6.765 6.342 3.73 0 6.764-2.844 6.764-6.341a6.087 6.087 0 0 0-1.488-3.968zm-.216-1.504a.336.336 0 0 1 .455 0 .288.288 0 0 1 0 .426l-.667.625a7.443 7.443 0 0 0-.47-.414l.682-.637zm-6.67-2.259V.906c0-.166.144-.302.321-.302h2.577c.177 0 .322.136.322.302v.483h-3.22zm2.254.604v.812a7.65 7.65 0 0 0-1.289 0v-.812h1.29zm-6.16 2.08a.288.288 0 0 1 0-.425.336.336 0 0 1 .455 0l.68.637c-.165.13-.322.269-.47.414l-.664-.625zm5.516 10.785c-3.376 0-6.12-2.573-6.12-5.738 0-1.395.54-2.74 1.52-3.787a6.06 6.06 0 0 1 .895-.782 6.324 6.324 0 0 1 2.783-1.105 6.666 6.666 0 0 1 1.837 0 6.324 6.324 0 0 1 2.783 1.105c.325.232.625.495.895.782.986 1.048 1.527 2.392 1.527 3.787 0 3.165-2.744 5.738-6.12 5.738z"/><path d="M6.765 10.026c.531 0 .966-.408.966-.906 0-.393-.27-.731-.644-.855V6.1c0-.166-.145-.302-.322-.302-.177 0-.322.136-.322.302v2.165c-.374.124-.645.46-.645.855 0 .498.435.906.967.906zm0-1.208c.177 0 .322.136.322.302 0 .166-.145.302-.322.302-.177 0-.322-.136-.322-.302 0-.166.145-.302.322-.302z"/><path d="M10.195 5.934c-.006-.006-.01-.012-.016-.015A4.944 4.944 0 0 0 8.13 4.777a.325.325 0 0 0-.399.206.3.3 0 0 0 .22.374 4.346 4.346 0 0 1 1.539.785l-.216.203a.288.288 0 0 0 0 .425.342.342 0 0 0 .457 0l.22-.205c.583.634.927 1.416.995 2.25h-.316c-.177 0-.322.136-.322.302 0 .166.145.302.322.302h.31a3.758 3.758 0 0 1-.996 2.25l-.219-.206a.336.336 0 0 0-.454 0 .288.288 0 0 0 0 .426l.219.206a4.29 4.29 0 0 1-2.4.933v-.284c0-.166-.145-.302-.322-.302-.177 0-.322.136-.322.302v.29a4.29 4.29 0 0 1-2.4-.933l.219-.206a.288.288 0 0 0 0-.426.336.336 0 0 0-.454 0l-.22.206a3.759 3.759 0 0 1-.995-2.25H2.9c.177 0 .322-.136.322-.302 0-.166-.145-.302-.322-.302h-.31a3.758 3.758 0 0 1 .996-2.25l.22.205a.342.342 0 0 0 .457 0 .288.288 0 0 0 0-.425l-.216-.203a4.27 4.27 0 0 1 1.54-.785c.17-.048.267-.214.219-.374-.049-.16-.229-.251-.4-.206a4.944 4.944 0 0 0-2.048 1.142c-.007.006-.01.012-.017.015-.911.849-1.407 1.978-1.407 3.18 0 1.202.496 2.331 1.401 3.186.006.006.01.012.016.015.007.006.013.01.016.015a4.97 4.97 0 0 0 3.399 1.314 4.957 4.957 0 0 0 3.398-1.314c.007-.006.013-.009.016-.015.007-.006.01-.012.016-.015.902-.855 1.402-1.984 1.402-3.186s-.496-2.331-1.402-3.186z"/><path d="M6.765 5.194c.178 0 .322-.135.322-.302 0-.167-.144-.302-.322-.302-.178 0-.322.135-.322.302 0 .167.144.302.322.302z"/></symbol><symbol id="sprite-titles" viewBox="0 0 13 16"><title>titles</title><path d="M12.592 3.19a.586.586 0 0 0-.123-.186L9.628.166a.564.564 0 0 0-.4-.166H.713a.567.567 0 0 0-.57.569V15.33c0 .313.253.569.57.569h11.355a.569.569 0 0 0 .569-.569V3.407a.597.597 0 0 0-.044-.216zm-2.798 9.87H2.981a.569.569 0 1 1 0-1.138h6.813a.569.569 0 1 1 0 1.138zm0-2.27H2.981a.569.569 0 1 1 0-1.137h6.813a.569.569 0 1 1 0 1.138zm0-2.272H2.981a.569.569 0 1 1 0-1.138h6.813a.569.569 0 1 1 0 1.138zm0-2.272H2.981a.569.569 0 1 1 0-1.138h6.813a.569.569 0 1 1 0 1.138zm0-3.407V1.94l.902.901-.902-.003z"/></symbol><symbol style="enable-background:new 0 0 612 612" id="sprite-twitter" viewBox="0 0 612 612"><title>twitter</title><path d="M612 116.258a250.714 250.714 0 0 1-72.088 19.772c25.929-15.527 45.777-40.155 55.184-69.411-24.322 14.379-51.169 24.82-79.775 30.48-22.907-24.437-55.49-39.658-91.63-39.658-69.334 0-125.551 56.217-125.551 125.513 0 9.828 1.109 19.427 3.251 28.606-104.326-5.24-196.835-55.223-258.75-131.174-10.823 18.51-16.98 40.078-16.98 63.101 0 43.559 22.181 81.993 55.835 104.479a125.556 125.556 0 0 1-56.867-15.756v1.568c0 60.806 43.291 111.554 100.693 123.104-10.517 2.83-21.607 4.398-33.08 4.398-8.107 0-15.947-.803-23.634-2.333 15.985 49.907 62.336 86.199 117.253 87.194-42.947 33.654-97.099 53.655-155.916 53.655-10.134 0-20.116-.612-29.944-1.721 55.567 35.681 121.536 56.485 192.438 56.485 230.948 0 357.188-191.291 357.188-357.188l-.421-16.253c24.666-17.593 46.005-39.697 62.794-64.861z"/></symbol><symbol id="sprite-user" viewBox="0 0 15 15"><title>user</title><path d="M7.004 7.87c2.15 0 3.894-1.761 3.894-3.935C10.898 1.762 9.155 0 7.004 0S3.109 1.762 3.109 3.935c0 2.174 1.744 3.936 3.895 3.936z"/><path d="M7.003 7.87c-3.9 0-7.062 3.195-7.062 7.13H14.06c0-3.935-3.161-7.13-7.056-7.13z"/></symbol><symbol style="enable-background:new 0 0 548.358 548.358" id="sprite-vk" viewBox="0 0 548.358 548.358"><title>vk</title><path d="M545.451 400.298c-.664-1.431-1.283-2.618-1.858-3.569-9.514-17.135-27.695-38.167-54.532-63.102l-.567-.571-.284-.28-.287-.287h-.288c-12.18-11.611-19.893-19.418-23.123-23.415-5.91-7.614-7.234-15.321-4.004-23.13 2.282-5.9 10.854-18.36 25.696-37.397 7.807-10.089 13.99-18.175 18.556-24.267 32.931-43.78 47.208-71.756 42.828-83.939l-1.701-2.847c-1.143-1.714-4.093-3.282-8.846-4.712-4.764-1.427-10.853-1.663-18.278-.712l-82.224.568c-1.332-.472-3.234-.428-5.712.144l-3.713.859-1.431.715-1.136.859c-.952.568-1.999 1.567-3.142 2.995-1.137 1.423-2.088 3.093-2.848 4.996-8.952 23.031-19.13 44.444-30.553 64.238-7.043 11.803-13.511 22.032-19.418 30.693-5.899 8.658-10.848 15.037-14.842 19.126-4 4.093-7.61 7.372-10.852 9.849-3.237 2.478-5.708 3.525-7.419 3.142-1.715-.383-3.33-.763-4.859-1.143-2.663-1.714-4.805-4.045-6.42-6.995-1.622-2.95-2.714-6.663-3.285-11.136-.568-4.476-.904-8.326-1-11.563-.089-3.233-.048-7.806.145-13.706.198-5.903.287-9.897.287-11.991 0-7.234.141-15.085.424-23.555.288-8.47.521-15.181.716-20.125.194-4.949.284-10.185.284-15.705s-.336-9.849-1-12.991a44.442 44.442 0 0 0-2.99-9.137c-1.335-2.95-3.289-5.232-5.853-6.852-2.569-1.618-5.763-2.902-9.564-3.856-10.089-2.283-22.936-3.518-38.547-3.71-35.401-.38-58.148 1.906-68.236 6.855-3.997 2.091-7.614 4.948-10.848 8.562-3.427 4.189-3.905 6.475-1.431 6.851 11.422 1.711 19.508 5.804 24.267 12.275l1.715 3.429c1.334 2.474 2.666 6.854 3.999 13.134 1.331 6.28 2.19 13.227 2.568 20.837.95 13.897.95 25.793 0 35.689-.953 9.9-1.853 17.607-2.712 23.127-.859 5.52-2.143 9.993-3.855 13.418-1.715 3.426-2.856 5.52-3.428 6.28-.571.76-1.047 1.239-1.425 1.427a21.387 21.387 0 0 1-7.71 1.431c-2.667 0-5.901-1.334-9.707-4-3.805-2.666-7.754-6.328-11.847-10.992-4.093-4.665-8.709-11.184-13.85-19.558-5.137-8.374-10.467-18.271-15.987-29.691l-4.567-8.282c-2.855-5.328-6.755-13.086-11.704-23.267-4.952-10.185-9.329-20.037-13.134-29.554-1.521-3.997-3.806-7.04-6.851-9.134l-1.429-.859c-.95-.76-2.475-1.567-4.567-2.427a30.301 30.301 0 0 0-6.567-1.854l-78.229.568c-7.994 0-13.418 1.811-16.274 5.428l-1.143 1.711c-.571.953-.859 2.475-.859 4.57 0 2.094.571 4.664 1.714 7.707 11.42 26.84 23.839 52.725 37.257 77.659 13.418 24.934 25.078 45.019 34.973 60.237 9.897 15.229 19.985 29.602 30.264 43.112 10.279 13.515 17.083 22.176 20.412 25.981 3.333 3.812 5.951 6.662 7.854 8.565l7.139 6.851c4.568 4.569 11.276 10.041 20.127 16.416 8.853 6.379 18.654 12.659 29.408 18.85 10.756 6.181 23.269 11.225 37.546 15.126 14.275 3.905 28.169 5.472 41.684 4.716h32.834c6.659-.575 11.704-2.669 15.133-6.283l1.136-1.431c.764-1.136 1.479-2.901 2.139-5.276.668-2.379 1-5 1-7.851-.195-8.183.428-15.558 1.852-22.124 1.423-6.564 3.045-11.513 4.859-14.846 1.813-3.33 3.859-6.14 6.136-8.418 2.282-2.283 3.908-3.666 4.862-4.142.948-.479 1.705-.804 2.276-.999 4.568-1.522 9.944-.048 16.136 4.429 6.187 4.473 11.99 9.996 17.418 16.56 5.425 6.57 11.943 13.941 19.555 22.124 7.617 8.186 14.277 14.271 19.985 18.274l5.708 3.426c3.812 2.286 8.761 4.38 14.853 6.283 6.081 1.902 11.409 2.378 15.984 1.427l73.087-1.14c7.229 0 12.854-1.197 16.844-3.572 3.998-2.379 6.373-5 7.139-7.851.764-2.854.805-6.092.145-9.712-.677-3.611-1.344-6.136-2.008-7.563z"/></symbol><symbol fill="none" id="sprite-wallet" viewBox="0 0 17 17"><title>wallet</title><path d="M12.872 9.453a.662.662 0 0 0-.222-.513.676.676 0 0 0-.519-.22c-.37 0-.74.293-.74.733 0 .366.296.732.74.732.445 0 .74-.366.74-.732z"/><path d="M14.575 7.62V4.69c0-.806-.666-1.466-1.481-1.466h-.814l-.89-1.539c-.147-.293-.517-.513-.814-.513-.148 0-.296.074-.444.147L6.578 3.224H2.653c-.814 0-1.48.66-1.48 1.466v9.086c0 .806.666 1.465 1.48 1.465h10.441c.815 0 1.48-.66 1.48-1.465v-2.492h.667V7.621h-.666zm-1.63-3.15-.221-.44h.37c.296 0 .518.147.592.44h-.74zm-8.589 0H2.801c-.222 0-.37.146-.37.366s.148.44.444.44H13.76V7.62h-1.777c-.962 0-1.777.806-1.777 1.758v.147c0 .952.815 1.758 1.777 1.758h1.777v2.492a.66.66 0 0 1-.666.66H2.654a.66.66 0 0 1-.667-.66V4.69a.66.66 0 0 1 .666-.66h2.444l-.74.44zm6.59 4.983v-.147c0-.513.445-.953.963-.953h2.444v2.052h-2.444a.975.975 0 0 1-.962-.952zM6.06 4.47l4.442-2.492h.074s.074 0 .074.074l1.333 2.418H6.06z"/></symbol><symbol id="sprite-youtube" viewBox="0 0 18 13"><title>youtube</title><path d="M17.303 1.115C16.653.322 15.456 0 13.16 0H4.844C2.498 0 1.278.346.634 1.186 0 2.01 0 3.225 0 4.9v3.2C0 11.355.75 13 4.844 13h8.317c1.987 0 3.09-.286 3.799-.983C17.692 11.3 18 10.127 18 8.1V4.9c.005-1.765-.041-2.987-.697-3.785zm-5.745 5.83L7.783 8.97a.538.538 0 0 1-.267.065.607.607 0 0 1-.302-.083.601.601 0 0 1-.279-.513V4.405c0-.209.105-.4.279-.507a.571.571 0 0 1 .569-.018l3.775 2.015a.596.596 0 0 1 0 1.05z"/></symbol></svg>