<svg xmlns="http://www.w3.org/2000/svg"><symbol fill="none" id="sprite-amd" viewBox="0 0 10 10"><title>amd</title><path d="M7.309 7.54a.33.33 0 0 0-.31-.206H2.666V3a.334.334 0 0 0-.568-.238l-2.001 2A.333.333 0 0 0 0 5v4.666C0 9.85.15 10 .334 10h4.668a.344.344 0 0 0 .237-.097l2-2a.344.344 0 0 0 .07-.362zM9.669 0H.997A.334.334 0 0 0 .76.569l2 2a.333.333 0 0 0 .238.097h4.336V7c0 .088.034.172.096.237l2.001 2A.332.332 0 0 0 10 9V.334A.332.332 0 0 0 9.669 0z" fill="#dd0833"/></symbol><symbol id="sprite-bell" viewBox="0 0 17 21"><title>bell</title><path fill-rule="evenodd" clip-rule="evenodd" d="m15.348 12.951 1.568 3.267a.846.846 0 0 1-.047.823.84.84 0 0 1-.72.4H.853a.86.86 0 0 1-.72-.4.846.846 0 0 1-.047-.823l1.568-3.267V6.849C1.654 3.075 4.726 0 8.5 0c3.775 0 6.847 3.075 6.847 6.849v6.102zM5 19a1 1 0 1 0 0 2h7a1 1 0 1 0 0-2H5z"/></symbol><symbol id="sprite-box" viewBox="0 0 22 24"><title>box</title><path fill-rule="evenodd" clip-rule="evenodd" d="m11 0 11 5.982v12.036L11.498 23.73a.92.92 0 0 1-.033.017L11 24l-.465-.253a.943.943 0 0 1-.033-.018L0 18.02V5.981L11 0zm1 21.2 8-4.35V8.657l-8 3.954v8.59zm-2-8.59v8.59l-8-4.35V8.657l8 3.954zm1-10.354 8.323 4.526L11 10.895 2.678 6.782 11 2.256z"/></symbol><symbol fill="none" id="sprite-c-application" viewBox="0 0 32 32"><title>c-application</title><path fill-rule="evenodd" clip-rule="evenodd" d="M4 12.116C4 7.69 7.63 5 11.111 5c1.21 0 3.36.535 4.889 2.474C17.528 5.535 19.679 5 20.889 5 24.37 5 28 7.69 28 12.116c0 2.8-1.79 5.427-3.929 7.872-1.093 1.25-2.337 2.515-3.594 3.787l-.206.208c-1.198 1.212-2.406 2.433-3.545 3.69A.98.98 0 0 1 16 28a.98.98 0 0 1-.726-.326c-1.139-1.258-2.347-2.48-3.545-3.69l-.206-.21c-1.257-1.271-2.501-2.537-3.594-3.786C5.79 17.543 4 14.916 4 12.116zm7.111-5.025C8.481 7.09 6 9.09 6 12.116c0 1.921 1.265 4.015 3.405 6.46 1.045 1.196 2.246 2.418 3.51 3.696l.213.217c.947.957 1.923 1.945 2.872 2.959a150.954 150.954 0 0 1 2.872-2.96l.214-.216c1.263-1.278 2.464-2.5 3.51-3.695C24.734 16.13 26 14.037 26 12.116c0-3.024-2.482-5.025-5.111-5.025-.967 0-2.978.551-3.985 2.774a.998.998 0 0 1-.904.598.998.998 0 0 1-.904-.598c-1.007-2.223-3.018-2.774-3.985-2.774z" fill="#000"/></symbol><symbol fill="none" id="sprite-c-faq" viewBox="0 0 32 32"><title>c-faq</title><path fill-rule="evenodd" clip-rule="evenodd" d="M16 30c7.732 0 14-6.268 14-14S23.732 2 16 2 2 8.268 2 16s6.268 14 14 14zm12-14c0 6.627-5.373 12-12 12S4 22.627 4 16 9.373 4 16 4s12 5.373 12 12zm-11.95 6c-.617 0-1.127-.542-1.127-1.198 0-.656.51-1.197 1.127-1.197s1.127.541 1.127 1.197S16.667 22 16.05 22zm-.072-11C17.643 11 19 12.106 19 13.975c0 .847-.258 1.312-.696 1.922l-.861 1.198a2.22 2.22 0 0 0-.41.885 1.35 1.35 0 0 1-.287.572c-.172.19-.394.29-.696.29a.891.891 0 0 1-.696-.305c-.15-.168-.222-.404-.222-.68 0-.465.114-.854.516-1.387l1.07-1.435c.23-.305.416-.64.416-1.06 0-.671-.445-1.19-1.134-1.19-.366 0-.653.107-.883.366-.172.19-.273.427-.359.725-.05.175-.157.381-.258.503-.165.183-.38.244-.653.244a.818.818 0 0 1-.624-.266c-.151-.168-.223-.39-.223-.702 0-.496.251-1.244.825-1.808.546-.534 1.285-.847 2.154-.847z" fill="#000"/></symbol><symbol fill="none" id="sprite-c-hardware" viewBox="0 0 32 32"><title>c-hardware</title><path fill-rule="evenodd" clip-rule="evenodd" d="M8.143 7h15.714c.579 0 1.048.448 1.048 1v10c0 .552-.47 1-1.048 1H8.143c-.579 0-1.048-.448-1.048-1V8c0-.552.47-1 1.048-1zM5 8c0-1.657 1.407-3 3.143-3h15.714C25.593 5 27 6.343 27 8v10c0 1.657-1.407 3-3.143 3H8.143C6.407 21 5 19.657 5 18V8zm2.619 17h16.762c.29 0 .524-.224.524-.5s-.235-.5-.524-.5H7.619a.512.512 0 0 0-.524.5c0 .276.235.5.524.5zM5 24.5C5 25.88 6.173 27 7.619 27h16.762C25.827 27 27 25.88 27 24.5S25.827 22 24.381 22H7.619C6.173 22 5 23.12 5 24.5zM9.19 11c0-.552.47-1 1.048-1h9.714c.579 0 1.048.448 1.048 1s-.469 1-1.048 1h-9.714c-.578 0-1.048-.448-1.048-1zm1.048 3c-.578 0-1.048.448-1.048 1s.47 1 1.048 1h4.714c.579 0 1.048-.448 1.048-1s-.469-1-1.048-1h-4.714z" fill="#000"/></symbol><symbol fill="none" id="sprite-c-kryptex" viewBox="0 0 32 32"><title>c-kryptex</title><path fill-rule="evenodd" clip-rule="evenodd" d="M9.537 5c-.867 0-1.699.372-2.315 1.036L3.93 9.585A3.572 3.572 0 0 0 3 12.01c0 .86.298 1.687.834 2.318l3.755 4.42.707-.711-.702.716c.562.653 1.423.89 2.204.605l1.806-.658-.635 2.126a2.529 2.529 0 0 0 .156 1.846l-.016.091.335.39h.002l2.463 2.86c.542.63 1.299.986 2.091.986h.177a2.37 2.37 0 0 0 1.793-.845l10.184-11.821A3.57 3.57 0 0 0 29 12.005a3.56 3.56 0 0 0-.927-2.418l-3.295-3.552C24.162 5.372 23.33 5 22.463 5H9.537zm-4.289 7.907 3.393 3.994 5.686-1.17-1.14 6.382 1.574 1.826L21.7 11.951 7.942 8.21l-2.657 2.863a1.38 1.38 0 0 0-.36.938c0 .332.116.652.323.896zm6.537-5.812L22.166 9.92c1.272.345 1.861 1.942 1.163 3.149l-6.705 11.586L26.749 12.9a1.37 1.37 0 0 0 .325-.895 1.37 1.37 0 0 0-.356-.93l-3.296-3.551a1.31 1.31 0 0 0-.959-.43H11.785z" fill="#000"/></symbol><symbol fill="none" id="sprite-c-mining" viewBox="0 0 20 26"><title>c-mining</title><path fill-rule="evenodd" clip-rule="evenodd" d="m9.973 3.447-7.335 9.944h6.255c.81 0 1.414.745 1.248 1.537l-1.485 7.094 8.643-10.87h-6.225a1.276 1.276 0 0 1-1.275-1.31l.174-6.395zM9.693.521c.742-1.005 2.335-.456 2.301.793l-.214 7.875h6.942c1.068 0 1.663 1.235.998 2.07L8.388 25.514c-.837 1.053-2.522.26-2.246-1.056l1.906-9.103h-6.77C.23 15.354-.37 14.162.252 13.32L9.693.52z" fill="#000"/></symbol><symbol fill="none" id="sprite-c-payouts" viewBox="0 0 32 32"><title>c-payouts</title><path fill-rule="evenodd" clip-rule="evenodd" d="M18 2H6a2 2 0 0 0-2 2v16a2 2 0 0 0 2 2h12a2 2 0 0 0 2-2V4a2 2 0 0 0-2-2zM6 0a4 4 0 0 0-4 4v16a4 4 0 0 0 4 4h12a4 4 0 0 0 4-4V4a4 4 0 0 0-4-4H6zm1 7a1 1 0 0 1 1-1h8a1 1 0 1 1 0 2H8a1 1 0 0 1-1-1zm1 3a1 1 0 1 0 0 2h4a1 1 0 1 0 0-2H8z" fill="#000"/><path d="M28 21a8 8 0 1 1-16 0 8 8 0 0 1 16 0z" fill="#000"/><path fill-rule="evenodd" clip-rule="evenodd" d="M30 21c0 5.523-4.477 10-10 10s-10-4.477-10-10 4.477-10 10-10 10 4.477 10 10zm-10 8a8 8 0 1 0 0-16 8 8 0 0 0 0 16z" fill="#fff"/><path fill-rule="evenodd" clip-rule="evenodd" d="M24.207 19.707a1 1 0 0 0-1.414-1.414L19 22.086l-1.293-1.293a1 1 0 0 0-1.414 1.414l2 2a1.002 1.002 0 0 0 1.414 0l4.5-4.5z" fill="#fff"/></symbol><symbol fill="none" id="sprite-c-referrals" viewBox="0 0 32 32"><title>c-referrals</title><path fill-rule="evenodd" clip-rule="evenodd" d="M9 9.5a3.5 3.5 0 1 1 7 0 3.5 3.5 0 0 1-7 0zM12.5 4a5.5 5.5 0 1 0 0 11 5.5 5.5 0 0 0 0-11zM21 6a1 1 0 1 0 0 2 2 2 0 1 1 0 4 1 1 0 1 0 0 2 4 4 0 1 0 0-8zM4 22.143C4 18.777 6.66 16 10 16h5c3.34 0 6 2.777 6 6.143C21 24.799 18.9 27 16.25 27h-7.5C6.1 27 4 24.799 4 22.143zM10 18c-2.183 0-4 1.828-4 4.143C6 23.748 7.258 25 8.75 25h7.5c1.492 0 2.75-1.252 2.75-2.857C19 19.828 17.183 18 15 18h-5zm13-2a1 1 0 1 0 0 2c1.807 0 3 1.226 3 2.429 0 .728-.745 1.571-2 1.571a1 1 0 1 0 0 2c2.059 0 4-1.46 4-3.571C28 17.844 25.611 16 23 16z" fill="#000"/></symbol><symbol fill="none" id="sprite-c-security" viewBox="0 0 32 32"><title>c-security</title><path fill-rule="evenodd" clip-rule="evenodd" d="M9.188 11.5C9.188 7.943 11.98 5 15.5 5c1.618 0 3.184.402 4.37 1.32 1.218.945 1.942 2.369 1.942 4.18a1 1 0 1 1-2 0c0-1.226-.464-2.053-1.168-2.599C17.907 7.33 16.816 7 15.5 7c-2.35 0-4.313 1.982-4.313 4.5v1.4h9.98A3.828 3.828 0 0 1 25 16.723v6.454A3.828 3.828 0 0 1 21.167 27H9.833A3.828 3.828 0 0 1 6 23.177v-6.454a3.827 3.827 0 0 1 3.188-3.769V11.5zm.645 3.4C8.817 14.9 8 15.72 8 16.723v6.454C8 24.18 8.817 25 9.833 25h11.334C22.182 25 23 24.18 23 23.177v-6.454a1.828 1.828 0 0 0-1.833-1.823H9.833zm6.604 3.3a1 1 0 1 0-2 0v2.4a1 1 0 1 0 2 0v-2.4z" fill="#000"/></symbol><symbol id="sprite-check" viewBox="0 0 9 8"><title>check</title><path d="M-1.873 4.4A.42.42 0 0 1-2 4.12c0-.08.042-.2.127-.28l.592-.56c.17-.16.423-.16.593 0l.042.04L1.68 5.68c.084.08.211.08.296 0L7.647.12h.041c.17-.16.424-.16.593 0l.592.56c.17.16.17.4 0 .56l-6.77 6.64a.395.395 0 0 1-.295.12.395.395 0 0 1-.296-.12l-3.3-3.36-.085-.12z"/></symbol><symbol fill="none" id="sprite-chevron-bottom" viewBox="0 0 7 5"><title>chevron-bottom</title><path fill-rule="evenodd" clip-rule="evenodd" d="M.146.146a.5.5 0 0 1 .708 0L3.5 2.793 6.146.146a.5.5 0 1 1 .708.708L3.5 4.207.146.854a.5.5 0 0 1 0-.708z" fill="#000"/></symbol><symbol fill="none" id="sprite-chevron-right-circle" viewBox="0 0 20 20"><title>chevron-right-circle</title><circle opacity=".7" cx="10" cy="10" r="9"/><path opacity=".7" d="m9 13 3-3-3-3"/></symbol><symbol id="sprite-chevron-right" viewBox="0 0 5 7"><title>chevron-right</title><path fill-rule="evenodd" clip-rule="evenodd" d="M.146 6.854a.5.5 0 0 1 0-.708L2.793 3.5.146.854A.5.5 0 0 1 .854.146L4.207 3.5.854 6.854a.5.5 0 0 1-.708 0z"/></symbol><symbol fill="none" id="sprite-circle-chart" viewBox="0 0 22 22"><title>circle-chart</title><path d="M9.348 5.237c.096.191.154.4.17.616l.428 6.037a.313.313 0 0 0 .282.288l.068.002 6.131-.37c.498-.029.987.144 1.35.48.362.334.567.8.565 1.34-.273 3.974-3.192 7.296-7.167 8.157-3.975.861-8.055-.945-10.011-4.424a8.43 8.43 0 0 1-1.039-2.87l-.052-.373A5.701 5.701 0 0 1 0 13.287l.003-.267c.012-4.149 2.925-7.737 7.024-8.704l.281-.062.152-.025c.792-.109 1.572.307 1.888 1.007zm-1.63.569-.093.01-.25.057c-3.266.787-5.608 3.598-5.738 6.91l-.006.27c-.008.205 0 .41.024.628l.031.224c.11.94.413 1.848.898 2.68 1.614 2.87 4.97 4.355 8.239 3.647 3.27-.708 5.67-3.44 5.892-6.656a.174.174 0 0 0-.056-.129.182.182 0 0 0-.085-.043l-.048-.004-6.121.369a1.975 1.975 0 0 1-1.418-.462A1.888 1.888 0 0 1 8.322 12l-.427-6.032a.194.194 0 0 0-.022-.059.18.18 0 0 0-.155-.104zM12.565.001c4.714.133 8.668 3.52 9.425 8.074l.01.127-.003.222a1.537 1.537 0 0 1-.377.89 1.605 1.605 0 0 1-1.095.538l-7.31.477c-.937.053-1.743-.643-1.803-1.558l-.49-7.177.006-.16.025-.182c.065-.321.232-.615.479-.838.31-.28.72-.429 1.133-.413zm-.013 1.593.484 7.072c.003.043.04.076.078.074l7.256-.475-.036-.198c-.72-3.579-3.82-6.236-7.542-6.462l-.24-.011z" fill="#036EE9"/></symbol><symbol id="sprite-cross" viewBox="0 0 9 9"><title>cross</title><path d="m5.568 4.5 3.207-3.208A.755.755 0 1 0 7.706.223L4.5 3.43 1.292.22A.755.755 0 1 0 .223 1.288L3.43 4.495.22 7.706a.755.755 0 1 0 1.069 1.07l3.207-3.208 3.207 3.207a.755.755 0 1 0 1.069-1.069L5.568 4.5z"/></symbol><symbol id="sprite-fan" viewBox="0 0 12 12"><title>fan</title><path d="M11.802 6.956 7.718 5.627a1.534 1.534 0 0 0-.07-.356c.171-.058.35-.125.53-.194 1.624-.625 2.561-1.321 2.782-2.073.146-.5-.011-.995-.468-1.473C10.131 1.155 9.335.59 9.3.567a.28.28 0 0 0-.394.069L6.385 4.2a1.56 1.56 0 0 0-.337-.008C6.037 2.88 5.877 1.205 5.2.448 4.936.152 4.619.003 4.25.003c-.254 0-.528.075-.819.218-.358.18-.902.578-1.146.76l-.125.094a.291.291 0 0 0-.057.401L4.76 5.163c-.03.072-.052.149-.07.226-.87-.287-1.957-.574-2.853-.574-.707 0-1.217.182-1.522.538-.269.316-.364.752-.288 1.294.074.52.394 1.454.408 1.492a.286.286 0 0 0 .358.18L5.12 6.868c.048.047.097.091.152.133-.15.21-.307.434-.46.671-.953 1.476-1.309 2.6-1.054 3.342.169.492.585.801 1.231.914.334.058.861.072 1.244.072.166 0 .278-.003.278-.003a.289.289 0 0 0 .28-.29L6.764 7.2a1.67 1.67 0 0 0 .244-.128c.125.175.261.354.402.537 1.076 1.37 2.01 2.067 2.78 2.067.361 0 .874-.158 1.263-.907.242-.464.522-1.412.535-1.45a.292.292 0 0 0-.187-.363zm-5.616-.403a.795.795 0 0 1-.788-.802c0-.442.354-.801.788-.801.435 0 .788.36.788.801a.795.795 0 0 1-.788.802z"/></symbol><symbol fill="none" id="sprite-flag-ar" viewBox="0 0 19 13"><title>flag-ar</title><g clip-path="url(#a)"><path d="M19 0H0v13h19V0z" fill="#73AF00"/><g fill="#F5F5F5"><path d="M5.54 6.5c0-1.557 1.091-2.876 2.6-3.33a.077.077 0 0 0-.015-.153 4.05 4.05 0 0 0-.894.017c-1.773.232-3.141 1.629-3.227 3.294C3.901 8.34 5.621 10 7.758 10c.123 0 .245-.006.366-.017a.078.078 0 0 0 .016-.153c-1.51-.454-2.6-1.773-2.6-3.33z"/><path d="M8.73 4.528 8.309 5.85l-1.33.01c-.173.002-.244.232-.106.34l1.07.827-.4 1.328c-.053.172.134.314.274.21l1.083-.81 1.083.81c.14.104.327-.038.275-.21l-.402-1.328 1.07-.828c.14-.107.068-.337-.104-.338l-1.33-.011-.422-1.322a.177.177 0 0 0-.34 0z"/></g></g><defs><clipPath id="a"><path d="M19 11a2 2 0 0 1-2 2H2a2 2 0 0 1-2-2V2a2 2 0 0 1 2-2h15a2 2 0 0 1 2 2v9z" fill="#fff"/></clipPath></defs></symbol><symbol fill="none" id="sprite-flag-cs" viewBox="0 0 19 13"><title>flag-cs</title><g clip-path="url(#a)"><path d="M.12 13.02 9.5 6.552.12.083A.346.346 0 0 0 0 .345v12.414c0 .106.049.198.12.261z" fill="#22408C"/><path d="M.12 13.02c.058.05.128.083.208.083h18.344a.336.336 0 0 0 .328-.344V6.552H9.5L.12 13.02z" fill="#FF4B55"/><path d="M.12.083A.313.313 0 0 1 .329 0h18.344c.181 0 .328.154.328.345v6.207H9.5L.12.083z" fill="#EEE"/></g><defs><clipPath id="a"><path d="M0 2a2 2 0 0 1 2-2h15a2 2 0 0 1 2 2v9a2 2 0 0 1-2 2H2a2 2 0 0 1-2-2V2z" fill="#fff"/></clipPath></defs></symbol><symbol fill="none" id="sprite-flag-de" viewBox="0 0 19 13"><title>flag-de</title><path d="M0 11c0 1.104.946 2 2.112 2h14.777C18.053 13 19 12.104 19 11V9H0v2z" fill="#FFCE00"/><path d="M0 9h19V4H0v5z" fill="#D00"/><path d="M2.112 0h14.777C18.053 0 19 .896 19 2v2H0V2C0 .896.946 0 2.112 0z" fill="#000"/></symbol><symbol fill="none" id="sprite-flag-en" viewBox="0 0 19 13"><title>flag-en</title><g clip-path="url(#a)"><path d="M10 0H2.222C.995 0 0 .896 0 2v5h10V0z" fill="#3C3B6E"/><path d="M.067 11.478c.014.05.031.1.049.148.047.13.104.255.176.372V12c.367.595 1.04 1 1.82 1h14.777c.78 0 1.452-.405 1.818-1l.001-.002a2.062 2.062 0 0 0 .292-.99V2c0-.117-.015-.23-.036-.34a1.762 1.762 0 0 0-.08-.288A2.017 2.017 0 0 0 18.706 1a2.124 2.124 0 0 0-1.818-1H9.5v7H0v4a2.038 2.038 0 0 0 .067.478z" fill="#EEE"/><path d="M18.707.994A2.127 2.127 0 0 0 16.89 0H9.5v.994h9.207zM0 10.937h19v-.994H0v.994zm19-4.971H9.5v.994H19v-.994zm0-1.989H9.5v.994H19v-.994zm0 3.977H0v.994h19v-.994zM16.889 13c.78 0 1.452-.405 1.818-1H.293c.366.595 1.038 1 1.818 1h14.778zM19 1.989H9.5v.994H19v-.994z" fill="#B22334"/><path d="M0 1.989zM.293.994.292.996V.994zm-.226.519c.014-.05.032-.098.049-.147a2.041 2.041 0 0 0-.049.147z" fill="#EEE"/><path d="m1.056 1.355.326.223-.124.361.326-.223.326.223-.125-.36.326-.224h-.403L1.584.994l-.124.36h-.404zm1.056.995.326.222-.125.361.326-.223.326.223-.125-.36.327-.224h-.403l-.125-.36-.124.36h-.403zm2.111 0 .326.222-.125.361.326-.223.326.223-.125-.36.327-.224h-.403l-.125-.36-.124.36h-.403zm2.111 0 .326.222-.125.361.326-.223.326.223-.125-.36.327-.224h-.403l-.125-.36-.124.36h-.403zM2.112 4.338l.326.223-.125.36.326-.222.326.223-.125-.361.327-.223h-.403l-.125-.361-.124.36h-.403zm2.111 0 .326.223-.125.36.326-.222.326.223-.125-.361.327-.223h-.403l-.125-.361-.124.36h-.403zm2.111 0 .326.223-.125.36.326-.222.326.223-.125-.361.327-.223h-.403l-.125-.361-.124.36h-.403zM3.167 1.355l.327.223-.126.361.327-.223.326.223-.125-.36.326-.224H3.82L3.695.994l-.124.36h-.404zm2.112 0 .326.223-.125.361.326-.223.326.223-.125-.36.327-.224H5.93L5.806.994l-.124.36h-.403zm2.111 0 .326.223-.125.361.326-.223.326.223-.125-.36.327-.224H8.04L7.917.994l-.124.36H7.39zM1.056 3.343l.326.224-.124.36.326-.223.326.224-.125-.361.326-.224h-.403l-.124-.36-.124.36h-.404zm2.313.585.326-.224.326.224-.125-.361.326-.224H3.82l-.124-.36-.125.36h-.402l.325.224-.124.36zm1.91-.585.326.224-.125.36.326-.223.326.224-.125-.361.327-.224H5.93l-.124-.36-.124.36h-.403zm2.111 0 .326.224-.125.36.326-.223.326.224-.125-.361.327-.224H8.04l-.124-.36-.124.36H7.39zM1.056 5.332l.326.223-.124.361.326-.223.326.223-.125-.36.326-.224h-.403l-.124-.36-.124.36h-.404zm2.313.584.326-.223.326.223-.125-.36.326-.224H3.82l-.124-.36-.125.36h-.402l.325.223-.124.361zm1.91-.584.326.223-.125.361.326-.223.326.223-.125-.36.327-.224H5.93l-.124-.36-.124.36h-.403zm2.111 0 .326.223-.125.361.326-.223.326.223-.125-.36.327-.224H8.04l-.124-.36-.124.36H7.39z" fill="#fff"/></g><defs><clipPath id="a"><path d="M0 10.8A2.2 2.2 0 0 0 2.2 13h14.6a2.2 2.2 0 0 0 2.2-2.2V2.2A2.2 2.2 0 0 0 16.8 0H2.2A2.2 2.2 0 0 0 0 2.2v8.6z" fill="#fff"/></clipPath></defs></symbol><symbol fill="none" id="sprite-flag-es" viewBox="0 0 19 13"><title>flag-es</title><path d="M19 2c0-1.104-.946-2-2.111-2H2.112C.946 0 0 .896 0 2v9c0 1.104.946 2 2.112 2h14.777C18.053 13 19 12.104 19 11V2z" fill="#C60A1D"/><path d="M19 3.501H0v6.001h19v-6z" fill="#FFC400"/></symbol><symbol fill="none" id="sprite-flag-fa" viewBox="0 0 19 13"><title>flag-fa</title><g clip-path="url(#a)"><path d="M19 3H0v6h19V3z" fill="#F5F5F5"/><path d="M19 9H0v4h19V9z" fill="#73AF00"/><path d="M19 0H0v4h19V0z" fill="#464655"/><g fill="#FF4B55"><path d="M6.635 5.782.015-.965A3.489 3.489 0 0 0-1 1.5v9a3.49 3.49 0 0 0 1.016 2.465l6.62-6.747a.332.332 0 0 0 0-.436zM13.1 6.5c0-1.112.78-2.054 1.858-2.379a.055.055 0 0 0-.011-.109 2.892 2.892 0 0 0-.64.013c-1.266.165-2.243 1.163-2.304 2.352C11.93 7.814 13.158 9 14.684 9c.088 0 .176-.004.262-.012a.055.055 0 0 0 .01-.11C13.88 8.555 13.1 7.613 13.1 6.5z"/><path d="m15.379 5.092-.301.944-.95.007c-.124.001-.175.166-.076.242l.765.591-.287.949c-.037.123.097.224.197.15l.773-.58.773.58c.1.074.234-.027.197-.15l-.287-.949.765-.59c.099-.077.048-.242-.075-.243l-.95-.007-.302-.944a.126.126 0 0 0-.242 0z"/></g></g><defs><clipPath id="a"><path d="M19 11a2 2 0 0 1-2 2H2a2 2 0 0 1-2-2V2a2 2 0 0 1 2-2h15a2 2 0 0 1 2 2v9z" fill="#fff"/></clipPath></defs></symbol><symbol fill="none" id="sprite-flag-fi" viewBox="0 0 19 13"><title>flag-fi</title><g clip-path="url(#a)"><rect width="19" height="13" rx="2" fill="#F5F5F5"/><path fill="#22408C" d="M0 5h19v3H0z"/><path fill="#22408C" d="M8 0v13H5V0z"/></g><defs><clipPath id="a"><path fill="#fff" d="M0 0h19v13H0z"/></clipPath></defs></symbol><symbol fill="none" id="sprite-flag-fr" viewBox="0 0 19 13"><title>flag-fr</title><path d="M13 0h4a2 2 0 0 1 2 2v9a2 2 0 0 1-2 2h-4V0z" fill="#ED2939"/><path fill="#EEE" d="M6 0h7v13H6z"/><path d="M0 2a2 2 0 0 1 2-2h4v13H2a2 2 0 0 1-2-2V2z" fill="#002395"/></symbol><symbol fill="none" id="sprite-flag-he" viewBox="0 0 19 13"><title>flag-he</title><g clip-path="url(#a)"><path d="M17.577 0H1.423C.637 0 0 .665 0 1.486v10.028C0 12.334.637 13 1.423 13h16.154c.786 0 1.423-.665 1.423-1.486V1.486C19 .666 18.363 0 17.577 0z" fill="#41479B"/><path d="M19 2.438H0v8.124h19V2.438z" fill="#F5F5F5"/><path d="m11.347 6.5.924-1.625h-1.847L9.5 3.25l-.924 1.625H6.73L7.653 6.5l-.924 1.625h1.847L9.5 9.75l.924-1.625h1.847L11.347 6.5zm.018-1.093-.32.562-.32-.562h.64zM10.743 6.5l-.621 1.093H8.878L8.257 6.5l.621-1.093h1.244l.621 1.093zM9.5 4.313l.32.562h-.64l.32-.562zM7.635 5.407h.64l-.32.562-.32-.562zm0 2.186.32-.562.32.562h-.64zM9.5 8.687l-.32-.562h.64l-.32.562zm1.545-1.656.32.562h-.64l.32-.562z" fill="#41479B"/></g><defs><clipPath id="a"><path d="M19 11a2 2 0 0 1-2 2H2a2 2 0 0 1-2-2V2a2 2 0 0 1 2-2h15a2 2 0 0 1 2 2v9z" fill="#fff"/></clipPath></defs></symbol><symbol fill="none" id="sprite-flag-id" viewBox="0 0 19 13"><title>flag-id</title><g clip-path="url(#a)"><path d="M19 .083A.313.313 0 0 0 18.793 0H.328A.337.337 0 0 0 0 .345v6.103h19V.083z" fill="#FF4B55"/><path d="M19 12.917a.313.313 0 0 1-.207.083H.328A.337.337 0 0 1 0 12.655V6.448h19v6.469z" fill="#F5F5F5"/></g><defs><clipPath id="a"><path d="M0 2a2 2 0 0 1 2-2h15a2 2 0 0 1 2 2v9a2 2 0 0 1-2 2H2a2 2 0 0 1-2-2V2z" fill="#fff"/></clipPath></defs></symbol><symbol fill="none" id="sprite-flag-it" viewBox="0 0 19 13"><title>flag-it</title><g clip-path="url(#a)"><path d="M18.922 13c.047-.039.078-.087.078-.142V.224C19 .1 18.856 0 18.68 0H13v13h5.922z" fill="#FF4B55"/><path d="M.078 13C.03 12.961 0 12.913 0 12.858V.224C0 .1.144 0 .32 0H6v13H.078z" fill="#239F40"/><path d="M6.09 13c-.054-.039-.09-.087-.09-.142V.224C6 .1 6.165 0 6.368 0H13v13H6.09z" fill="#F5F5F5"/></g><defs><clipPath id="a"><path d="M0 2a2 2 0 0 1 2-2h15a2 2 0 0 1 2 2v9a2 2 0 0 1-2 2H2a2 2 0 0 1-2-2V2z" fill="#fff"/></clipPath></defs></symbol><symbol fill="none" id="sprite-flag-nl" viewBox="0 0 19 13"><title>flag-nl</title><g clip-path="url(#a)"><path d="M0 11c0 1.104.946 2 2.112 2h14.777C18.053 13 19 12.104 19 11V9H0v2z" fill="#393F8F"/><path d="M0 9h19V4H0v5z" fill="#F5F5F5"/><path d="M2.112 0h14.777C18.053 0 19 .896 19 2v2H0V2C0 .896.946 0 2.112 0z" fill="#FF4B55"/></g><defs><clipPath id="a"><path fill="#fff" transform="rotate(180 9.5 6.5)" d="M0 0h19v13H0z"/></clipPath></defs></symbol><symbol fill="none" id="sprite-flag-pl" viewBox="0 0 19 13"><title>flag-pl</title><g clip-path="url(#a)"><path d="M0 12.917c.057.05.127.083.207.083h18.465a.337.337 0 0 0 .328-.345V6.552H0v6.365z" fill="#FF4B55"/><path d="M0 .083A.313.313 0 0 1 .207 0h18.465c.181 0 .328.154.328.345v6.207H0V.083z" fill="#F5F5F5"/></g><defs><clipPath id="a"><path d="M0 2a2 2 0 0 1 2-2h15a2 2 0 0 1 2 2v9a2 2 0 0 1-2 2H2a2 2 0 0 1-2-2V2z" fill="#fff"/></clipPath></defs></symbol><symbol fill="none" id="sprite-flag-pt-br" viewBox="0 0 19 13"><title>flag-pt-br</title><path d="M19 2c0-1.104-.946-2-2.111-2H2.112C.946 0 0 .896 0 2v9c0 1.104.946 2 2.112 2h14.777C18.053 13 19 12.104 19 11V2z" fill="#009B3A"/><path d="M17.274 6.5 9.5.939 1.726 6.5 9.5 12.061 17.274 6.5z" fill="#FEDF01"/><path d="M12.896 6.539c0 1.782-1.526 3.227-3.407 3.227-1.882 0-3.407-1.445-3.407-3.227 0-1.783 1.525-3.227 3.407-3.227 1.881 0 3.406 1.444 3.406 3.227z" fill="#002776"/><path d="M6.48 8.054a3.156 3.156 0 0 1-.357-1.013c2.108.145 4.969-.945 6.197-2.299.212.303.371.64.464 1.002-1.51 1.406-4.175 2.317-6.305 2.31z" fill="#CBE9D4"/></symbol><symbol fill="none" id="sprite-flag-ru" viewBox="0 0 19 13"><title>flag-ru</title><g clip-path="url(#a)"><path d="M0 11c0 1.104.946 2 2.112 2h14.777C18.053 13 19 12.104 19 11V9H0v2z" fill="#CE2028"/><path d="M0 9h19V4H0v5z" fill="#22408C"/><path d="M2.112 0h14.777C18.053 0 19 .896 19 2v2H0V2C0 .896.946 0 2.112 0z" fill="#EEE"/></g><defs><clipPath id="a"><path fill="#fff" transform="rotate(180 9.5 6.5)" d="M0 0h19v13H0z"/></clipPath></defs></symbol><symbol fill="none" id="sprite-flag-tr" viewBox="0 0 19 13"><title>flag-tr</title><g clip-path="url(#a)"><path d="M18.378 0H.328L0 .412V12.33c0 .37.279.669.622.669h18.001l.377-.284V.668C19 .3 18.721 0 18.378 0z" fill="#FF4B55"/><path d="M7.467 9.3c-1.518 0-2.75-1.254-2.75-2.8 0-1.546 1.231-2.8 2.75-2.8A2.7 2.7 0 0 1 9 4.176 3.397 3.397 0 0 0 6.436 3C4.538 3 3 4.567 3 6.5S4.538 10 6.436 10C7.456 10 8.37 9.544 9 8.824a2.7 2.7 0 0 1-1.533.476z" fill="#fff"/><path d="m11.873 6.043-.84-.007-.412-.944a.126.126 0 0 0-.242 0l-.301.944-.95.007c-.124.001-.175.166-.076.242l.765.591-.287.949c-.037.123.097.224.197.15l.773-.58.773.58c.1.074.234-.027.197-.15l-.287-.949.765-.59c.099-.077.048-.242-.075-.243z" fill="#F2F2F6"/></g><defs><clipPath id="a"><path d="M19 11a2 2 0 0 1-2 2H2a2 2 0 0 1-2-2V2a2 2 0 0 1 2-2h15a2 2 0 0 1 2 2v9z" fill="#fff"/></clipPath></defs></symbol><symbol fill="none" id="sprite-flag-uk" viewBox="0 0 19 13"><title>flag-uk</title><g clip-path="url(#a)"><path d="M0 11c0 1.104.946 2 2.112 2h14.777C18.053 13 19 12.104 19 11V7H0v4z" fill="#FFEC0F"/><path d="M2.112 0h14.777C18.053 0 19 .896 19 2v5H0V2C0 .896.946 0 2.112 0z" fill="#5096BA"/></g><defs><clipPath id="a"><path fill="#fff" transform="rotate(180 9.5 6.5)" d="M0 0h19v13H0z"/></clipPath></defs></symbol><symbol fill="none" id="sprite-flag-zh-hans" viewBox="0 0 19 13"><title>flag-zh-hans</title><path d="M16.889 13H2.112C.946 13 0 12.104 0 11V2C0 .896.946 0 2.112 0h14.777C18.053 0 19 .896 19 2v9c0 1.104-.946 2-2.111 2z" fill="#DE2910"/><path d="m3.696 7.022.49-1.335 1.492-.029-1.188-.854.43-1.353-1.224.808-1.225-.808.43 1.353-1.187.854 1.492.029.49 1.335zm3.166 1.712.178-.344.4-.056-.289-.267.067-.38-.36.18-.36-.18.067.38-.29.267.401.056.186.344zm1.053-2 .179-.344.4-.057-.29-.267.068-.38-.36.18-.36-.18.067.38-.29.267.4.057.186.344zm0-2 .179-.345.4-.056-.29-.267.068-.38-.36.18-.36-.18.067.38-.29.267.4.056.186.345zM6.862 2.737l.178-.344.4-.057-.289-.267.067-.38-.36.18-.36-.18.067.38-.29.267.401.057.186.344z" fill="#FFDE02"/></symbol><symbol id="sprite-lightning" viewBox="0 0 10 14"><title>lightning</title><path d="M9.941 5.8a.489.489 0 0 0-.422-.266L6.393 5.51 7.298.59a.498.498 0 0 0-.27-.542.468.468 0 0 0-.576.144l-5.346 6.91a.489.489 0 0 0 .376.796l3.454.024-.928 5.499a.477.477 0 0 0 .458.578.473.473 0 0 0 .4-.217l5.04-7.476a.491.491 0 0 0 .035-.506z"/></symbol><symbol fill="none" id="sprite-logo-advcash" viewBox="0 0 12 11"><title>logo-advcash</title><path d="M8.602 8.57h-5.25L2.317 11H.307L5.032.5h1.92l4.74 10.5h-2.04l-1.05-2.43zm-.645-1.53-1.98-4.59-1.965 4.59h3.945z" fill="#569E5E"/></symbol><symbol fill="none" id="sprite-logo-amazon" viewBox="0 0 18 16"><title>logo-amazon</title><path d="M.033 12.416c.054-.085.141-.09.261-.016 2.727 1.547 5.695 2.32 8.902 2.32 2.138 0 4.25-.39 6.333-1.168a14.706 14.706 0 0 0 .458-.192c.164-.064.292-.032.385.096.092.128.062.245-.09.352a11.73 11.73 0 0 1-.753.48c-.938.544-1.986.965-3.142 1.264A13.516 13.516 0 0 1 9 16a13.368 13.368 0 0 1-8.902-3.328C.033 12.62 0 12.566 0 12.512a.17.17 0 0 1 .033-.096zm4.925-4.56c0-.736.186-1.365.556-1.888.371-.523.878-.918 1.522-1.184.589-.246 1.315-.422 2.176-.528a58.16 58.16 0 0 1 1.44-.128v-.273c0-.682-.076-1.14-.229-1.376-.229-.32-.589-.48-1.08-.48h-.13c-.36.032-.672.144-.933.336a1.31 1.31 0 0 0-.508.8c-.043.214-.153.336-.327.368L5.563 3.28c-.185-.043-.278-.14-.278-.289a.47.47 0 0 1 .016-.112c.186-.95.641-1.653 1.367-2.112C7.394.31 8.242.053 9.213 0h.409c1.243 0 2.214.315 2.912.944.11.107.21.222.303.344.093.122.166.232.221.328.055.096.104.234.147.416.044.181.077.306.099.376.022.069.038.218.049.448.01.23.016.365.016.408v3.872c0 .277.041.53.123.76.081.23.16.395.237.496.076.101.202.264.376.488a.474.474 0 0 1 .099.256c0 .085-.044.16-.131.224L12.6 10.608c-.131.096-.29.106-.475.032a5.515 5.515 0 0 1-.4-.368 12.916 12.916 0 0 1-.246-.256 3.615 3.615 0 0 1-.237-.312 6.853 6.853 0 0 0-.23-.312c-.61.65-1.21 1.056-1.8 1.216-.37.107-.828.16-1.374.16-.84 0-1.53-.253-2.07-.76-.54-.507-.81-1.224-.81-2.152zm2.815-.32c0 .416.106.75.319 1 .212.25.499.376.859.376a.826.826 0 0 0 .139-.016c.06-.01.1-.016.122-.016.459-.117.813-.405 1.064-.864.12-.202.21-.424.27-.664.06-.24.093-.434.098-.584.006-.149.009-.394.009-.736v-.4c-.633 0-1.113.043-1.44.129-.96.266-1.44.858-1.44 1.775zm6.872 5.152a.502.502 0 0 1 .099-.128 2.59 2.59 0 0 1 .785-.368 5.45 5.45 0 0 1 1.211-.176c.11-.01.213-.005.311.016.491.043.785.123.884.24.044.064.065.16.065.288v.112c0 .374-.104.814-.311 1.32-.207.507-.496.915-.867 1.224-.055.043-.104.064-.148.064a.147.147 0 0 1-.065-.016c-.065-.032-.082-.09-.049-.176.404-.928.605-1.573.605-1.936 0-.117-.022-.202-.065-.256-.11-.128-.415-.192-.916-.192-.186 0-.404.01-.655.032-.273.032-.524.064-.753.096-.065 0-.109-.01-.13-.032-.023-.021-.028-.043-.017-.064 0-.01.006-.026.016-.048z" fill="#F90"/></symbol><symbol fill="none" id="sprite-logo-bank-cards" viewBox="0 0 17 12"><title>logo-bank-cards</title><path d="M16.062 12H.938C.41 12 0 11.6 0 11.086V.914C0 .4.41 0 .938 0h15.124c.528 0 .938.4.938.914v10.172c0 .514-.41.914-.938.914z" fill="#8798CC"/><path d="M17 1.429H0v2.285h17V1.43z" fill="#556180"/><path d="M4.397 5.143H1.759c-.176 0-.293.114-.293.286 0 .171.117.285.293.285h2.638c.175 0 .293-.114.293-.285 0-.172-.118-.286-.293-.286zm4.103.286c0-.172-.117-.286-.293-.286H5.569c-.176 0-.293.114-.293.286 0 .171.117.285.293.285h2.638c.176 0 .293-.114.293-.285zM2.052 6.571h-.293c-.176 0-.293.115-.293.286 0 .171.117.286.293.286h.293c.176 0 .293-.115.293-.286 0-.171-.117-.286-.293-.286zm1.758 0h-.586c-.176 0-.293.115-.293.286 0 .171.117.286.293.286h.586c.176 0 .293-.115.293-.286 0-.171-.117-.286-.293-.286zm1.466 0h-.293c-.176 0-.293.115-.293.286 0 .171.117.286.293.286h.293c.176 0 .293-.115.293-.286 0-.171-.117-.286-.293-.286zm1.759 0h-.587c-.176 0-.293.115-.293.286 0 .171.117.286.293.286h.587c.175 0 .293-.115.293-.286 0-.171-.118-.286-.293-.286zm.967.086a.256.256 0 0 0-.088.2c0 .086.03.143.088.2a.27.27 0 0 0 .205.086.27.27 0 0 0 .205-.086.305.305 0 0 0 .088-.2.256.256 0 0 0-.088-.2.288.288 0 0 0-.41 0z" fill="#B0D3F0"/><path d="M15.241 7.429h-4.69v2.857h4.69V7.429z" fill="#91BAE1"/></symbol><symbol fill="none" id="sprite-logo-btc" viewBox="0 0 10 15"><title>logo-btc</title><path d="M9.607 7.868c-.32-.452-.807-.761-1.457-.928.828-.458 1.189-1.232 1.09-2.327a2.414 2.414 0 0 0-.303-1.033c-.17-.29-.4-.527-.688-.704a3.59 3.59 0 0 0-.94-.404 6.926 6.926 0 0 0-1.166-.202V0H4.862v2.207c-.222 0-.56.006-1.014.019V0H2.566v2.27c-.183.006-.451.01-.807.01L0 2.27v1.478h.923c.423 0 .667.205.74.612v2.586c.056 0 .1.003.134.01h-.134v3.624c-.043.306-.204.46-.483.46H.26L0 12.693h1.663c.105 0 .257 0 .458.003.2.003.35.003.448.003v2.299h1.282v-2.27c.233.006.57.01 1.014.01V15h1.281v-2.299c.455-.025.86-.069 1.21-.135.352-.067.69-.17 1.01-.313a2.7 2.7 0 0 0 .807-.527 2.48 2.48 0 0 0 .536-.802c.14-.325.23-.7.27-1.127.073-.834-.052-1.478-.372-1.93zm-5.733-4.02.33-.002.448-.01c.12-.003.28.003.483.022.201.02.373.041.513.073.14.031.291.079.457.148.166.07.3.155.4.253a1.26 1.26 0 0 1 .358.906c0 .167-.026.322-.076.46a.88.88 0 0 1-.224.348 2.2 2.2 0 0 1-.309.243c-.105.07-.239.123-.402.168a6.821 6.821 0 0 1-.428.097 3.125 3.125 0 0 1-.458.05 7.773 7.773 0 0 1-.804.019l-.288-.002V3.849zm3.499 6.138c-.053.14-.12.26-.204.36a1.211 1.211 0 0 1-.33.272 2.609 2.609 0 0 1-.856.316 6.013 6.013 0 0 1-.961.11c-.19.01-.335.013-.44.013-.105 0-.239-.004-.4-.004-.16-.003-.261-.003-.308-.003V8.004c.044 0 .175-.004.396-.01a7.864 7.864 0 0 1 1.11.019c.245.019.449.044.615.082.166.035.346.092.544.167.199.076.356.168.478.275.123.107.224.246.309.414.084.167.125.36.125.578 0 .167-.026.322-.078.457z" fill="#FC0"/></symbol><symbol preserveAspectRatio="xMidYMid" id="sprite-logo-eth" viewBox="0 0 256 417"><title>logo-eth</title><path fill="#343434" d="m127.961 0-2.795 9.5v275.668l2.795 2.79 127.962-75.638z"/><path fill="#8C8C8C" d="M127.962 0 0 212.32l127.962 75.639V154.158z"/><path fill="#3C3C3B" d="m127.961 312.187-1.575 1.92v98.199l1.575 4.6L256 236.587z"/><path fill="#8C8C8C" d="M127.962 416.905v-104.72L0 236.585z"/><path fill="#141414" d="m127.961 287.958 127.96-75.637-127.96-58.162z"/><path fill="#393939" d="m0 212.32 127.96 75.638v-133.8z"/></symbol><symbol style="enable-background:new 0 0 96.124 96.123" id="sprite-logo-facebook" viewBox="0 0 96.124 96.123"><title>logo-facebook</title><path d="M72.089.02 59.624 0C45.62 0 36.57 9.285 36.57 23.656v10.907H24.037a1.96 1.96 0 0 0-1.96 1.961v15.803a1.96 1.96 0 0 0 1.96 1.96H36.57v39.876a1.96 1.96 0 0 0 1.96 1.96h16.352a1.96 1.96 0 0 0 1.96-1.96V54.287h14.654a1.96 1.96 0 0 0 1.96-1.96l.006-15.803a1.963 1.963 0 0 0-1.961-1.961H56.842v-9.246c0-4.444 1.059-6.7 6.848-6.7l8.397-.003a1.96 1.96 0 0 0 1.959-1.96V1.98A1.96 1.96 0 0 0 72.089.02z"/></symbol><symbol style="enable-background:new 0 0 169.063 169.063" id="sprite-logo-instagram" viewBox="0 0 169.063 169.063"><title>logo-instagram</title><path d="M122.406 0H46.654C20.929 0 0 20.93 0 46.655v75.752c0 25.726 20.929 46.655 46.654 46.655h75.752c25.727 0 46.656-20.93 46.656-46.655V46.655C169.063 20.93 148.133 0 122.406 0zm31.657 122.407c0 17.455-14.201 31.655-31.656 31.655H46.654C29.2 154.063 15 139.862 15 122.407V46.655C15 29.201 29.2 15 46.654 15h75.752c17.455 0 31.656 14.201 31.656 31.655v75.752z"/><path d="M84.531 40.97c-24.021 0-43.563 19.542-43.563 43.563 0 24.02 19.542 43.561 43.563 43.561s43.563-19.541 43.563-43.561c0-24.021-19.542-43.563-43.563-43.563zm0 72.123c-15.749 0-28.563-12.812-28.563-28.561 0-15.75 12.813-28.563 28.563-28.563s28.563 12.813 28.563 28.563c0 15.749-12.814 28.561-28.563 28.561zm45.39-84.842c-2.89 0-5.729 1.17-7.77 3.22a11.053 11.053 0 0 0-3.23 7.78c0 2.891 1.18 5.73 3.23 7.78 2.04 2.04 4.88 3.22 7.77 3.22 2.9 0 5.73-1.18 7.78-3.22 2.05-2.05 3.22-4.89 3.22-7.78 0-2.9-1.17-5.74-3.22-7.78-2.04-2.05-4.88-3.22-7.78-3.22z"/></symbol><symbol fill="none" id="sprite-logo-kryptex" viewBox="0 0 33 24"><title>logo-kryptex</title><path d="M31.808 7.779a.525.525 0 0 0 .275-.475c-.091.19-.183.38-.275.475z" fill="#1CA3FF"/><path d="M31.992 7.304c0-.19-.092-.284-.275-.38l-1.009-.284-.916-.284-3.759-.949h-.183L18.517 3.51l-5.775 10.15-.092.19-2.475 4.363 2.75 2.751L31.808 7.78a.738.738 0 0 0 .184-.475z" fill="#1CA3FF"/><path d="M31.992 7.304c0-.19-.092-.284-.275-.38l-1.009-.284-.916-.284-3.759-.949h-.183L18.517 3.51l-5.775 10.15-.092.19-2.475 4.363 2.75 2.751L31.808 7.78a.738.738 0 0 0 .184-.475z" fill="#1CA3FF"/><path d="M32.267 5.407 27.133.474C26.767.19 26.4 0 26.033 0h-5.591l-1.925 3.415 7.333 1.897h.183l3.759.949.916.284 1.009.285c.183 0 .275.19.275.38s-.092.379-.275.474l-18.975 13.28 2.383 2.372c.367.38.917.57 1.375.57.367 0 .825-.096 1.192-.38.091-.095.275-.19.366-.285L32.45 8.443c.367-.38.55-.854.55-1.328 0-.664-.275-1.328-.733-1.708z" fill="#1CA3FF"/><path d="M32.267 5.407 27.133.474C26.767.19 26.4 0 26.033 0h-5.591l-1.925 3.415 7.333 1.897h.183l3.759.949.916.284 1.009.285c.183 0 .275.19.275.38s-.092.379-.275.474l-18.975 13.28 2.383 2.372c.367.38.917.57 1.375.57.367 0 .825-.096 1.192-.38.091-.095.275-.19.366-.285L32.45 8.443c.367-.38.55-.854.55-1.328 0-.664-.275-1.328-.733-1.708zM18.425 3.415 6.967.19 6.508.095c-.275.095-.458.19-.641.38L.733 5.406C.275 5.787 0 6.451 0 7.115c0 .474.183.948.55 1.328l7.242 7.399 4.766-2.087.092-.19 5.775-10.15z" fill="#1CA3FF"/><path d="M18.425 3.415 6.967.19 6.508.095c-.275.095-.458.19-.641.38L.733 5.406C.275 5.787 0 6.451 0 7.115c0 .474.183.948.55 1.328l7.242 7.399 4.766-2.087.092-.19 5.775-10.15z" fill="#1CA3FF"/><path d="m6.967.19 11.458 3.225L20.442 0H6.692c-.092 0-.184 0-.184.095l.459.095z" fill="#1CA3FF"/></symbol><symbol fill="none" id="sprite-logo-qiwi" viewBox="0 0 16 16"><title>logo-qiwi</title><path d="M12.174 9.953c-.13-.044-.246-.015-.289.088-.072.146-.014.424.13.658.159.25.29.366.39.366.101 0 .188-.131.145-.439-.015-.175-.116-.57-.376-.673zm-1.547 1.157c-.144 0-.26.043-.332.131-.188.234-.101.63.174.878a.762.762 0 0 0 .476.176.543.543 0 0 0 .42-.19c.159-.22.072-.542-.246-.805a.796.796 0 0 0-.492-.19z" fill="#F90"/><path d="M15.223 15.544c-1.575-2.005-3.02-2.385-4.465-2.707-1.778-.396-2.689-1.406-3.325-2.518-.13-.22-.187-.176-.187.102-.015.352.014.806.086 1.26h-.217c-2.529 0-4.596-2.08-4.596-4.655 0-2.562 2.053-4.655 4.596-4.655 2.53 0 4.596 2.079 4.596 4.655a7 7 0 0 1-.028.541c-.333-.058-.998-.073-1.46-.029-.174.015-.145.102-.015.117 1.518.278 2.559 1.23 2.804 2.957 0 .044.058.058.072.014a7.078 7.078 0 0 0 .983-3.615C14.053 3.147 10.945 0 7.115 0S.164 3.147.164 7.04c0 3.88 3.107 7.04 6.951 7.04 1.012 0 2.024-.204 3.512-.204 1.33 0 2.775.468 4.38 1.903.144.131.361-.044.216-.235z" fill="#F90"/></symbol><symbol style="enable-background:new 0 0 430.117 430.117" id="sprite-logo-reddit" viewBox="0 0 430.117 430.117"><title>logo-reddit</title><path d="M307.523 231.062c1.11 2.838 1.614 5.769 1.614 8.681 0 5.862-2.025 11.556-5.423 16.204-3.36 4.593-8.121 8.158-13.722 9.727h.01c-.047.019-.094.019-.117.037-.023 0-.061.019-.079.019a24.626 24.626 0 0 1-7.98 1.316c-6.254 0-12.396-2.254-17.306-6.096-4.872-3.826-8.56-9.324-9.717-15.845h-.01c0-.019 0-.042-.009-.069 0-.019 0-.038-.019-.065h.019a23.713 23.713 0 0 1-.551-5.021c0-5.647 1.923-11.07 5.097-15.551 3.164-4.453 7.626-7.99 12.848-9.811.019 0 .038-.01.038-.01.027 0 .027-.027.051-.027a26.476 26.476 0 0 1 9.157-1.639c5.619 0 11.154 1.704 15.821 4.821 4.611 3.066 8.354 7.561 10.23 13.143.019.037.019.07.037.103 0 .037.019.057.037.084h-.026zm-17.194 69.287c-2.202-1.428-4.751-2.291-7.448-2.291a11.66 11.66 0 0 0-6.445 1.955c-19.004 11.342-41.355 17.558-63.547 17.558-16.65 0-33.199-3.514-48.192-10.879l-.077-.037-.075-.028c-2.261-.924-4.837-2.889-7.647-4.76-1.428-.925-2.919-1.844-4.574-2.521-1.633-.695-3.447-1.181-5.386-1.181-1.605 0-3.292.359-4.957 1.115l-.252.098h.009a12.002 12.002 0 0 0-5.974 4.994c-1.372 2.23-2.046 4.826-2.046 7.411 0 2.334.551 4.667 1.691 6.786a12.163 12.163 0 0 0 4.938 4.938c21.429 14.454 46.662 21.002 71.992 20.979 22.838 0 45.814-5.287 66.27-14.911l.107-.065.103-.056c2.697-1.597 6.282-3.029 9.661-5.115 1.671-1.064 3.304-2.296 4.704-3.897a14.706 14.706 0 0 0 3.16-5.875v-.01c.266-1.026.392-2.025.392-3.024 0-1.899-.467-3.701-1.241-5.32-1.134-2.438-2.991-4.435-5.166-5.864zm-150.454-34.76c.037 0 .086.014.128.037a24.302 24.302 0 0 0 8.345 1.493c6.963 0 13.73-2.852 18.853-7.5 5.115-4.662 8.618-11.257 8.618-18.775 0-.196 0-.392-.009-.625.019-.336.028-.705.028-1.083 0-7.458-3.456-14.08-8.522-18.762-5.085-4.686-11.836-7.551-18.825-7.551-1.867 0-3.769.219-5.628.653-.028 0-.049.009-.077.009h-.028c-9.252 1.937-17.373 8.803-20.37 18.248v.01c0 .019-.009.037-.009.037a24.974 24.974 0 0 0-1.262 7.896c0 5.787 1.913 11.426 5.211 16.064 3.269 4.56 7.894 8.145 13.448 9.819.04.002.059.012.099.03zm290.158-67.495v.038c.066.94.084 1.878.084 2.81 0 10.447-3.351 20.493-8.941 29.016-5.218 7.976-12.414 14.649-20.703 19.177.532 4.158.84 8.349.84 12.526-.01 22.495-7.766 44.607-21.272 62.329v.009h-.028c-24.969 33.216-63.313 52.804-102.031 62.684h-.01l-.027.023a268.397 268.397 0 0 1-63.223 7.574c-31.729 0-63.433-5.722-93.018-17.585l-.009-.028h-.028c-30.672-12.643-59.897-32.739-77.819-62.184-9.642-15.71-14.935-34.141-14.935-52.659 0-4.19.283-8.387.843-12.536a60.094 60.094 0 0 1-20.255-18.687c-5.542-8.266-9.056-17.95-9.5-28.187v-.159c.009-14.337 6.237-27.918 15.915-37.932 9.677-10.011 22.896-16.554 37.075-16.554h.588a66.294 66.294 0 0 1 4.488-.159c7.122 0 14.26 1.153 21.039 3.752l.037.028.038.012c5.787 2.437 11.537 5.377 16.662 9.449 1.661-.871 3.472-1.851 5.504-2.625 31.064-18.395 67.171-25.491 102.358-27.538.306-17.431 2.448-35.68 10.949-51.65 7.08-13.269 19.369-23.599 34-27.179l.061-.03.079-.009c5.573-1.078 11.192-1.575 16.774-1.575 14.869 0 29.561 3.521 43.31 9.017 6.086-9.185 14.776-16.354 24.97-20.375l.098-.056.098-.037c5.983-1.864 12.303-2.954 18.646-2.954 6.692 0 13.437 1.223 19.756 4.046v-.023c.009.023.019.023.019.023.047.016.084.044.116.044 9.059 3.489 16.727 9.937 22.164 17.95 5.442 8.048 8.644 17.688 8.644 27.599 0 1.827-.103 3.657-.317 5.489l-.019.037c0 .028 0 .068-.01.096-1.063 12.809-7.551 24.047-16.736 32.063-9.24 8.048-21.207 12.909-33.49 12.909-1.97 0-3.958-.11-5.937-.374-12.182-.931-23.541-6.826-31.886-15.595-8.373-8.755-13.768-20.453-13.768-33.08 0-.611.056-1.237.074-1.843-11.435-5.092-23.578-9.316-35.646-9.306-1.746 0-3.491.096-5.237.273h-.019c-9.035.871-17.436 6.566-21.506 14.757v.037c-6.179 12.034-7.411 26.101-7.598 40.064 34.639 2.259 69.483 10.571 100.043 28.138h.047l.438.259c.579.343 1.652.931 2.623 1.449 2.101-1.704 4.322-3.456 6.856-4.966 9.264-6.17 20.241-9.238 31.223-9.238 4.872 0 9.749.621 14.481 1.834h.019l.196.058c.07.01.121.033.178.033v.009c11.183 2.845 21.3 9.267 28.917 17.927 7.612 8.674 12.731 19.648 13.73 31.561v.025h-.012zM328.002 84.733c0 .469.01.95.057 1.44v.084c.224 6.018 3.065 11.619 7.383 15.756 4.34 4.14 10.1 6.702 15.942 6.725h.159c.42.033.85.033 1.26.033 5.899.009 11.752-2.532 16.148-6.655 4.405-4.144 7.309-9.78 7.542-15.849l.009-.028v-.037c.038-.464.057-.903.057-1.377 0-6.247-2.922-12.202-7.496-16.612-4.555-4.406-10.688-7.136-16.735-7.12-1.951 0-3.884.266-5.778.854l-.065.005-.056.023c-4.984 1.295-9.656 4.368-13.012 8.449-3.371 4.062-5.415 9.084-5.415 14.309zm-255.69 92.845c-4.63-2.156-9.418-3.696-14.15-3.676-.794 0-1.597.047-2.39.133h-.11l-.11.014c-6.795.187-13.653 3.15-18.801 7.899-5.152 4.732-8.559 11.122-8.821 18.167v.065l-.012.058a21 21 0 0 0-.065 1.683c0 4.345 1.333 8.545 3.593 12.368 1.673 2.847 3.867 5.441 6.348 7.701 7.941-17.388 20.348-32.145 34.518-44.412zm301.754 85.057c0-15.5-5.592-31.069-14.646-43.604-18.053-25.119-46.055-41.502-75.187-50.636l-.205-.072a239.667 239.667 0 0 0-16.933-4.534c-17.025-3.876-34.48-5.806-51.917-5.806-23.414 0-46.827 3.465-69.245 10.379-29.125 9.243-57.221 25.51-75.233 50.71v.019c-9.129 12.587-14.475 28.208-14.475 43.763 0 5.727.716 11.453 2.23 17.025l.019.01c3.278 12.508 9.689 23.671 17.989 33.393 8.295 9.745 18.472 18.058 29.176 24.839 2.371 1.47 4.751 2.87 7.187 4.237 31.094 17.356 66.898 24.964 102.445 24.964 6.012 0 12.06-.214 18.033-.644 35.797-2.959 71.742-13.525 100.8-35.115l.01-.023c9.25-6.837 17.818-15.112 24.595-24.525 6.805-9.418 11.789-19.947 14.002-31.382v-.033l.009-.01a62.283 62.283 0 0 0 1.346-12.955zm28.254-61.685c-.009-3.762-.868-7.507-2.753-11l-.047-.044-.019-.056c-2.521-5.19-6.479-9.11-11.248-11.782-4.77-2.69-10.352-4.056-15.952-4.056-5.063 0-10.1 1.132-14.57 3.379 14.216 12.344 26.687 27.179 34.746 44.636a29.093 29.093 0 0 0 6.464-8.084c2.157-4.023 3.379-8.538 3.379-12.993z"/></symbol><symbol fill="none" id="sprite-logo-russian-banks" viewBox="0 0 17 16"><title>logo-russian-banks</title><path d="M1.736 14.456a.764.764 0 0 0-.76.76.79.79 0 0 0 .76.759h13.528c.434 0 .76-.362.76-.76a.79.79 0 0 0-.76-.76h-.181v-6.98h.18c.218 0 .399-.18.399-.398a.401.401 0 0 0-.398-.398H1.736a.401.401 0 0 0-.398.398c0 .217.181.398.398.398h.181v6.945l-.18.036zm11.792-6.981v6.945h-2.315V7.475h2.315zm-3.87 0v6.945H7.342V7.475h2.314zm-6.186 0h2.315v6.945H3.472V7.475z" fill="#8798CC"/><path d="M.76 6.028h15.444c.434 0 .76-.362.76-.76a.787.787 0 0 0-.506-.723L8.825 1.073a.692.692 0 0 0-.651 0L.47 4.545a.778.778 0 0 0-.434.868c.073.362.362.615.724.615z" fill="#556180"/></symbol><symbol fill="none" id="sprite-logo-steam" viewBox="0 0 18 18"><title>logo-steam</title><path d="M.37 11.625A9.012 9.012 0 0 0 8.99 18C13.966 18 18 13.97 18 9s-4.034-9-9.01-9A9.008 9.008 0 0 0 0 8.402l.004.007v-.002l4.841 1.991a2.49 2.49 0 0 1 .422-.222c.34-.14.698-.203 1.055-.186l2.205-3.2v-.044a3.427 3.427 0 0 1 3.421-3.424 3.426 3.426 0 0 1 3.422 3.424 3.428 3.428 0 0 1-3.499 3.424l-3.155 2.252a2.5 2.5 0 0 1-3.46 2.373 2.494 2.494 0 0 1-1.475-1.764L.37 11.625z" fill="#111D2E"/><path d="M5.476 14.268A1.93 1.93 0 0 0 8 11.753a1.918 1.918 0 0 0-2.462-1.068l1.152.477a1.42 1.42 0 1 1-1.092 2.621l-1.114-.46c.197.411.54.756.992.945z" fill="#111D2E"/><path fill-rule="evenodd" clip-rule="evenodd" d="M9.668 6.746a2.284 2.284 0 0 0 2.28 2.282 2.284 2.284 0 0 0 2.281-2.282 2.284 2.284 0 0 0-2.28-2.281 2.284 2.284 0 0 0-2.28 2.28zm2.284-1.718a1.714 1.714 0 1 0 .003 3.428 1.714 1.714 0 0 0-.003-3.428z" fill="#111D2E"/></symbol><symbol style="enable-background:new 0 0 300 300" id="sprite-logo-telegram" viewBox="0 0 300 300"><title>logo-telegram</title><path d="m5.299 144.645 69.126 25.8 26.756 86.047c1.712 5.511 8.451 7.548 12.924 3.891l38.532-31.412a11.496 11.496 0 0 1 14.013-.391l69.498 50.457c4.785 3.478 11.564.856 12.764-4.926L299.823 29.22c1.31-6.316-4.896-11.585-10.91-9.259L5.218 129.402c-7.001 2.7-6.94 12.612.081 15.243zm91.57 12.066 135.098-83.207c2.428-1.491 4.926 1.792 2.841 3.726L123.313 180.87a23.112 23.112 0 0 0-7.163 13.829l-3.798 28.146c-.503 3.758-5.782 4.131-6.819.494l-14.607-51.325c-1.673-5.854.765-12.107 5.943-15.303z"/></symbol><symbol style="enable-background:new 0 0 612 612" id="sprite-logo-twitter" viewBox="0 0 612 612"><title>logo-twitter</title><path d="M612 116.258a250.714 250.714 0 0 1-72.088 19.772c25.929-15.527 45.777-40.155 55.184-69.411-24.322 14.379-51.169 24.82-79.775 30.48-22.907-24.437-55.49-39.658-91.63-39.658-69.334 0-125.551 56.217-125.551 125.513 0 9.828 1.109 19.427 3.251 28.606-104.326-5.24-196.835-55.223-258.75-131.174-10.823 18.51-16.98 40.078-16.98 63.101 0 43.559 22.181 81.993 55.835 104.479a125.556 125.556 0 0 1-56.867-15.756v1.568c0 60.806 43.291 111.554 100.693 123.104-10.517 2.83-21.607 4.398-33.08 4.398-8.107 0-15.947-.803-23.634-2.333 15.985 49.907 62.336 86.199 117.253 87.194-42.947 33.654-97.099 53.655-155.916 53.655-10.134 0-20.116-.612-29.944-1.721 55.567 35.681 121.536 56.485 192.438 56.485 230.948 0 357.188-191.291 357.188-357.188l-.421-16.253c24.666-17.593 46.005-39.697 62.794-64.861z"/></symbol><symbol fill="none" id="sprite-logo-unionpay" viewBox="0 0 14 12"><title>logo-unionpay</title><rect width="6" height="12" rx="3" fill="#FF3838"/><rect x="4" width="6" height="12" rx="3" fill="#385BB6"/><rect x="8" width="6" height="12" rx="3" fill="#289E9E"/></symbol><symbol style="enable-background:new 0 0 548.358 548.358" id="sprite-logo-vk" viewBox="0 0 548.358 548.358"><title>logo-vk</title><path d="M545.451 400.298c-.664-1.431-1.283-2.618-1.858-3.569-9.514-17.135-27.695-38.167-54.532-63.102l-.567-.571-.284-.28-.287-.287h-.288c-12.18-11.611-19.893-19.418-23.123-23.415-5.91-7.614-7.234-15.321-4.004-23.13 2.282-5.9 10.854-18.36 25.696-37.397 7.807-10.089 13.99-18.175 18.556-24.267 32.931-43.78 47.208-71.756 42.828-83.939l-1.701-2.847c-1.143-1.714-4.093-3.282-8.846-4.712-4.764-1.427-10.853-1.663-18.278-.712l-82.224.568c-1.332-.472-3.234-.428-5.712.144l-3.713.859-1.431.715-1.136.859c-.952.568-1.999 1.567-3.142 2.995-1.137 1.423-2.088 3.093-2.848 4.996-8.952 23.031-19.13 44.444-30.553 64.238-7.043 11.803-13.511 22.032-19.418 30.693-5.899 8.658-10.848 15.037-14.842 19.126-4 4.093-7.61 7.372-10.852 9.849-3.237 2.478-5.708 3.525-7.419 3.142-1.715-.383-3.33-.763-4.859-1.143-2.663-1.714-4.805-4.045-6.42-6.995-1.622-2.95-2.714-6.663-3.285-11.136-.568-4.476-.904-8.326-1-11.563-.089-3.233-.048-7.806.145-13.706.198-5.903.287-9.897.287-11.991 0-7.234.141-15.085.424-23.555.288-8.47.521-15.181.716-20.125.194-4.949.284-10.185.284-15.705s-.336-9.849-1-12.991a44.442 44.442 0 0 0-2.99-9.137c-1.335-2.95-3.289-5.232-5.853-6.852-2.569-1.618-5.763-2.902-9.564-3.856-10.089-2.283-22.936-3.518-38.547-3.71-35.401-.38-58.148 1.906-68.236 6.855-3.997 2.091-7.614 4.948-10.848 8.562-3.427 4.189-3.905 6.475-1.431 6.851 11.422 1.711 19.508 5.804 24.267 12.275l1.715 3.429c1.334 2.474 2.666 6.854 3.999 13.134 1.331 6.28 2.19 13.227 2.568 20.837.95 13.897.95 25.793 0 35.689-.953 9.9-1.853 17.607-2.712 23.127-.859 5.52-2.143 9.993-3.855 13.418-1.715 3.426-2.856 5.52-3.428 6.28-.571.76-1.047 1.239-1.425 1.427a21.387 21.387 0 0 1-7.71 1.431c-2.667 0-5.901-1.334-9.707-4-3.805-2.666-7.754-6.328-11.847-10.992-4.093-4.665-8.709-11.184-13.85-19.558-5.137-8.374-10.467-18.271-15.987-29.691l-4.567-8.282c-2.855-5.328-6.755-13.086-11.704-23.267-4.952-10.185-9.329-20.037-13.134-29.554-1.521-3.997-3.806-7.04-6.851-9.134l-1.429-.859c-.95-.76-2.475-1.567-4.567-2.427a30.301 30.301 0 0 0-6.567-1.854l-78.229.568c-7.994 0-13.418 1.811-16.274 5.428l-1.143 1.711c-.571.953-.859 2.475-.859 4.57 0 2.094.571 4.664 1.714 7.707 11.42 26.84 23.839 52.725 37.257 77.659 13.418 24.934 25.078 45.019 34.973 60.237 9.897 15.229 19.985 29.602 30.264 43.112 10.279 13.515 17.083 22.176 20.412 25.981 3.333 3.812 5.951 6.662 7.854 8.565l7.139 6.851c4.568 4.569 11.276 10.041 20.127 16.416 8.853 6.379 18.654 12.659 29.408 18.85 10.756 6.181 23.269 11.225 37.546 15.126 14.275 3.905 28.169 5.472 41.684 4.716h32.834c6.659-.575 11.704-2.669 15.133-6.283l1.136-1.431c.764-1.136 1.479-2.901 2.139-5.276.668-2.379 1-5 1-7.851-.195-8.183.428-15.558 1.852-22.124 1.423-6.564 3.045-11.513 4.859-14.846 1.813-3.33 3.859-6.14 6.136-8.418 2.282-2.283 3.908-3.666 4.862-4.142.948-.479 1.705-.804 2.276-.999 4.568-1.522 9.944-.048 16.136 4.429 6.187 4.473 11.99 9.996 17.418 16.56 5.425 6.57 11.943 13.941 19.555 22.124 7.617 8.186 14.277 14.271 19.985 18.274l5.708 3.426c3.812 2.286 8.761 4.38 14.853 6.283 6.081 1.902 11.409 2.378 15.984 1.427l73.087-1.14c7.229 0 12.854-1.197 16.844-3.572 3.998-2.379 6.373-5 7.139-7.851.764-2.854.805-6.092.145-9.712-.677-3.611-1.344-6.136-2.008-7.563z"/></symbol><symbol fill="none" id="sprite-logo-webmoney" viewBox="0 0 17 18"><title>logo-webmoney</title><path d="m13.332 8.413-1.529 1.392 1.382 1.541 1.529-1.392-1.382-1.54zm-2.977 1.281-2.01 1.823 1.81 2.026 2.01-1.823-1.81-2.026zm5.618-1.724-.957.869.862.964.957-.87-.862-.963zm-5.314-5.78L9.127 3.58l1.379 1.543 1.531-1.39-1.379-1.542zm4.052 2.787-.955.87.863.963.956-.87-.864-.963zM8.94 6.18 6.93 8.005l1.81 2.025 2.01-1.823-1.81-2.025zM7.486 2.676l-2.01 1.823 1.81 2.025 2.01-1.823-1.81-2.025zm4.617 2.596-1.53 1.391 1.381 1.542 1.53-1.392-1.38-1.54zm1.335-3.288-.957.869.862.964.957-.87-.862-.963zm1.318 9.473-1.531 1.39 1.38 1.543 1.53-1.39-1.38-1.543z" fill="#006CB4"/><path d="m11.977 13.237-1.931 1.816-3.349-3.763 1.03-.778L5.41 7.915l.902-.779-2.447-2.725 3.734-3.374 1.16 1.298 1.93-1.816 1.16 1.168.772-.649c-.129 0-.257-.13-.515-.13C11.076.26 9.788 0 8.5 0 3.864 0 0 3.893 0 8.565s3.864 8.565 8.5 8.565c1.546 0 2.962-.39 4.121-1.168l1.16-.779-1.804-1.946z" fill="#006CB4"/></symbol><symbol fill="none" id="sprite-logo-yandex-ru" viewBox="0 0 9 16"><title>logo-yandex-ru</title><path d="M6.336 9.788v5.362H8.15V.85H5.712c-1.16 0-2.235.375-3.02 1.143-.787.77-1.27 1.92-1.27 3.442 0 1.063.215 1.893.597 2.542.357.606.856 1.044 1.443 1.364L.864 14.937l-.099.213H2.88l.04-.088 2.384-5.274h1.032zm-.658-7.38h.658V8.23h-.658c-.63 0-1.19-.174-1.595-.6-.406-.425-.678-1.127-.678-2.23 0-1.15.288-1.895.705-2.351.416-.455.977-.642 1.568-.642z" fill="red" stroke="red" stroke-width=".3"/></symbol><symbol fill="none" id="sprite-logo-yandex" viewBox="0 0 15 19"><title>logo-yandex</title><path fill-rule="evenodd" clip-rule="evenodd" d="M3.32 5.164C5.46 3.462 7.567 1.725 9.685 0v7.787c-.023 1.5 0 3-.012 4.502-1.259.898-2.53 1.784-3.789 2.67-1.122.792-2.243 1.572-3.354 2.363-.24.177-.503.343-.744.532.4-.095.79-.26 1.19-.39 2.908-.969 5.816-1.95 8.724-2.93.091-.012.091-.107.091-.178V7.775c.733.012 1.477 0 2.22 0v11.213H1.34c-.687 0-1.305-.614-1.317-1.323V9.31c-.011-.402.035-.827.218-1.193.229-.497.618-.898 1.007-1.265.641-.59 1.374-1.11 2.072-1.69z" fill="#FC0"/><path fill-rule="evenodd" clip-rule="evenodd" d="M9.684 7.787c.699 0 1.397-.012 2.095 0v6.581c0 .07 0 .177-.091.177a2498.6 2498.6 0 0 0-8.723 2.93c-.4.13-.779.284-1.19.39.228-.2.491-.354.743-.531 1.122-.792 2.244-1.572 3.354-2.363 1.26-.898 2.53-1.773 3.79-2.67.022-1.513 0-3.014.022-4.514z" fill="#D6AB05"/><path fill-rule="evenodd" clip-rule="evenodd" d="M6.914 6.971c-.584.142-1.053.662-1.225 1.253-.08.272-.08.603.08.839.15.224.435.307.687.26.4-.071.744-.331.985-.662.217-.283.366-.65.343-1.016a.712.712 0 0 0-.24-.555c-.16-.142-.412-.154-.63-.119z" fill="#2B2A29"/></symbol><symbol fill="none" id="sprite-logo-yoomoney" viewBox="0 0 24 24"><title>logo-yoomoney</title><path d="M15 5c-3.906 0-7 3.145-7 7s3.145 7 7 7 7-3.145 7-7c.05-3.855-3.145-7-7-7zm0 9.587c-1.42 0-2.638-1.167-2.638-2.587 0-1.42 1.167-2.587 2.638-2.587 1.47 0 2.637 1.167 2.637 2.587-.05 1.42-1.166 2.587-2.637 2.587zM8 8v9H5.375L2 8h6z" fill="#8B3FFD"/></symbol><symbol id="sprite-logo-youtube" viewBox="0 0 512 359"><title>logo-youtube</title><path fill-rule="evenodd" clip-rule="evenodd" d="M456.326 10.966c21.93 5.906 39.223 23.195 45.125 45.128 10.969 40.063 10.547 123.57 10.547 123.57s0 83.082-10.543 123.148c-5.906 21.93-23.195 39.222-45.129 45.125-40.066 10.547-200.327 10.547-200.327 10.547s-159.843 0-200.327-10.965c-21.934-5.906-39.223-23.199-45.13-45.129C0 262.746 0 179.242 0 179.242S0 96.157 10.543 56.094c5.902-21.93 23.617-39.644 45.125-45.546C95.734 0 255.995 0 255.995 0S416.26 0 456.326 10.966zM338.237 179.242 204.968 256V102.485l133.269 76.758z"/></symbol><symbol id="sprite-n-clock" viewBox="0 0 32 32"><title>n-clock</title><path fill-rule="evenodd" clip-rule="evenodd" d="M16 25.913c5.475 0 9.913-4.438 9.913-9.913 0-5.475-4.438-9.913-9.913-9.913-5.475 0-9.913 4.438-9.913 9.913 0 5.475 4.438 9.913 9.913 9.913zM16 28c6.627 0 12-5.373 12-12S22.627 4 16 4 4 9.373 4 16s5.373 12 12 12zm-.522-11.478v-3.13a1.043 1.043 0 1 1 2.087 0v4.173c0 .576-.467 1.044-1.043 1.044h-4.174a1.044 1.044 0 0 1 0-2.087h3.13z"/></symbol><symbol id="sprite-n-computer" viewBox="0 0 32 32"><title>n-computer</title><path fill-rule="evenodd" clip-rule="evenodd" d="M8.143 7h15.714c.579 0 1.048.448 1.048 1v10c0 .552-.47 1-1.048 1H8.143c-.579 0-1.048-.448-1.048-1V8c0-.552.47-1 1.048-1zM5 8c0-1.657 1.407-3 3.143-3h15.714C25.593 5 27 6.343 27 8v10c0 1.657-1.407 3-3.143 3H8.143C6.407 21 5 19.657 5 18V8zm2.619 17h16.762c.29 0 .524-.224.524-.5s-.235-.5-.524-.5H7.619a.512.512 0 0 0-.524.5c0 .276.235.5.524.5zM5 24.5C5 25.88 6.173 27 7.619 27h16.762C25.827 27 27 25.88 27 24.5S25.827 22 24.381 22H7.619C6.173 22 5 23.12 5 24.5zM9.19 11c0-.552.47-1 1.048-1h9.714c.579 0 1.048.448 1.048 1s-.469 1-1.048 1h-9.714c-.578 0-1.048-.448-1.048-1zm1.048 3c-.578 0-1.048.448-1.048 1s.47 1 1.048 1h4.714c.579 0 1.048-.448 1.048-1s-.469-1-1.048-1h-4.714z"/></symbol><symbol id="sprite-n-crossed-cloud" viewBox="0 0 32 32"><title>n-crossed-cloud</title><path fill-rule="evenodd" clip-rule="evenodd" d="M6.724 5.31a1 1 0 0 0-1.448 1.38l20 21a1 1 0 0 0 1.448-1.38l-20-21zM20.2 9c-1.726 0-3.308.682-4.514 1.819a1 1 0 1 1-1.372-1.456C15.867 7.899 17.931 7 20.2 7c4.908 0 8.8 4.173 8.8 9.21 0 2.09-.666 3.924-1.798 5.399a1 1 0 1 1-1.586-1.218C26.48 19.264 27 17.857 27 16.211 27 12.178 23.908 9 20.2 9zM3 18.5C3 15.428 5.572 13 8.667 13a1 1 0 1 1 0 2C6.607 15 5 16.601 5 18.5S6.607 22 8.667 22H16a1 1 0 1 1 0 2H8.667C5.572 24 3 21.572 3 18.5z"/></symbol><symbol id="sprite-n-email" viewBox="0 0 32 32"><title>n-email</title><path fill-rule="evenodd" clip-rule="evenodd" d="M7.01 11.315A1.76 1.76 0 0 0 7 11.5v9c0 .895.66 1.5 1.333 1.5h15.334c.672 0 1.333-.605 1.333-1.5v-9c0-.063-.003-.124-.01-.185l-8.846 6.45a1 1 0 0 1-1.288 0l-7.846-6.45zM23.448 10H8.552l6.948 5.693L23.448 10zM8.333 8C6.43 8 5 9.633 5 11.5v9C5 22.367 6.429 24 8.333 24h15.334C25.57 24 27 22.367 27 20.5v-9C27 9.633 25.572 8 23.667 8H8.333z"/></symbol><symbol id="sprite-n-eth" viewBox="0 0 32 32"><title>n-eth</title><path fill-rule="evenodd" clip-rule="evenodd" d="M16.716 3.037 15.596 1 6.482 16.789l9.104 4.468 8.686-4.476-7.514-13.667v-.077h-.042zm-1.958 3.416-5.474 9.483 5.474 2.687V6.453zm2 11.95 4.771-2.459-4.77-8.679v11.138zm-1.173 6.653 5.186-2.562-5.195 6.012-4.999-5.81 5.008 2.36zm8.73-6.544-8.75 4.323-8.38-3.95L6 20.44 15.573 31l9.942-10.938-1.2-1.55z"/></symbol><symbol id="sprite-n-headphones" viewBox="0 0 32 32"><title>n-headphones</title><path fill-rule="evenodd" clip-rule="evenodd" d="M22.296 13.024a2.162 2.162 0 0 0-2.016 2.15v4.656c0 .675.322 1.278.821 1.678a2.27 2.27 0 0 0 .24.167 6.676 6.676 0 0 1-1.399 1.464c-.467.36-1.986 1.664-2.544 1.898a1.811 1.811 0 0 0-1.339-.581h-2.49c-.99 0-1.799.79-1.799 1.756v.032c0 .966.809 1.756 1.799 1.756h2.496a1.793 1.793 0 0 0 1.637-1.036c.146-.052.291-.108.435-.167 1.02-.425 2.954-2.035 3.753-2.817a8.697 8.697 0 0 0 1.656-2.242 2.298 2.298 0 0 0 .718-.6C25.791 21.03 27 19.445 27 17.512c0-1.468-.697-2.73-1.691-3.305a2.439 2.439 0 0 0-1.039-.327c.026-.082.026-.17.026-.266v-.979c0-2.324-.899-4.497-2.554-6.115C20.086 4.89 17.867 4 15.493 4c-2.38 0-4.585.89-6.241 2.514-1.656 1.617-2.548 3.79-2.548 6.115v.98c0 .094 0 .182.025.264l-.091.01a2.46 2.46 0 0 0-.94.315C4.698 14.774 4 16.036 4 17.5c0 1.933 1.21 3.519 2.736 3.626a2.226 2.226 0 0 0 1.766.866c1.216 0 2.205-.967 2.205-2.16v-4.656a2.157 2.157 0 0 0-2.07-2.154v-.392a6.985 6.985 0 0 1 .188-1.6 6.599 6.599 0 0 1 1.762-3.147l.003-.003c1.233-1.228 2.96-1.98 4.903-1.98 1.948 0 3.674.752 4.908 1.982l.005.005a6.598 6.598 0 0 1 1.878 3.788c.043.313.066.633.066.96v.385l-.054.003zm-13.589 2.7-1.82.143c-.088.007-.282.065-.497.349-.215.283-.39.73-.39 1.283 0 .559.176 1.008.39 1.29.214.283.404.335.486.341l.905.064.548.722a.18.18 0 0 0 .064.049.25.25 0 0 0 .109.026c.07 0 .123-.026.16-.062a.132.132 0 0 0 .045-.099v-4.107zm13.573.012 1.84.138c.08.006.272.06.488.344.215.284.392.734.392 1.294 0 .558-.176 1.008-.39 1.29-.214.283-.404.335-.486.34l-.883.063-.548.695a.253.253 0 0 1-.073.065l-.13.068-.11-.067a.244.244 0 0 1-.084-.081.1.1 0 0 1-.016-.055v-4.094z"/></symbol><symbol id="sprite-n-heart" viewBox="0 0 32 32"><title>n-heart</title><path fill-rule="evenodd" clip-rule="evenodd" d="M4 12.116C4 7.69 7.63 5 11.111 5c1.21 0 3.36.535 4.889 2.474C17.528 5.535 19.679 5 20.889 5 24.37 5 28 7.69 28 12.116c0 2.8-1.79 5.427-3.929 7.872-1.093 1.25-2.337 2.515-3.594 3.787l-.206.208c-1.198 1.212-2.406 2.433-3.545 3.69A.98.98 0 0 1 16 28a.98.98 0 0 1-.726-.326c-1.139-1.258-2.347-2.48-3.545-3.69l-.206-.21c-1.257-1.271-2.501-2.537-3.594-3.786C5.79 17.543 4 14.916 4 12.116zm7.111-5.025C8.481 7.09 6 9.09 6 12.116c0 1.921 1.265 4.015 3.405 6.46 1.045 1.196 2.246 2.418 3.51 3.696l.213.217c.947.957 1.923 1.945 2.872 2.959a150.954 150.954 0 0 1 2.872-2.96l.214-.216c1.263-1.278 2.464-2.5 3.51-3.695C24.734 16.13 26 14.037 26 12.116c0-3.024-2.482-5.025-5.111-5.025-.967 0-2.978.551-3.985 2.774a.998.998 0 0 1-.904.598.998.998 0 0 1-.904-.598c-1.007-2.223-3.018-2.774-3.985-2.774z"/></symbol><symbol id="sprite-n-kryptex" viewBox="0 0 32 32"><title>n-kryptex</title><path fill-rule="evenodd" clip-rule="evenodd" d="M9.537 5c-.867 0-1.699.372-2.315 1.036L3.93 9.585A3.572 3.572 0 0 0 3 12.01c0 .86.298 1.687.834 2.318l3.755 4.42.707-.711-.702.716c.562.653 1.423.89 2.204.605l1.806-.658-.635 2.126a2.529 2.529 0 0 0 .156 1.846l-.016.091.335.39h.002l2.463 2.86c.542.63 1.299.986 2.091.986h.177a2.37 2.37 0 0 0 1.793-.845l10.184-11.821A3.57 3.57 0 0 0 29 12.005a3.56 3.56 0 0 0-.927-2.418l-3.295-3.552C24.162 5.372 23.33 5 22.463 5H9.537zm-4.289 7.907 3.393 3.994 5.686-1.17-1.14 6.382 1.574 1.826L21.7 11.951 7.942 8.21l-2.657 2.863a1.38 1.38 0 0 0-.36.938c0 .332.116.652.323.896zm6.537-5.812L22.166 9.92c1.272.345 1.861 1.942 1.163 3.149l-6.705 11.586L26.749 12.9a1.37 1.37 0 0 0 .325-.895 1.37 1.37 0 0 0-.356-.93l-3.296-3.551a1.31 1.31 0 0 0-.959-.43H11.785z"/></symbol><symbol id="sprite-n-list-check" viewBox="0 0 32 32"><title>n-list-check</title><path fill-rule="evenodd" clip-rule="evenodd" d="M18 2H6a2 2 0 0 0-2 2v16a2 2 0 0 0 2 2h12a2 2 0 0 0 2-2V4a2 2 0 0 0-2-2zM6 0a4 4 0 0 0-4 4v16a4 4 0 0 0 4 4h12a4 4 0 0 0 4-4V4a4 4 0 0 0-4-4H6zm1 7a1 1 0 0 1 1-1h8a1 1 0 1 1 0 2H8a1 1 0 0 1-1-1zm1 3a1 1 0 1 0 0 2h4a1 1 0 1 0 0-2H8z"/><path d="M28 21a8 8 0 1 1-16 0 8 8 0 0 1 16 0z"/><path fill-rule="evenodd" clip-rule="evenodd" d="M24.207 19.707a1 1 0 0 0-1.414-1.414L19 22.086l-1.293-1.293a1 1 0 0 0-1.414 1.414l2 2a1.002 1.002 0 0 0 1.414 0l4.5-4.5z" fill="#fff"/></symbol><symbol id="sprite-n-list" viewBox="0 0 32 32"><title>n-list</title><path fill-rule="evenodd" clip-rule="evenodd" d="M16.607 4H9.332C8.06 4 7 5.02 7 6.313v18.375C7 25.98 8.06 27 9.333 27h13.334C23.94 27 25 25.98 25 24.687V12.876a1.21 1.21 0 0 0 0 .007L16.607 4zm-.992 2H9.333A.323.323 0 0 0 9 6.313v18.375c0 .157.134.312.333.312h13.334a.323.323 0 0 0 .333-.313V13.876h-5.051c-1.274 0-2.334-1.02-2.334-2.313V6zm6.076 5.875-4.076-4.347v4.035c0 .157.135.312.334.312h3.742zM11 18a1 1 0 0 1 1-1h5a1 1 0 1 1 0 2h-5a1 1 0 0 1-1-1zm1-5a1 1 0 1 0 0 2h2a1 1 0 1 0 0-2h-2z"/></symbol><symbol id="sprite-n-lock" viewBox="0 0 32 32"><title>n-lock</title><path fill-rule="evenodd" clip-rule="evenodd" d="M9.188 11.5C9.188 7.943 11.98 5 15.5 5c1.618 0 3.184.402 4.37 1.32 1.218.945 1.942 2.369 1.942 4.18a1 1 0 1 1-2 0c0-1.226-.464-2.053-1.168-2.599C17.907 7.33 16.816 7 15.5 7c-2.35 0-4.313 1.982-4.313 4.5v1.4h9.98A3.828 3.828 0 0 1 25 16.723v6.454A3.828 3.828 0 0 1 21.167 27H9.833A3.828 3.828 0 0 1 6 23.177v-6.454a3.827 3.827 0 0 1 3.188-3.769V11.5zm.645 3.4C8.817 14.9 8 15.72 8 16.723v6.454C8 24.18 8.817 25 9.833 25h11.334C22.182 25 23 24.18 23 23.177v-6.454a1.828 1.828 0 0 0-1.833-1.823H9.833zm6.604 3.3a1 1 0 1 0-2 0v2.4a1 1 0 1 0 2 0v-2.4z"/></symbol><symbol id="sprite-n-moon" viewBox="0 0 32 32"><title>n-moon</title><path fill-rule="evenodd" clip-rule="evenodd" d="m22.537 17.961.01-.003a2.562 2.562 0 0 1 2.904.84c.655.846.727 2.003.199 2.918l-.004.008-.005.007C23.721 24.998 20.343 27 16.596 27 10.664 27 6 21.982 6 16S10.664 5 16.596 5c.344 0 .703.02 1.079.072l.018.002.019.003a2.584 2.584 0 0 1 2.114 1.996 2.609 2.609 0 0 1-1.032 2.7c-1.18.836-1.917 2.256-1.917 3.823 0 2.622 2.017 4.6 4.304 4.6.504 0 .951-.083 1.347-.232l.01-.003zM17.638 8.14a.609.609 0 0 0 .237-.63.585.585 0 0 0-.477-.457A5.48 5.48 0 0 0 16.596 7a8.312 8.312 0 0 0-.785.037C11.436 7.453 8 11.312 8 16c0 4.965 3.854 9 8.596 9 2.498 0 4.808-1.104 6.422-3.012a9.33 9.33 0 0 0 .671-.903l.01-.013a9.29 9.29 0 0 0 .218-.354.628.628 0 0 0-.046-.694.562.562 0 0 0-.638-.188 5.45 5.45 0 0 1-.529.169l-.016.004a5.692 5.692 0 0 1-.783.146 6.276 6.276 0 0 1-.724.041c-3.478 0-6.304-2.962-6.304-6.6a6.749 6.749 0 0 1 1.852-4.673 6.435 6.435 0 0 1 .91-.783z"/></symbol><symbol id="sprite-n-person-arrow" viewBox="0 0 32 32"><title>n-person-arrow</title><path fill-rule="evenodd" clip-rule="evenodd" d="M9 9.5a3.5 3.5 0 1 1 7 0 3.5 3.5 0 0 1-7 0zM12.5 4a5.5 5.5 0 1 0 0 11 5.5 5.5 0 0 0 0-11zM9.667 16C5.977 16 3 19.014 3 22.714 3 25.626 5.343 28 8.25 28h8.5c2.907 0 5.25-2.374 5.25-5.286 0-3.7-2.977-6.714-6.667-6.714H9.667zM5 22.714C5 20.103 7.097 18 9.667 18h5.666C17.903 18 20 20.103 20 22.714 20 24.537 18.537 26 16.75 26h-8.5C6.463 26 5 24.537 5 22.714zM29 12a1 1 0 0 1-1 1h-7a1 1 0 1 1 0-2h7a1 1 0 0 1 1 1z"/><path fill-rule="evenodd" clip-rule="evenodd" d="M24.707 8.293a1 1 0 0 1 0 1.414l-3 3a1 1 0 0 1-1.414-1.414l3-3a1 1 0 0 1 1.414 0z"/><path fill-rule="evenodd" clip-rule="evenodd" d="M24.707 15.707a1 1 0 0 0 0-1.414l-3-3a1 1 0 0 0-1.414 1.414l3 3a1 1 0 0 0 1.414 0z"/></symbol><symbol id="sprite-n-persons" viewBox="0 0 32 32"><title>n-persons</title><path fill-rule="evenodd" clip-rule="evenodd" d="M9 9.5a3.5 3.5 0 1 1 7 0 3.5 3.5 0 0 1-7 0zM12.5 4a5.5 5.5 0 1 0 0 11 5.5 5.5 0 0 0 0-11zM21 6a1 1 0 1 0 0 2 2 2 0 1 1 0 4 1 1 0 1 0 0 2 4 4 0 1 0 0-8zM4 22.143C4 18.777 6.66 16 10 16h5c3.34 0 6 2.777 6 6.143C21 24.799 18.9 27 16.25 27h-7.5C6.1 27 4 24.799 4 22.143zM10 18c-2.183 0-4 1.828-4 4.143C6 23.748 7.258 25 8.75 25h7.5c1.492 0 2.75-1.252 2.75-2.857C19 19.828 17.183 18 15 18h-5zm13-2a1 1 0 1 0 0 2c1.807 0 3 1.226 3 2.429 0 .728-.745 1.571-2 1.571a1 1 0 1 0 0 2c2.059 0 4-1.46 4-3.571C28 17.844 25.611 16 23 16z"/></symbol><symbol id="sprite-n-play" viewBox="0 0 32 32"><title>n-play</title><path fill-rule="evenodd" clip-rule="evenodd" d="M16 30c7.732 0 14-6.268 14-14S23.732 2 16 2 2 8.268 2 16s6.268 14 14 14zm12-14c0 6.627-5.373 12-12 12S4 22.627 4 16 9.373 4 16 4s12 5.373 12 12zm-11.837 4.684 4.279-3.056a2 2 0 0 0 0-3.255l-4.28-3.057c-1.323-.946-3.162 0-3.162 1.627v6.114c0 1.627 1.839 2.573 3.163 1.627zM19.279 16 15 19.057v-6.114L19.28 16z"/></symbol><symbol id="sprite-n-question" viewBox="0 0 32 32"><title>n-question</title><path fill-rule="evenodd" clip-rule="evenodd" d="M16 30c7.732 0 14-6.268 14-14S23.732 2 16 2 2 8.268 2 16s6.268 14 14 14zm12-14c0 6.627-5.373 12-12 12S4 22.627 4 16 9.373 4 16 4s12 5.373 12 12zm-11.95 6c-.617 0-1.127-.542-1.127-1.198 0-.656.51-1.197 1.127-1.197s1.127.541 1.127 1.197S16.667 22 16.05 22zm-.072-11C17.643 11 19 12.106 19 13.975c0 .847-.258 1.312-.696 1.922l-.861 1.198a2.22 2.22 0 0 0-.41.885 1.35 1.35 0 0 1-.287.572c-.172.19-.394.29-.696.29a.891.891 0 0 1-.696-.305c-.15-.168-.222-.404-.222-.68 0-.465.114-.854.516-1.387l1.07-1.435c.23-.305.416-.64.416-1.06 0-.671-.445-1.19-1.134-1.19-.366 0-.653.107-.883.366-.172.19-.273.427-.359.725-.05.175-.157.381-.258.503-.165.183-.38.244-.653.244a.818.818 0 0 1-.624-.266c-.151-.168-.223-.39-.223-.702 0-.496.251-1.244.825-1.808.546-.534 1.285-.847 2.154-.847z"/></symbol><symbol id="sprite-n-spark" viewBox="0 0 32 32"><title>n-spark</title><path fill-rule="evenodd" clip-rule="evenodd" d="m15.973 6.447-7.335 9.944h6.255c.81 0 1.414.745 1.248 1.537l-1.485 7.094 8.643-10.87h-6.225a1.276 1.276 0 0 1-1.275-1.31l.174-6.395zm-.28-2.926c.742-1.005 2.335-.456 2.301.793l-.214 7.875h6.942c1.068 0 1.663 1.235.998 2.07L14.388 28.514c-.837 1.053-2.521.26-2.246-1.056l1.906-9.103h-6.77c-1.047 0-1.648-1.192-1.026-2.034L15.693 3.52z"/></symbol><symbol id="sprite-n-star" viewBox="0 0 32 32"><title>n-star</title><path fill-rule="evenodd" clip-rule="evenodd" d="M14.203 6.802c.53-1.07 2.064-1.07 2.594 0l2.46 4.957 5.503.795c1.186.172 1.66 1.621.802 2.454l-3.982 3.858.94 5.45c.203 1.174-1.037 2.07-2.099 1.516L15.5 23.259l-4.921 2.573c-1.061.554-2.302-.342-2.1-1.517l.94-5.449-3.98-3.858c-.86-.832-.385-2.282.801-2.454l5.502-.795 2.46-4.957zm1.297 1.72-2.14 4.312a1.445 1.445 0 0 1-1.09.787l-4.786.691 3.463 3.357c.341.33.497.807.417 1.273l-.818 4.74 4.28-2.238c.422-.22.926-.22 1.347 0l4.281 2.238-.817-4.74a1.435 1.435 0 0 1 .415-1.273l3.464-3.357-4.786-.691a1.446 1.446 0 0 1-1.09-.787L15.5 8.522z"/></symbol><symbol id="sprite-n-telegram" viewBox="0 0 32 32"><title>n-telegram</title><path fill-rule="evenodd" clip-rule="evenodd" d="M21.16 11.02a.971.971 0 0 1 .203-.113c.287-.118.502-.026.408.162a.48.48 0 0 1-.1.128l-7.587 7.348-.295 4.467c.42 0 .605-.195.824-.431l1.976-2.037 4.095 3.233c.751.45 1.28.214 1.482-.746l2.689-13.582c.24-1.193-.4-1.662-1.13-1.365L7.922 14.606c-1.078.45-1.06 1.1-.184 1.392l4.039 1.354 9.382-6.331zm-4.991 12.9.611-.63 2.674 2.111.116.07c.616.369 1.784.844 3.016.242 1.129-.552 1.497-1.636 1.634-2.289l.002-.011 2.69-13.587.001-.003c.176-.878.152-2.069-.719-2.97-.986-1.022-2.358-.988-3.29-.61L7.092 12.771l-.007.003a4.097 4.097 0 0 0-1.241.777c-.373.351-.773.907-.834 1.654-.138 1.687 1.362 2.454 2.035 2.68h.003l4.873 1.634-.363 5.493h2.232c.593 0 1.145-.15 1.63-.45.377-.235.647-.53.745-.636a.278.278 0 0 1 .005-.005z"/></symbol><symbol id="sprite-n-text" viewBox="0 0 32 32"><title>n-text</title><path fill-rule="evenodd" clip-rule="evenodd" d="M16 6c-5.529 0-10 4.453-10 9.932a9.83 9.83 0 0 0 1.336 4.963c.207.355.227.741.217 1.002-.01.284-.062.58-.126.858-.114.497-.298 1.066-.465 1.585l-.053.166c-.175.545-.322 1.02-.402 1.404.366-.105.816-.282 1.333-.49l.151-.062c.503-.204 1.058-.43 1.548-.578a4.48 4.48 0 0 1 .851-.183c.266-.026.654-.026 1.023.163A10.008 10.008 0 0 0 16 25.864c5.529 0 10-4.452 10-9.932S21.529 6 16 6zM6.452 26.387v.007-.007zM4 15.932c0-1.284.204-2.521.581-3.68A12 12 0 0 1 16 4c6.622 0 12 5.336 12 11.932s-5.378 11.932-12 11.932c-1.943 0-3.781-.46-5.407-1.277h-.01c-.097.01-.248.042-.463.107-.398.12-.867.31-1.394.524l-.136.055c-.55.222-1.17.47-1.71.607a3.36 3.36 0 0 1-.882.12c-.297-.007-.727-.079-1.076-.411-.348-.332-.44-.757-.464-1.046-.025-.3.011-.61.061-.886.1-.552.302-1.192.485-1.762l.05-.156c.1-.312.195-.605.275-.875.058-.198.11-.385.149-.557.05-.222.073-.379.077-.48v-.016A11.832 11.832 0 0 1 4 15.933zm1.554 5.836a.04.04 0 0 1 0-.007v.007zm5.089 4.817h-.007.007zM11 18a1 1 0 0 1 1-1h8a1 1 0 1 1 0 2h-8a1 1 0 0 1-1-1zm1-5a1 1 0 1 0 0 2h8a1 1 0 1 0 0-2h-8z"/></symbol><symbol id="sprite-n-warning" viewBox="0 0 32 32"><title>n-warning</title><path fill-rule="evenodd" clip-rule="evenodd" d="M17.759 7.968c-.791-1.304-2.727-1.304-3.518 0L6.333 21.007c-.805 1.327.177 3.003 1.759 3.003h15.816c1.582 0 2.564-1.676 1.759-3.003L17.759 7.968zm-5.276-1.013c1.581-2.607 5.453-2.607 7.034 0l7.909 13.04C29.035 22.647 27.072 26 23.908 26H8.092c-3.164 0-5.127-3.352-3.518-6.006l7.909-13.039zM16 11.073c.564 0 1.021.446 1.021.995v4.976c0 .55-.457.995-1.021.995a1.008 1.008 0 0 1-1.021-.995v-4.976c0-.55.457-.995 1.021-.995zm-1.021 9.951c0 .55.457.995 1.021.995.564 0 1.021-.445 1.021-.995v-.995c0-.55-.457-.995-1.021-.995-.564 0-1.021.446-1.021.995v.995z"/></symbol><symbol fill="none" id="sprite-nvidia" viewBox="0 0 16 10"><title>nvidia</title><g clip-path="url(#a)"><path d="M5.97 2.814v-.853c.095-.006.184-.012.28-.012 2.612-.073 4.328 2.004 4.328 2.004s-1.853 2.29-3.843 2.29c-.287 0-.54-.043-.773-.11V3.551c1.02.11 1.224.512 1.833 1.42l1.367-1.024s-.991-1.163-2.666-1.163a4.95 4.95 0 0 0-.527.03zM5.97 0v1.273c.095-.006.184-.012.28-.012 3.637-.11 6.003 2.655 6.003 2.655S9.532 6.864 6.694 6.864a5.45 5.45 0 0 1-.732-.054v.785c.199.025.397.037.609.037 2.64 0 4.547-1.2 6.393-2.62.308.22 1.56.75 1.819.981-1.757 1.31-5.853 2.364-8.171 2.364a7.46 7.46 0 0 1-.65-.03v1.102H16V0H5.97zm0 6.133v.67c-2.442-.39-3.119-2.65-3.119-2.65s1.17-1.156 3.118-1.345v.737h-.007c-1.018-.11-1.818.743-1.818.743s.45 1.431 1.825 1.845zM1.633 4.056s1.45-1.9 4.335-2.095v-.688C2.77 1.498 0 3.916 0 3.916s1.566 4.039 5.97 4.41v-.73c-3.228-.366-4.336-3.54-4.336-3.54z" fill="#8DC63F"/></g><defs><clipPath id="a"><path fill="#fff" d="M0 0h16v9.429H0z"/></clipPath></defs></symbol><symbol fill="none" id="sprite-payout-yandex-2" viewBox="0 0 30 30"><title>payout-yandex-2</title><path d="M16.336 16.788v5.362h1.814V7.85h-2.439c-1.159 0-2.234.375-3.02 1.143-.787.77-1.269 1.92-1.269 3.442 0 1.063.215 1.893.597 2.542.357.606.856 1.044 1.443 1.364l-2.598 5.596-.099.213h2.115l.04-.088 2.383-5.274h1.033zm-.658-7.38h.658v5.823h-.658c-.63 0-1.19-.175-1.595-.6-.406-.425-.678-1.127-.678-2.23 0-1.15.288-1.895.705-2.351.416-.455.977-.642 1.568-.642z" fill="red" stroke="red" stroke-width=".3"/></symbol><symbol id="sprite-pencil" viewBox="0 0 13 12"><title>pencil</title><path d="m8.084 2.002 2.645 2.454-6.696 6.21-2.642-2.453 6.693-6.21zm4.65-.59L11.554.317a1.24 1.24 0 0 0-1.654 0l-1.13 1.05 2.644 2.453 1.318-1.222a.793.793 0 0 0 .002-1.186zM.007 11.66c-.049.2.148.38.364.333l2.947-.664L.676 8.877.007 11.66z"/></symbol><symbol id="sprite-refresh" viewBox="0 0 9 9"><title>refresh</title><path d="M.778 3.761c.31 0 .59-.174.71-.441.494-1.101 1.657-1.877 3.014-1.877.747 0 1.432.24 1.981.635l-.43.065a.327.327 0 0 0-.282.268.31.31 0 0 0 .196.329l2.367.995a.357.357 0 0 0 .32-.022.31.31 0 0 0 .155-.262l.012-2.439a.319.319 0 0 0-.237-.3.35.35 0 0 0-.378.125l-.326.458A4.988 4.988 0 0 0 4.502 0C2.506 0 .794 1.138.062 2.754a.69.69 0 0 0 .067.684.797.797 0 0 0 .649.323zm8.093 1.803a.793.793 0 0 0-.646-.325c-.31 0-.59.174-.71.441C7.02 6.781 5.858 7.557 4.5 7.557c-.748 0-1.432-.24-1.982-.635l.432-.063a.327.327 0 0 0 .28-.268.31.31 0 0 0-.195-.329l-2.37-.995a.357.357 0 0 0-.32.022.31.31 0 0 0-.154.262L.18 7.988c0 .138.097.26.237.3a.35.35 0 0 0 .378-.125l.326-.458A4.98 4.98 0 0 0 4.5 9c1.993 0 3.708-1.138 4.438-2.754a.681.681 0 0 0-.066-.682z"/></symbol><symbol id="sprite-stack" viewBox="0 0 25 23"><title>stack</title><path fill-rule="evenodd" clip-rule="evenodd" d="m12.76.882 12.005 6.053-12.006 6.053L.765 6.935 12.759.882zm0 2.212L5.149 6.935l7.61 3.84 7.618-3.84-7.617-3.84zm-10.241 7.46 10.24 5.169 10.25-5.168.878 1.77-11.128 5.61-11.118-5.61.878-1.77zm10.24 10.116L2.52 15.5l-.878 1.77 11.118 5.61 11.128-5.61-.877-1.77-10.25 5.169z"/></symbol><symbol id="sprite-star-filled" viewBox="0 0 15 14"><title>star-filled</title><path d="M6.572 1.31c.336-.836 1.52-.836 1.856 0l1.036 2.582a1 1 0 0 0 .86.625l2.776.188c.899.06 1.265 1.187.573 1.765l-2.134 1.783a1 1 0 0 0-.329 1.012l.679 2.697c.22.874-.738 1.57-1.502 1.09l-2.355-1.478a1 1 0 0 0-1.064 0l-2.355 1.479c-.764.479-1.722-.217-1.502-1.091l.679-2.697a1 1 0 0 0-.329-1.012L1.327 6.47c-.692-.578-.326-1.704.574-1.765l2.774-.188a1 1 0 0 0 .86-.625L6.573 1.31z"/></symbol><symbol fill="none" id="sprite-star" viewBox="0 0 21 20"><title>star</title><path fill-rule="evenodd" clip-rule="evenodd" d="M9.203.802c.53-1.07 2.064-1.07 2.594 0l2.46 4.957 5.503.795c1.186.172 1.66 1.621.802 2.454l-3.982 3.859.94 5.448c.203 1.175-1.037 2.071-2.099 1.517L10.5 17.259l-4.921 2.573c-1.061.554-2.302-.342-2.1-1.517l.94-5.449L.44 9.008c-.86-.833-.385-2.282.801-2.454l5.502-.795L9.202.802zm1.297 1.72L8.36 6.834a1.445 1.445 0 0 1-1.09.787l-4.786.691 3.464 3.357c.34.33.496.807.416 1.273l-.818 4.74 4.28-2.238c.422-.22.926-.22 1.347 0l4.281 2.238-.818-4.74c-.08-.466.076-.942.417-1.273l3.463-3.357-4.786-.691a1.446 1.446 0 0 1-1.09-.787L10.5 2.522z" fill="#036EE9"/></symbol><symbol id="sprite-time" viewBox="0 0 22 22"><title>time</title><path d="m11.505 6.738-.001-.007a.85.85 0 0 0-1.692.115v4.855l.008.112.001.007a.85.85 0 0 0 .405.603l3.77 2.25.006.003.09.046.007.003a.85.85 0 0 0 1.063-.347l.003-.006.046-.09.003-.007a.85.85 0 0 0-.347-1.063l-3.356-2.002V6.84l-.006-.102zM21.1 11C21.1 5.422 16.578.9 11 .9 5.422.9.9 5.422.9 11c0 5.578 4.522 10.1 10.1 10.1 5.578 0 10.1-4.522 10.1-10.1zM2.6 11A8.4 8.4 0 0 1 11 2.6a8.4 8.4 0 0 1 8.4 8.4 8.4 8.4 0 0 1-8.4 8.4A8.4 8.4 0 0 1 2.6 11z"/></symbol></svg>